 0
SECTION
 2
ENTITIES
  0
LINE
 8
COMPONENT0
10
70.0689655172414
20
0.0
30
0.0
11
39.8455560951918
21
0.0
31
0.0
  0
LINE
 8
COMPONENT0
10
39.8455560951918
20
0.0
30
0.0
11
-47.2472073822244
21
164.316658572122
31
0.0
  0
LINE
 8
COMPONENT0
10
-47.2472073822244
20
164.316658572122
30
0.0
11
-47.2472073822244
21
0.0
31
0.0
  0
LINE
 8
COMPONENT0
10
-47.2472073822244
20
0.0
30
0.0
11
-70.0689655172414
21
0.0
31
0.0
  0
LINE
 8
COMPONENT0
10
-70.0689655172414
20
0.0
30
0.0
11
-70.0689655172414
21
183.684312773191
31
0.0
  0
LINE
 8
COMPONENT0
10
-70.0689655172414
20
183.684312773191
30
0.0
11
-32.1971830985915
21
183.684312773191
31
0.0
  0
LINE
 8
COMPONENT0
10
-32.1971830985915
20
183.684312773191
30
0.0
11
47.2472073822244
21
33.6775133559981
31
0.0
  0
LINE
 8
COMPONENT0
10
47.2472073822244
20
33.6775133559981
30
0.0
11
47.2472073822244
21
183.684312773191
31
0.0
  0
LINE
 8
COMPONENT0
10
47.2472073822244
20
183.684312773191
30
0.0
11
70.0689655172414
21
183.684312773191
31
0.0
  0
LINE
 8
COMPONENT0
10
70.0689655172414
20
183.684312773191
30
0.0
11
70.0689655172414
21
0.0
31
0.0
  0
LINE
 8
COMPONENT0
10
54.2787761049053
20
245.73482272948
30
0.0
11
51.2256043606907
21
229.296977535505
31
0.0
  0
LINE
 8
COMPONENT0
10
51.2256043606907
20
229.296977535505
30
0.0
11
44.7799902865469
21
217.485186983973
31
0.0
  0
LINE
 8
COMPONENT0
10
44.7799902865469
20
217.485186983973
30
0.0
11
35.2503699015043
21
210.361084443843
31
0.0
  0
LINE
 8
COMPONENT0
10
35.2503699015043
20
210.361084443843
30
0.0
11
22.9451189898009
21
207.986401165614
31
0.0
  0
LINE
 8
COMPONENT0
10
22.9451189898009
20
207.986401165614
30
0.0
11
10.6090335114133
21
210.3919378339
31
0.0
  0
LINE
 8
COMPONENT0
10
10.6090335114133
20
210.3919378339
30
0.0
11
-0.123360854783867
21
217.361826129189
31
0.0
  0
LINE
 8
COMPONENT0
10
-0.123360854783867
20
217.361826129189
30
0.0
11
-9.93054881010199
21
225.318601262749
31
0.0
  0
LINE
 8
COMPONENT0
10
-9.93054881010199
20
225.318601262749
30
0.0
11
-18.7508499271491
21
227.970859640602
31
0.0
  0
LINE
 8
COMPONENT0
10
-18.7508499271491
20
227.970859640602
30
0.0
11
-24.3637721139056
21
226.583055671295
31
0.0
  0
LINE
 8
COMPONENT0
10
-24.3637721139056
20
226.583055671295
30
0.0
11
-28.3729966002914
21
222.419621175328
31
0.0
  0
LINE
 8
COMPONENT0
10
-28.3729966002914
20
222.419621175328
30
0.0
11
-32.0738222438077
21
207.492957746479
31
0.0
  0
LINE
 8
COMPONENT0
10
-32.0738222438077
20
207.492957746479
30
0.0
11
-48.2340942204954
21
207.492957746479
31
0.0
  0
LINE
 8
COMPONENT0
10
-48.2340942204954
20
207.492957746479
30
0.0
11
-45.3042838016489
21
223.838278534691
31
0.0
  0
LINE
 8
COMPONENT0
10
-45.3042838016489
20
223.838278534691
30
0.0
11
-38.4885866925692
21
235.619232637203
31
0.0
  0
LINE
 8
COMPONENT0
10
-38.4885866925692
20
235.619232637203
30
0.0
11
-28.7430852822391
21
242.743335177332
31
0.0
  0
LINE
 8
COMPONENT0
10
-28.7430852822391
20
242.743335177332
30
0.0
11
-17.0237979601748
21
245.118018455561
31
0.0
  0
LINE
 8
COMPONENT0
10
-17.0237979601748
20
245.118018455561
30
0.0
11
-5.11947547353084
21
242.712481787275
31
0.0
  0
LINE
 8
COMPONENT0
10
-5.11947547353084
20
242.712481787275
30
0.0
11
5.79796017484216
21
235.86595434677
31
0.0
  0
LINE
 8
COMPONENT0
10
5.79796017484216
20
235.86595434677
30
0.0
11
16.0985915492958
21
228.279261777562
31
0.0
  0
LINE
 8
COMPONENT0
10
16.0985915492958
20
228.279261777562
30
0.0
11
24.6721709567751
21
225.750364254492
31
0.0
  0
LINE
 8
COMPONENT0
10
24.6721709567751
20
225.750364254492
30
0.0
11
30.2696725660994
21
227.169004672821
31
0.0
  0
LINE
 8
COMPONENT0
10
30.2696725660994
20
227.169004672821
30
0.0
11
34.4793589120933
21
231.424963574551
31
0.0
  0
LINE
 8
COMPONENT0
10
34.4793589120933
20
231.424963574551
30
0.0
11
37.2087234711983
21
237.839728023312
31
0.0
  0
LINE
 8
COMPONENT0
10
37.2087234711983
20
237.839728023312
30
0.0
11
38.3652258377853
21
245.73482272948
31
0.0
  0
LINE
 8
COMPONENT0
10
38.3652258377853
20
245.73482272948
30
0.0
11
54.2787761049053
21
245.73482272948
31
0.0
 0
ENDSEC
 0
EOF
