 0
SECTION
 2
ENTITIES
  0
LINE
 8
COMPONENT0
10
57.6095191840699
20
0.0
30
0.0
11
34.4176784847013
21
0.0
31
0.0
  0
LINE
 8
COMPONENT0
10
34.4176784847013
20
0.0
30
0.0
11
34.4176784847013
21
78.4575036425449
31
0.0
  0
LINE
 8
COMPONENT0
10
34.4176784847013
20
78.4575036425449
30
0.0
11
33.3074307916464
21
96.283147158815
31
0.0
  0
LINE
 8
COMPONENT0
10
33.3074307916464
20
96.283147158815
30
0.0
11
29.2365225837785
21
109.297717338514
31
0.0
  0
LINE
 8
COMPONENT0
10
29.2365225837785
20
109.297717338514
30
0.0
11
20.3545410393395
21
117.007770762506
31
0.0
  0
LINE
 8
COMPONENT0
10
20.3545410393395
20
117.007770762506
30
0.0
11
5.30451675570666
21
119.536668285576
31
0.0
  0
LINE
 8
COMPONENT0
10
5.30451675570666
20
119.536668285576
30
0.0
11
-4.41014961735492
21
118.364744870972
31
0.0
  0
LINE
 8
COMPONENT0
10
-4.41014961735492
20
118.364744870972
30
0.0
11
-14.5565808644973
21
114.848955803788
31
0.0
  0
LINE
 8
COMPONENT0
10
-14.5565808644973
20
114.848955803788
30
0.0
11
-34.4176784847013
21
102.882952889752
31
0.0
  0
LINE
 8
COMPONENT0
10
-34.4176784847013
20
102.882952889752
30
0.0
11
-34.4176784847013
21
0.0
31
0.0
  0
LINE
 8
COMPONENT0
10
-34.4176784847013
20
0.0
30
0.0
11
-57.6095191840699
21
0.0
31
0.0
  0
LINE
 8
COMPONENT0
10
-57.6095191840699
20
0.0
30
0.0
11
-57.6095191840699
21
137.794074793589
31
0.0
  0
LINE
 8
COMPONENT0
10
-57.6095191840699
20
137.794074793589
30
0.0
11
-34.4176784847013
21
137.794074793589
31
0.0
  0
LINE
 8
COMPONENT0
10
-34.4176784847013
20
137.794074793589
30
0.0
11
-34.4176784847013
21
122.497328800389
31
0.0
  0
LINE
 8
COMPONENT0
10
-34.4176784847013
20
122.497328800389
30
0.0
11
-11.9660029140359
21
136.56046624575
31
0.0
  0
LINE
 8
COMPONENT0
10
-11.9660029140359
20
136.56046624575
30
0.0
11
-0.215881966456103
21
140.353820059704
31
0.0
  0
LINE
 8
COMPONENT0
10
-0.215881966456103
20
140.353820059704
30
0.0
11
11.8426420592521
21
141.618261291889
31
0.0
  0
LINE
 8
COMPONENT0
10
11.8426420592521
20
141.618261291889
30
0.0
11
31.5187115736411
21
138.256693057727
31
0.0
  0
LINE
 8
COMPONENT0
10
31.5187115736411
20
138.256693057727
30
0.0
11
39.3675257241396
21
134.054715823988
31
0.0
  0
LINE
 8
COMPONENT0
10
39.3675257241396
20
134.054715823988
30
0.0
11
45.8902379796017
21
128.171928120447
31
0.0
  0
LINE
 8
COMPONENT0
10
45.8902379796017
20
128.171928120447
30
0.0
11
51.0174415064066
21
120.708588288443
31
0.0
  0
LINE
 8
COMPONENT0
10
51.0174415064066
20
120.708588288443
30
0.0
11
54.6797148828196
21
111.764948551721
31
0.0
  0
LINE
 8
COMPONENT0
10
54.6797148828196
20
111.764948551721
30
0.0
11
57.6095191840699
21
89.4366197183098
31
0.0
  0
LINE
 8
COMPONENT0
10
57.6095191840699
20
89.4366197183098
30
0.0
11
57.6095191840699
21
0.0
31
0.0
  0
LINE
 8
COMPONENT0
10
52.1816415735794
20
199.721223895095
30
0.0
11
49.1284698293648
21
183.28337870112
31
0.0
  0
LINE
 8
COMPONENT0
10
49.1284698293648
20
183.28337870112
30
0.0
11
42.682855755221
21
171.471588149587
31
0.0
  0
LINE
 8
COMPONENT0
10
42.682855755221
20
171.471588149587
30
0.0
11
33.1532353701784
21
164.347485609458
31
0.0
  0
LINE
 8
COMPONENT0
10
33.1532353701784
20
164.347485609458
30
0.0
11
20.847984458475
21
161.972802331229
31
0.0
  0
LINE
 8
COMPONENT0
10
20.847984458475
20
161.972802331229
30
0.0
11
8.51189898008742
21
164.378338999514
31
0.0
  0
LINE
 8
COMPONENT0
10
8.51189898008742
20
164.378338999514
30
0.0
11
-2.22049538610977
21
171.348227294803
31
0.0
  0
LINE
 8
COMPONENT0
10
-2.22049538610977
20
171.348227294803
30
0.0
11
-12.0276833414279
21
179.305002428363
31
0.0
  0
LINE
 8
COMPONENT0
10
-12.0276833414279
20
179.305002428363
30
0.0
11
-20.847984458475
21
181.957260806217
31
0.0
  0
LINE
 8
COMPONENT0
10
-20.847984458475
20
181.957260806217
30
0.0
11
-26.460907351108
21
180.56945683691
31
0.0
  0
LINE
 8
COMPONENT0
10
-26.460907351108
20
180.56945683691
30
0.0
11
-30.4701311316173
21
176.406022340942
31
0.0
  0
LINE
 8
COMPONENT0
10
-30.4701311316173
20
176.406022340942
30
0.0
11
-34.1709567751336
21
161.479358912093
31
0.0
  0
LINE
 8
COMPONENT0
10
-34.1709567751336
20
161.479358912093
30
0.0
11
-50.3312287518213
21
161.479358912093
31
0.0
  0
LINE
 8
COMPONENT0
10
-50.3312287518213
20
161.479358912093
30
0.0
11
-47.4014183329748
21
177.824679700306
31
0.0
  0
LINE
 8
COMPONENT0
10
-47.4014183329748
20
177.824679700306
30
0.0
11
-40.5857212238951
21
189.605633802817
31
0.0
  0
LINE
 8
COMPONENT0
10
-40.5857212238951
20
189.605633802817
30
0.0
11
-30.8402184018121
21
196.729736342947
31
0.0
  0
LINE
 8
COMPONENT0
10
-30.8402184018121
20
196.729736342947
30
0.0
11
-19.1209324915007
21
199.104419621175
31
0.0
  0
LINE
 8
COMPONENT0
10
-19.1209324915007
20
199.104419621175
30
0.0
11
-7.21661000485673
21
196.69888295289
31
0.0
  0
LINE
 8
COMPONENT0
10
-7.21661000485673
20
196.69888295289
30
0.0
11
3.70082564351627
21
189.852355512385
31
0.0
  0
LINE
 8
COMPONENT0
10
3.70082564351627
20
189.852355512385
30
0.0
11
14.0014570179699
21
182.265662943176
31
0.0
  0
LINE
 8
COMPONENT0
10
14.0014570179699
20
182.265662943176
30
0.0
11
22.5750364254492
21
179.736765420107
31
0.0
  0
LINE
 8
COMPONENT0
10
22.5750364254492
20
179.736765420107
30
0.0
11
28.1725380347735
21
181.155405838435
31
0.0
  0
LINE
 8
COMPONENT0
10
28.1725380347735
20
181.155405838435
30
0.0
11
32.3822243807674
21
185.411364740165
31
0.0
  0
LINE
 8
COMPONENT0
10
32.3822243807674
20
185.411364740165
30
0.0
11
35.1115889398724
21
191.826129188927
31
0.0
  0
LINE
 8
COMPONENT0
10
35.1115889398724
20
191.826129188927
30
0.0
11
36.2680913064594
21
199.721223895095
31
0.0
  0
LINE
 8
COMPONENT0
10
36.2680913064594
20
199.721223895095
30
0.0
11
52.1816415735794
21
199.721223895095
31
0.0
 0
ENDSEC
 0
EOF
