 0
SECTION
 2
ENTITIES
  0
LINE
 8
COMPONENT0
10
-0.639261744966436
20
195.75615212528
30
-7.85186853675367
11
17.2955881583877
21
192.400047472926
31
-7.85186853675367
  0
LINE
 8
COMPONENT0
10
17.2955881583877
20
192.400047472926
30
-7.85186853675367
11
32.4602908277405
21
182.331655480984
31
-7.85186853675367
  0
LINE
 8
COMPONENT0
10
32.4602908277405
20
182.331655480984
30
-7.85186853675367
11
44.1623419691252
21
166.030493990154
31
-7.85186853675367
  0
LINE
 8
COMPONENT0
10
44.1623419691252
20
166.030493990154
30
-7.85186853675367
11
51.7091722595078
21
143.975950782998
31
-7.85186853675367
  0
LINE
 8
COMPONENT0
10
51.7091722595078
20
143.975950782998
30
-7.85186853675367
11
55.8111093764337
21
119.275585080687
31
-7.85186853675367
  0
LINE
 8
COMPONENT0
10
55.8111093764337
20
119.275585080687
30
-7.85186853675367
11
57.1784116331096
21
95.0369127516778
31
-7.85186853675367
  0
LINE
 8
COMPONENT0
10
57.1784116331096
20
95.0369127516778
30
-7.85186853675367
11
56.1884507012847
21
74.4073553613368
31
-7.85186853675367
  0
LINE
 8
COMPONENT0
10
56.1884507012847
20
74.4073553613368
30
-7.85186853675367
11
53.2185586933588
21
55.9886533621974
31
-7.85186853675367
  0
LINE
 8
COMPONENT0
10
53.2185586933588
20
55.9886533621974
30
-7.85186853675367
11
48.2687217906551
21
39.7807421316237
31
-7.85186853675367
  0
LINE
 8
COMPONENT0
10
48.2687217906551
20
39.7807421316237
30
-7.85186853675367
11
41.3389261744966
21
25.7835570469799
31
-7.85186853675367
  0
LINE
 8
COMPONENT0
10
41.3389261744966
20
25.7835570469799
30
-7.85186853675367
11
32.7754742539169
21
14.5032144886935
31
-7.85186853675367
  0
LINE
 8
COMPONENT0
10
32.7754742539169
20
14.5032144886935
30
-7.85186853675367
11
22.9246516387735
21
6.44585695042706
31
-7.85186853675367
  0
LINE
 8
COMPONENT0
10
22.9246516387735
20
6.44585695042706
30
-7.85186853675367
11
11.7864193116259
21
1.61146019869203
31
-7.85186853675367
  0
LINE
 8
COMPONENT0
10
11.7864193116259
20
1.61146019869203
30
-7.85186853675367
11
-0.639261744966436
21
0.0
31
-7.85186853675367
  0
LINE
 8
COMPONENT0
10
-0.639261744966436
20
0.0
30
-7.85186853675367
11
-16.4609929133848
21
3.03647809820687
31
-7.85186853675367
  0
LINE
 8
COMPONENT0
10
-16.4609929133848
20
3.03647809820687
30
-7.85186853675367
11
-30.9686800894855
21
12.1459731543624
31
-7.85186853675367
  0
LINE
 8
COMPONENT0
10
-30.9686800894855
20
12.1459731543624
30
-7.85186853675367
11
-42.9015757498858
21
27.3461812881282
31
-7.85186853675367
  0
LINE
 8
COMPONENT0
10
-42.9015757498858
20
27.3461812881282
30
-7.85186853675367
11
-50.9988814317673
21
48.6549217002237
31
-7.85186853675367
  0
LINE
 8
COMPONENT0
10
-50.9988814317673
20
48.6549217002237
30
-7.85186853675367
11
-55.6335368049758
21
73.6749123140203
31
-7.85186853675367
  0
LINE
 8
COMPONENT0
10
-55.6335368049758
20
73.6749123140203
30
-7.85186853675367
11
-57.1784116331096
21
100.008948545861
31
-7.85186853675367
  0
LINE
 8
COMPONENT0
10
-57.1784116331096
20
100.008948545861
30
-7.85186853675367
11
-55.1008213259763
21
128.917796073077
31
-7.85186853675367
  0
LINE
 8
COMPONENT0
10
-55.1008213259763
20
128.917796073077
30
-7.85186853675367
11
-48.8680089485459
21
153.706935123043
31
-7.85186853675367
  0
LINE
 8
COMPONENT0
10
-48.8680089485459
20
153.706935123043
30
-7.85186853675367
11
-39.3501178178211
21
173.168918976581
31
-7.85186853675367
  0
LINE
 8
COMPONENT0
10
-39.3501178178211
20
173.168918976581
30
-7.85186853675367
11
-27.417225950783
21
186.096196868009
31
-7.85186853675367
  0
LINE
 8
COMPONENT0
10
-27.417225950783
20
186.096196868009
30
-7.85186853675367
11
-14.1525452846382
21
193.341178484411
31
-7.85186853675367
  0
LINE
 8
COMPONENT0
10
-14.1525452846382
20
193.341178484411
30
-7.85186853675367
11
-0.639261744966436
21
195.75615212528
31
-7.85186853675367
  0
LINE
 8
COMPONENT0
10
1.20749440715884
20
179.561521252796
30
-7.85186853675367
11
-8.0618247727153
21
178.194222789483
31
-7.85186853675367
  0
LINE
 8
COMPONENT0
10
-8.0618247727153
20
178.194222789483
30
-7.85186853675367
11
-16.1236145245682
21
174.092312226093
31
-7.85186853675367
  0
LINE
 8
COMPONENT0
10
-16.1236145245682
20
174.092312226093
30
-7.85186853675367
11
-22.9779035018328
21
167.255766802453
31
-7.85186853675367
  0
LINE
 8
COMPONENT0
10
-22.9779035018328
20
167.255766802453
30
-7.85186853675367
11
-28.6247203579418
21
157.684563758389
31
-7.85186853675367
  0
LINE
 8
COMPONENT0
10
-28.6247203579418
20
157.684563758389
30
-7.85186853675367
11
-36.1893304082371
21
131.65242443042
31
-7.85186853675367
  0
LINE
 8
COMPONENT0
10
-36.1893304082371
20
131.65242443042
30
-7.85186853675367
11
-38.7108501118568
21
97.3098434004474
31
-7.85186853675367
  0
LINE
 8
COMPONENT0
10
-38.7108501118568
20
97.3098434004474
30
-7.85186853675367
11
-36.1715728665892
21
63.3224056167091
31
-7.85186853675367
  0
LINE
 8
COMPONENT0
10
-36.1715728665892
20
63.3224056167091
30
-7.85186853675367
11
-28.5536912751678
21
37.7874720357942
31
-7.85186853675367
  0
LINE
 8
COMPONENT0
10
-28.5536912751678
20
37.7874720357942
30
-7.85186853675367
11
-22.9912207435975
21
28.4648747441486
31
-7.85186853675367
  0
LINE
 8
COMPONENT0
10
-22.9912207435975
20
28.4648747441486
30
-7.85186853675367
11
-16.4610002291549
21
21.8059015871428
31
-7.85186853675367
  0
LINE
 8
COMPONENT0
10
-16.4610002291549
20
21.8059015871428
30
-7.85186853675367
11
-8.96300331378143
21
17.810532446409
31
-7.85186853675367
  0
LINE
 8
COMPONENT0
10
-8.96300331378143
20
17.810532446409
30
-7.85186853675367
11
-0.497203579418346
21
16.4787472035794
31
-7.85186853675367
  0
LINE
 8
COMPONENT0
10
-0.497203579418346
20
16.4787472035794
30
-7.85186853675367
11
10.4590335222965
21
18.9114812311177
31
-7.85186853675367
  0
LINE
 8
COMPONENT0
10
10.4590335222965
20
18.9114812311177
30
-7.85186853675367
11
20.5984340044743
21
26.2097315436242
31
-7.85186853675367
  0
LINE
 8
COMPONENT0
10
20.5984340044743
20
26.2097315436242
30
-7.85186853675367
11
28.9621128363897
21
39.0482230815845
31
-7.85186853675367
  0
LINE
 8
COMPONENT0
10
28.9621128363897
20
39.0482230815845
30
-7.85186853675367
11
34.591163310962
21
58.1017897091723
31
-7.85186853675367
  0
LINE
 8
COMPONENT0
10
34.591163310962
20
58.1017897091723
30
-7.85186853675367
11
37.7874785387009
21
79.8011772061888
31
-7.85186853675367
  0
LINE
 8
COMPONENT0
10
37.7874785387009
20
79.8011772061888
30
-7.85186853675367
11
38.8529082774049
21
100.577181208054
31
-7.85186853675367
  0
LINE
 8
COMPONENT0
10
38.8529082774049
20
100.577181208054
30
-7.85186853675367
11
36.0650319519726
21
134.42256299388
31
-7.85186853675367
  0
LINE
 8
COMPONENT0
10
36.0650319519726
20
134.42256299388
30
-7.85186853675367
11
32.5801694750519
21
147.962448299331
31
-7.85186853675367
  0
LINE
 8
COMPONENT0
10
32.5801694750519
20
147.962448299331
30
-7.85186853675367
11
27.7013422818792
21
159.247203579418
31
-7.85186853675367
  0
LINE
 8
COMPONENT0
10
27.7013422818792
20
159.247203579418
30
-7.85186853675367
11
21.8636297870269
21
168.134749263192
31
-7.85186853675367
  0
LINE
 8
COMPONENT0
10
21.8636297870269
20
168.134749263192
30
-7.85186853675367
11
15.5021016507074
21
174.482970013714
31
-7.85186853675367
  0
LINE
 8
COMPONENT0
10
15.5021016507074
20
174.482970013714
30
-7.85186853675367
11
8.61673186129372
21
178.291886965434
31
-7.85186853675367
  0
LINE
 8
COMPONENT0
10
8.61673186129372
20
178.291886965434
30
-7.85186853675367
11
1.20749440715884
21
179.561521252796
31
-7.85186853675367
 0
ENDSEC
 0
EOF
