 0
SECTION
 2
ENTITIES
  0
LINE
 8
COMPONENT0
10
-56.9575757575758
20
0.0
30
0.0
11
-56.9575757575758
21
22.1929292929293
31
0.0
  0
LINE
 8
COMPONENT0
10
-56.9575757575758
20
22.1929292929293
30
0.0
11
-50.0303033973232
21
35.3740119201968
31
0.0
  0
LINE
 8
COMPONENT0
10
-50.0303033973232
20
35.3740119201968
30
0.0
11
-40.280836463697
21
49.1323173600014
31
0.0
  0
LINE
 8
COMPONENT0
10
-40.280836463697
20
49.1323173600014
30
0.0
11
-12.3151515151515
21
78.3808080808081
31
0.0
  0
LINE
 8
COMPONENT0
10
-12.3151515151515
20
78.3808080808081
30
0.0
11
2.18080808080808
21
91.3373737373737
31
0.0
  0
LINE
 8
COMPONENT0
10
2.18080808080808
20
91.3373737373737
30
0.0
11
14.415821365395
21
103.949202782217
31
0.0
  0
LINE
 8
COMPONENT0
10
14.415821365395
20
103.949202782217
30
0.0
11
23.1550847602613
21
116.512878787879
31
0.0
  0
LINE
 8
COMPONENT0
10
23.1550847602613
20
116.512878787879
30
0.0
11
28.3986239568152
21
129.028448732935
31
0.0
  0
LINE
 8
COMPONENT0
10
28.3986239568152
20
129.028448732935
30
0.0
11
30.1464646464646
21
141.49595959596
31
0.0
  0
LINE
 8
COMPONENT0
10
30.1464646464646
20
141.49595959596
30
0.0
11
27.757209693061
21
155.703290658045
31
0.0
  0
LINE
 8
COMPONENT0
10
27.757209693061
20
155.703290658045
30
0.0
11
20.5893939393939
21
166.511111111111
31
0.0
  0
LINE
 8
COMPONENT0
10
20.5893939393939
20
166.511111111111
30
0.0
11
9.25240779838176
21
173.342185419256
31
0.0
  0
LINE
 8
COMPONENT0
10
9.25240779838176
20
173.342185419256
30
0.0
11
-5.64444444444445
21
175.619191919192
31
0.0
  0
LINE
 8
COMPONENT0
10
-5.64444444444445
20
175.619191919192
30
0.0
11
-27.163879835726
21
171.802797352184
31
0.0
  0
LINE
 8
COMPONENT0
10
-27.163879835726
20
171.802797352184
30
0.0
11
-52.2111111111111
21
160.353535353535
31
0.0
  0
LINE
 8
COMPONENT0
10
-52.2111111111111
20
160.353535353535
30
0.0
11
-52.2111111111111
21
182.674747474747
31
0.0
  0
LINE
 8
COMPONENT0
10
-52.2111111111111
20
182.674747474747
30
0.0
11
-27.0356060606061
21
191.62249236444
31
0.0
  0
LINE
 8
COMPONENT0
10
-27.0356060606061
20
191.62249236444
30
0.0
11
-2.05252525252525
21
194.605050505051
31
0.0
  0
LINE
 8
COMPONENT0
10
-2.05252525252525
20
194.605050505051
30
0.0
11
10.6314691225688
21
193.707076579393
31
0.0
  0
LINE
 8
COMPONENT0
10
10.6314691225688
20
193.707076579393
30
0.0
11
22.0005177738691
21
191.013146972656
31
0.0
  0
LINE
 8
COMPONENT0
10
22.0005177738691
20
191.013146972656
30
0.0
11
32.0546610735884
21
186.523249940198
31
0.0
  0
LINE
 8
COMPONENT0
10
32.0546610735884
20
186.523249940198
30
0.0
11
40.7939393939394
21
180.237373737374
31
0.0
  0
LINE
 8
COMPONENT0
10
40.7939393939394
20
180.237373737374
30
0.0
11
47.8655534252976
21
172.468239077173
31
0.0
  0
LINE
 8
COMPONENT0
10
47.8655534252976
20
172.468239077173
30
0.0
11
52.9166872197932
21
163.52855101306
31
0.0
  0
LINE
 8
COMPONENT0
10
52.9166872197932
20
163.52855101306
30
0.0
11
55.9473561922709
21
153.418274311104
31
0.0
  0
LINE
 8
COMPONENT0
10
55.9473561922709
20
153.418274311104
30
0.0
11
56.9575757575758
21
142.137373737374
31
0.0
  0
LINE
 8
COMPONENT0
10
56.9575757575758
20
142.137373737374
30
0.0
11
54.9210966245093
21
126.037872915557
31
0.0
  0
LINE
 8
COMPONENT0
10
54.9210966245093
20
126.037872915557
30
0.0
11
48.8116161616162
21
111.862626262626
31
0.0
  0
LINE
 8
COMPONENT0
10
48.8116161616162
20
111.862626262626
30
0.0
11
37.1539317583797
21
97.2383916681463
31
0.0
  0
LINE
 8
COMPONENT0
10
37.1539317583797
20
97.2383916681463
30
0.0
11
18.4727272727273
21
79.7919191919192
31
0.0
  0
LINE
 8
COMPONENT0
10
18.4727272727273
20
79.7919191919192
30
0.0
11
8.72323232323232
21
71.4535353535353
31
0.0
  0
LINE
 8
COMPONENT0
10
8.72323232323232
20
71.4535353535353
30
0.0
11
-4.87478839749037
21
58.7054039685413
31
0.0
  0
LINE
 8
COMPONENT0
10
-4.87478839749037
20
58.7054039685413
30
0.0
11
-15.2656893527869
21
46.2459566597987
31
0.0
  0
LINE
 8
COMPONENT0
10
-15.2656893527869
20
46.2459566597987
30
0.0
11
-22.4495032074476
21
34.0751471827729
31
0.0
  0
LINE
 8
COMPONENT0
10
-22.4495032074476
20
34.0751471827729
30
0.0
11
-26.4262626262626
21
22.1929292929293
31
0.0
  0
LINE
 8
COMPONENT0
10
-26.4262626262626
20
22.1929292929293
30
0.0
11
56.059595959596
21
22.1929292929293
31
0.0
  0
LINE
 8
COMPONENT0
10
56.059595959596
20
22.1929292929293
30
0.0
11
56.059595959596
21
0.0
31
0.0
  0
LINE
 8
COMPONENT0
10
56.059595959596
20
0.0
30
0.0
11
-56.9575757575758
21
0.0
31
0.0
  0
LINE
 8
COMPONENT0
10
-56.9575757575758
20
0.0
30
20.0
11
-56.9575757575758
21
22.1929292929293
31
20.0
  0
LINE
 8
COMPONENT0
10
-56.9575757575758
20
22.1929292929293
30
20.0
11
-50.0303033973232
21
35.3740119201968
31
20.0
  0
LINE
 8
COMPONENT0
10
-50.0303033973232
20
35.3740119201968
30
20.0
11
-40.280836463697
21
49.1323173600014
31
20.0
  0
LINE
 8
COMPONENT0
10
-40.280836463697
20
49.1323173600014
30
20.0
11
-12.3151515151515
21
78.3808080808081
31
20.0
  0
LINE
 8
COMPONENT0
10
-12.3151515151515
20
78.3808080808081
30
20.0
11
2.18080808080808
21
91.3373737373737
31
20.0
  0
LINE
 8
COMPONENT0
10
2.18080808080808
20
91.3373737373737
30
20.0
11
14.415821365395
21
103.949202782217
31
20.0
  0
LINE
 8
COMPONENT0
10
14.415821365395
20
103.949202782217
30
20.0
11
23.1550847602613
21
116.512878787879
31
20.0
  0
LINE
 8
COMPONENT0
10
23.1550847602613
20
116.512878787879
30
20.0
11
28.3986239568152
21
129.028448732935
31
20.0
  0
LINE
 8
COMPONENT0
10
28.3986239568152
20
129.028448732935
30
20.0
11
30.1464646464646
21
141.49595959596
31
20.0
  0
LINE
 8
COMPONENT0
10
30.1464646464646
20
141.49595959596
30
20.0
11
27.757209693061
21
155.703290658045
31
20.0
  0
LINE
 8
COMPONENT0
10
27.757209693061
20
155.703290658045
30
20.0
11
20.5893939393939
21
166.511111111111
31
20.0
  0
LINE
 8
COMPONENT0
10
20.5893939393939
20
166.511111111111
30
20.0
11
9.25240779838176
21
173.342185419256
31
20.0
  0
LINE
 8
COMPONENT0
10
9.25240779838176
20
173.342185419256
30
20.0
11
-5.64444444444445
21
175.619191919192
31
20.0
  0
LINE
 8
COMPONENT0
10
-5.64444444444445
20
175.619191919192
30
20.0
11
-27.163879835726
21
171.802797352184
31
20.0
  0
LINE
 8
COMPONENT0
10
-27.163879835726
20
171.802797352184
30
20.0
11
-52.2111111111111
21
160.353535353535
31
20.0
  0
LINE
 8
COMPONENT0
10
-52.2111111111111
20
160.353535353535
30
20.0
11
-52.2111111111111
21
182.674747474747
31
20.0
  0
LINE
 8
COMPONENT0
10
-52.2111111111111
20
182.674747474747
30
20.0
11
-27.0356060606061
21
191.62249236444
31
20.0
  0
LINE
 8
COMPONENT0
10
-27.0356060606061
20
191.62249236444
30
20.0
11
-2.05252525252525
21
194.605050505051
31
20.0
  0
LINE
 8
COMPONENT0
10
-2.05252525252525
20
194.605050505051
30
20.0
11
10.6314691225688
21
193.707076579393
31
20.0
  0
LINE
 8
COMPONENT0
10
10.6314691225688
20
193.707076579393
30
20.0
11
22.0005177738691
21
191.013146972656
31
20.0
  0
LINE
 8
COMPONENT0
10
22.0005177738691
20
191.013146972656
30
20.0
11
32.0546610735884
21
186.523249940198
31
20.0
  0
LINE
 8
COMPONENT0
10
32.0546610735884
20
186.523249940198
30
20.0
11
40.7939393939394
21
180.237373737374
31
20.0
  0
LINE
 8
COMPONENT0
10
40.7939393939394
20
180.237373737374
30
20.0
11
47.8655534252976
21
172.468239077173
31
20.0
  0
LINE
 8
COMPONENT0
10
47.8655534252976
20
172.468239077173
30
20.0
11
52.9166872197932
21
163.52855101306
31
20.0
  0
LINE
 8
COMPONENT0
10
52.9166872197932
20
163.52855101306
30
20.0
11
55.9473561922709
21
153.418274311104
31
20.0
  0
LINE
 8
COMPONENT0
10
55.9473561922709
20
153.418274311104
30
20.0
11
56.9575757575758
21
142.137373737374
31
20.0
  0
LINE
 8
COMPONENT0
10
56.9575757575758
20
142.137373737374
30
20.0
11
54.9210966245093
21
126.037872915557
31
20.0
  0
LINE
 8
COMPONENT0
10
54.9210966245093
20
126.037872915557
30
20.0
11
48.8116161616162
21
111.862626262626
31
20.0
  0
LINE
 8
COMPONENT0
10
48.8116161616162
20
111.862626262626
30
20.0
11
37.1539317583797
21
97.2383916681463
31
20.0
  0
LINE
 8
COMPONENT0
10
37.1539317583797
20
97.2383916681463
30
20.0
11
18.4727272727273
21
79.7919191919192
31
20.0
  0
LINE
 8
COMPONENT0
10
18.4727272727273
20
79.7919191919192
30
20.0
11
8.72323232323232
21
71.4535353535353
31
20.0
  0
LINE
 8
COMPONENT0
10
8.72323232323232
20
71.4535353535353
30
20.0
11
-4.87478839749037
21
58.7054039685413
31
20.0
  0
LINE
 8
COMPONENT0
10
-4.87478839749037
20
58.7054039685413
30
20.0
11
-15.2656893527869
21
46.2459566597987
31
20.0
  0
LINE
 8
COMPONENT0
10
-15.2656893527869
20
46.2459566597987
30
20.0
11
-22.4495032074476
21
34.0751471827729
31
20.0
  0
LINE
 8
COMPONENT0
10
-22.4495032074476
20
34.0751471827729
30
20.0
11
-26.4262626262626
21
22.1929292929293
31
20.0
  0
LINE
 8
COMPONENT0
10
-26.4262626262626
20
22.1929292929293
30
20.0
11
56.059595959596
21
22.1929292929293
31
20.0
  0
LINE
 8
COMPONENT0
10
56.059595959596
20
22.1929292929293
30
20.0
11
56.059595959596
21
0.0
31
20.0
  0
LINE
 8
COMPONENT0
10
56.059595959596
20
0.0
30
20.0
11
-56.9575757575758
21
0.0
31
20.0
  0
LINE
 8
COMPONENT0
10
-56.9575757575758
20
22.1929292929293
30
0.0
11
-56.9575757575758
21
22.1929292929293
31
20.0
  0
LINE
 8
COMPONENT0
10
-56.9575757575758
20
0.0
30
0.0
11
-56.9575757575758
21
0.0
31
20.0
  0
LINE
 8
COMPONENT0
10
-50.0303033973232
20
35.3740119201968
30
0.0
11
-50.0303033973232
21
35.3740119201968
31
20.0
  0
LINE
 8
COMPONENT0
10
-40.280836463697
20
49.1323173600014
30
0.0
11
-40.280836463697
21
49.1323173600014
31
20.0
  0
LINE
 8
COMPONENT0
10
-12.3151515151515
20
78.3808080808081
30
0.0
11
-12.3151515151515
21
78.3808080808081
31
20.0
  0
LINE
 8
COMPONENT0
10
2.18080808080808
20
91.3373737373737
30
0.0
11
2.18080808080808
21
91.3373737373737
31
20.0
  0
LINE
 8
COMPONENT0
10
14.415821365395
20
103.949202782217
30
0.0
11
14.415821365395
21
103.949202782217
31
20.0
  0
LINE
 8
COMPONENT0
10
23.1550847602613
20
116.512878787879
30
0.0
11
23.1550847602613
21
116.512878787879
31
20.0
  0
LINE
 8
COMPONENT0
10
28.3986239568152
20
129.028448732935
30
0.0
11
28.3986239568152
21
129.028448732935
31
20.0
  0
LINE
 8
COMPONENT0
10
30.1464646464646
20
141.49595959596
30
0.0
11
30.1464646464646
21
141.49595959596
31
20.0
  0
LINE
 8
COMPONENT0
10
27.757209693061
20
155.703290658045
30
0.0
11
27.757209693061
21
155.703290658045
31
20.0
  0
LINE
 8
COMPONENT0
10
20.5893939393939
20
166.511111111111
30
0.0
11
20.5893939393939
21
166.511111111111
31
20.0
  0
LINE
 8
COMPONENT0
10
9.25240779838176
20
173.342185419256
30
0.0
11
9.25240779838176
21
173.342185419256
31
20.0
  0
LINE
 8
COMPONENT0
10
-5.64444444444445
20
175.619191919192
30
0.0
11
-5.64444444444445
21
175.619191919192
31
20.0
  0
LINE
 8
COMPONENT0
10
-27.163879835726
20
171.802797352184
30
0.0
11
-27.163879835726
21
171.802797352184
31
20.0
  0
LINE
 8
COMPONENT0
10
-52.2111111111111
20
160.353535353535
30
0.0
11
-52.2111111111111
21
160.353535353535
31
20.0
  0
LINE
 8
COMPONENT0
10
-52.2111111111111
20
182.674747474747
30
0.0
11
-52.2111111111111
21
182.674747474747
31
20.0
  0
LINE
 8
COMPONENT0
10
-27.0356060606061
20
191.62249236444
30
0.0
11
-27.0356060606061
21
191.62249236444
31
20.0
  0
LINE
 8
COMPONENT0
10
-2.05252525252525
20
194.605050505051
30
0.0
11
-2.05252525252525
21
194.605050505051
31
20.0
  0
LINE
 8
COMPONENT0
10
10.6314691225688
20
193.707076579393
30
0.0
11
10.6314691225688
21
193.707076579393
31
20.0
  0
LINE
 8
COMPONENT0
10
22.0005177738691
20
191.013146972656
30
0.0
11
22.0005177738691
21
191.013146972656
31
20.0
  0
LINE
 8
COMPONENT0
10
32.0546610735884
20
186.523249940198
30
0.0
11
32.0546610735884
21
186.523249940198
31
20.0
  0
LINE
 8
COMPONENT0
10
40.7939393939394
20
180.237373737374
30
0.0
11
40.7939393939394
21
180.237373737374
31
20.0
  0
LINE
 8
COMPONENT0
10
47.8655534252976
20
172.468239077173
30
0.0
11
47.8655534252976
21
172.468239077173
31
20.0
  0
LINE
 8
COMPONENT0
10
52.9166872197932
20
163.52855101306
30
0.0
11
52.9166872197932
21
163.52855101306
31
20.0
  0
LINE
 8
COMPONENT0
10
55.9473561922709
20
153.418274311104
30
0.0
11
55.9473561922709
21
153.418274311104
31
20.0
  0
LINE
 8
COMPONENT0
10
56.9575757575758
20
142.137373737374
30
0.0
11
56.9575757575758
21
142.137373737374
31
20.0
  0
LINE
 8
COMPONENT0
10
54.9210966245093
20
126.037872915557
30
0.0
11
54.9210966245093
21
126.037872915557
31
20.0
  0
LINE
 8
COMPONENT0
10
48.8116161616162
20
111.862626262626
30
0.0
11
48.8116161616162
21
111.862626262626
31
20.0
  0
LINE
 8
COMPONENT0
10
37.1539317583797
20
97.2383916681463
30
0.0
11
37.1539317583797
21
97.2383916681463
31
20.0
  0
LINE
 8
COMPONENT0
10
18.4727272727273
20
79.7919191919192
30
0.0
11
18.4727272727273
21
79.7919191919192
31
20.0
  0
LINE
 8
COMPONENT0
10
8.72323232323232
20
71.4535353535353
30
0.0
11
8.72323232323232
21
71.4535353535353
31
20.0
  0
LINE
 8
COMPONENT0
10
-4.87478839749037
20
58.7054039685413
30
0.0
11
-4.87478839749037
21
58.7054039685413
31
20.0
  0
LINE
 8
COMPONENT0
10
-15.2656893527869
20
46.2459566597987
30
0.0
11
-15.2656893527869
21
46.2459566597987
31
20.0
  0
LINE
 8
COMPONENT0
10
-22.4495032074476
20
34.0751471827729
30
0.0
11
-22.4495032074476
21
34.0751471827729
31
20.0
  0
LINE
 8
COMPONENT0
10
-26.4262626262626
20
22.1929292929293
30
0.0
11
-26.4262626262626
21
22.1929292929293
31
20.0
  0
LINE
 8
COMPONENT0
10
56.059595959596
20
22.1929292929293
30
0.0
11
56.059595959596
21
22.1929292929293
31
20.0
  0
LINE
 8
COMPONENT0
10
56.059595959596
20
0.0
30
0.0
11
56.059595959596
21
0.0
31
20.0
 0
ENDSEC
 0
EOF
