 0
SECTION
 2
ENTITIES
  0
LINE
 8
COMPONENT0
10
-46.3819910514541
20
33.0995525727069
30
0.0
11
-28.6957493052387
21
20.6339274114144
31
0.0
  0
LINE
 8
COMPONENT0
10
-28.6957493052387
20
20.6339274114144
30
0.0
11
-19.905916857106
21
17.5175396137323
31
0.0
  0
LINE
 8
COMPONENT0
10
-19.905916857106
20
17.5175396137323
30
0.0
11
-11.1515659955257
21
16.4787472035794
31
0.0
  0
LINE
 8
COMPONENT0
10
-11.1515659955257
20
16.4787472035794
30
0.0
11
4.03090586651625
21
19.3376532891719
31
0.0
  0
LINE
 8
COMPONENT0
10
4.03090586651625
20
19.3376532891719
30
0.0
11
16.6208053691275
21
27.9144295302013
31
0.0
  0
LINE
 8
COMPONENT0
10
16.6208053691275
20
27.9144295302013
30
0.0
11
25.0910381214731
21
40.8949862785254
31
0.0
  0
LINE
 8
COMPONENT0
10
25.0910381214731
20
40.8949862785254
30
0.0
11
27.9144295302013
21
56.9653243847875
31
0.0
  0
LINE
 8
COMPONENT0
10
27.9144295302013
20
56.9653243847875
30
0.0
11
25.2863670152839
21
72.147798414465
31
0.0
  0
LINE
 8
COMPONENT0
10
25.2863670152839
20
72.147798414465
30
0.0
11
17.4021252796421
21
84.1694630872483
31
0.0
  0
LINE
 8
COMPONENT0
10
17.4021252796421
20
84.1694630872483
30
0.0
11
4.75895830022142
21
92.0004324689007
31
0.0
  0
LINE
 8
COMPONENT0
10
4.75895830022142
20
92.0004324689007
30
0.0
11
-12.1459731543624
21
94.6107382550336
31
0.0
  0
LINE
 8
COMPONENT0
10
-12.1459731543624
20
94.6107382550336
30
0.0
11
-28.4826621923937
21
94.6107382550336
31
0.0
  0
LINE
 8
COMPONENT0
10
-28.4826621923937
20
94.6107382550336
30
0.0
11
-28.4826621923937
21
110.379194630872
31
0.0
  0
LINE
 8
COMPONENT0
10
-28.4826621923937
20
110.379194630872
30
0.0
11
-19.5329977628635
21
110.379194630872
31
0.0
  0
LINE
 8
COMPONENT0
10
-19.5329977628635
20
110.379194630872
30
0.0
11
-3.74677652960656
21
112.847443335275
31
0.0
  0
LINE
 8
COMPONENT0
10
-3.74677652960656
20
112.847443335275
30
0.0
11
8.66554809843401
21
120.252237136465
31
0.0
  0
LINE
 8
COMPONENT0
10
8.66554809843401
20
120.252237136465
30
0.0
11
16.7096052703175
21
131.705669147056
31
0.0
  0
LINE
 8
COMPONENT0
10
16.7096052703175
20
131.705669147056
30
0.0
11
19.3909395973154
21
146.319910514541
31
0.0
  0
LINE
 8
COMPONENT0
10
19.3909395973154
20
146.319910514541
30
0.0
11
17.2423201396695
21
159.602357663831
31
0.0
  0
LINE
 8
COMPONENT0
10
17.2423201396695
20
159.602357663831
30
0.0
11
10.7964205816555
21
170.185682326622
31
0.0
  0
LINE
 8
COMPONENT0
10
10.7964205816555
20
170.185682326622
30
0.0
11
1.29628563780646
21
177.111026567634
31
0.0
  0
LINE
 8
COMPONENT0
10
1.29628563780646
20
177.111026567634
30
0.0
11
-10.0151006711409
21
179.419463087248
31
0.0
  0
LINE
 8
COMPONENT0
10
-10.0151006711409
20
179.419463087248
30
0.0
11
-19.1068399807217
21
178.371793057828
31
0.0
  0
LINE
 8
COMPONENT0
10
-19.1068399807217
20
178.371793057828
30
0.0
11
-28.1985454548659
21
175.228771047571
31
0.0
  0
LINE
 8
COMPONENT0
10
-28.1985454548659
20
175.228771047571
30
0.0
11
-46.3819910514541
21
162.656599552573
31
0.0
  0
LINE
 8
COMPONENT0
10
-46.3819910514541
20
162.656599552573
30
0.0
11
-46.3819910514541
21
183.681208053691
31
0.0
  0
LINE
 8
COMPONENT0
10
-46.3819910514541
20
183.681208053691
30
0.0
11
-26.8845036301837
21
192.737433448467
31
0.0
  0
LINE
 8
COMPONENT0
10
-26.8845036301837
20
192.737433448467
30
0.0
11
-9.02069351230425
21
195.75615212528
31
0.0
  0
LINE
 8
COMPONENT0
10
-9.02069351230425
20
195.75615212528
30
0.0
11
9.51790576226492
21
192.630889824306
31
0.0
  0
LINE
 8
COMPONENT0
10
9.51790576226492
20
192.630889824306
30
0.0
11
24.505033557047
21
183.255033557047
31
0.0
  0
LINE
 8
COMPONENT0
10
24.505033557047
20
183.255033557047
30
0.0
11
30.2850434572105
21
176.453989127072
31
0.0
  0
LINE
 8
COMPONENT0
10
30.2850434572105
20
176.453989127072
30
0.0
11
34.4136068612937
21
168.552022093361
31
0.0
  0
LINE
 8
COMPONENT0
10
34.4136068612937
20
168.552022093361
30
0.0
11
37.7164429530201
21
149.4451901566
31
0.0
  0
LINE
 8
COMPONENT0
10
37.7164429530201
20
149.4451901566
30
0.0
11
35.5855802241588
21
133.801026005073
31
0.0
  0
LINE
 8
COMPONENT0
10
35.5855802241588
20
133.801026005073
30
0.0
11
29.1929530201342
21
121.814876957494
31
0.0
  0
LINE
 8
COMPONENT0
10
29.1929530201342
20
121.814876957494
30
0.0
11
18.7872010642784
21
112.350248426399
31
0.0
  0
LINE
 8
COMPONENT0
10
18.7872010642784
20
112.350248426399
30
0.0
11
4.6168903803132
21
104.270693512304
31
0.0
  0
LINE
 8
COMPONENT0
10
4.6168903803132
20
104.270693512304
30
0.0
11
22.8891349297509
21
98.9257647879172
31
0.0
  0
LINE
 8
COMPONENT0
10
22.8891349297509
20
98.9257647879172
30
0.0
11
35.9407158836689
21
89.425615212528
31
0.0
  0
LINE
 8
COMPONENT0
10
35.9407158836689
20
89.425615212528
30
0.0
11
43.7716852653213
21
75.7347687202812
31
0.0
  0
LINE
 8
COMPONENT0
10
43.7716852653213
20
75.7347687202812
30
0.0
11
46.3819910514541
21
57.8176733780761
31
0.0
  0
LINE
 8
COMPONENT0
10
46.3819910514541
20
57.8176733780761
30
0.0
11
45.3298800786336
21
46.0845304508871
31
0.0
  0
LINE
 8
COMPONENT0
10
45.3298800786336
20
46.0845304508871
30
0.0
11
42.173537405812
21
35.3192019259903
31
0.0
  0
LINE
 8
COMPONENT0
10
42.173537405812
20
35.3192019259903
30
0.0
11
36.912948401449
21
25.5216493955928
31
0.0
  0
LINE
 8
COMPONENT0
10
36.912948401449
20
25.5216493955928
30
0.0
11
29.5480984340045
21
16.6918344519016
31
0.0
  0
LINE
 8
COMPONENT0
10
29.5480984340045
20
16.6918344519016
30
0.0
11
20.7537969140132
21
9.38913340776559
31
0.0
  0
LINE
 8
COMPONENT0
10
20.7537969140132
20
9.38913340776559
30
0.0
11
11.2048448524219
21
4.17293774948291
31
0.0
  0
LINE
 8
COMPONENT0
10
11.2048448524219
20
4.17293774948291
30
0.0
11
0.901205263948544
21
1.04323182943417
31
0.0
  0
LINE
 8
COMPONENT0
10
0.901205263948544
20
1.04323182943417
30
0.0
11
-10.157158836689
21
0.0
31
0.0
  0
LINE
 8
COMPONENT0
10
-10.157158836689
20
0.0
30
0.0
11
-28.4471485993473
21
2.98320656554811
31
0.0
  0
LINE
 8
COMPONENT0
10
-28.4471485993473
20
2.98320656554811
30
0.0
11
-46.3819910514541
21
11.9328859060403
31
0.0
  0
LINE
 8
COMPONENT0
10
-46.3819910514541
20
11.9328859060403
30
0.0
11
-46.3819910514541
21
33.0995525727069
31
0.0
 0
ENDSEC
 0
EOF
