 0
SECTION
 2
ENTITIES
  0
LINE
 8
COMPONENT0
10
-47.8736017897092
20
192.488814317673
30
0.0
11
36.2248322147651
21
192.488814317673
31
0.0
  0
LINE
 8
COMPONENT0
10
36.2248322147651
20
192.488814317673
30
0.0
11
36.2248322147651
21
176.010067114094
31
0.0
  0
LINE
 8
COMPONENT0
10
36.2248322147651
20
176.010067114094
30
0.0
11
-30.4004474272931
21
176.010067114094
31
0.0
  0
LINE
 8
COMPONENT0
10
-30.4004474272931
20
176.010067114094
30
0.0
11
-30.4004474272931
21
109.953020134228
31
0.0
  0
LINE
 8
COMPONENT0
10
-30.4004474272931
20
109.953020134228
30
0.0
11
-16.0525727069351
21
119.897091722595
31
0.0
  0
LINE
 8
COMPONENT0
10
-16.0525727069351
20
119.897091722595
30
0.0
11
-0.142058165548095
21
123.164429530201
31
0.0
  0
LINE
 8
COMPONENT0
10
-0.142058165548095
20
123.164429530201
30
0.0
11
9.49572143458681
21
122.121198005591
31
0.0
  0
LINE
 8
COMPONENT0
10
9.49572143458681
20
122.121198005591
30
0.0
11
18.3787822126009
21
118.991492593582
31
0.0
  0
LINE
 8
COMPONENT0
10
18.3787822126009
20
118.991492593582
30
0.0
11
26.5071554637329
21
113.775297036907
31
0.0
  0
LINE
 8
COMPONENT0
10
26.5071554637329
20
113.775297036907
30
0.0
11
33.8808724832215
21
106.4725950783
31
0.0
  0
LINE
 8
COMPONENT0
10
33.8808724832215
20
106.4725950783
30
0.0
11
40.0027110635301
21
97.6427792201373
31
0.0
  0
LINE
 8
COMPONENT0
10
40.0027110635301
20
97.6427792201373
30
0.0
11
44.3754368041719
21
87.8452267913477
31
0.0
  0
LINE
 8
COMPONENT0
10
44.3754368041719
20
87.8452267913477
30
0.0
11
47.8736017897092
21
65.3467561521253
31
0.0
  0
LINE
 8
COMPONENT0
10
47.8736017897092
20
65.3467561521253
30
0.0
11
46.7948561301434
21
52.1663930216092
31
0.0
  0
LINE
 8
COMPONENT0
10
46.7948561301434
20
52.1663930216092
30
0.0
11
43.5586077713593
21
40.0426353885557
31
0.0
  0
LINE
 8
COMPONENT0
10
43.5586077713593
20
40.0426353885557
30
0.0
11
38.1648396432266
21
28.9754403744235
31
0.0
  0
LINE
 8
COMPONENT0
10
38.1648396432266
20
28.9754403744235
30
0.0
11
30.6135346756152
21
18.9647651006711
31
0.0
  0
LINE
 8
COMPONENT0
10
30.6135346756152
20
18.9647651006711
30
0.0
11
21.5173605699134
21
10.667653735152
31
0.0
  0
LINE
 8
COMPONENT0
10
21.5173605699134
20
10.667653735152
30
0.0
11
11.4889638930626
21
4.74116760052291
31
0.0
  0
LINE
 8
COMPONENT0
10
11.4889638930626
20
4.74116760052291
30
0.0
11
0.528305627622331
21
1.18528894080012
31
0.0
  0
LINE
 8
COMPONENT0
10
0.528305627622331
20
1.18528894080012
30
0.0
11
-11.3646532438479
21
0.0
31
0.0
  0
LINE
 8
COMPONENT0
10
-11.3646532438479
20
0.0
30
0.0
11
-28.5181711792146
21
2.80563473074762
31
0.0
  0
LINE
 8
COMPONENT0
10
-28.5181711792146
20
2.80563473074762
30
0.0
11
-47.8736017897092
21
11.2225950782998
31
0.0
  0
LINE
 8
COMPONENT0
10
-47.8736017897092
20
11.2225950782998
30
0.0
11
-47.8736017897092
21
32.2472035794183
31
0.0
  0
LINE
 8
COMPONENT0
10
-47.8736017897092
20
32.2472035794183
30
0.0
11
-29.1219187892257
21
20.4208417888189
31
0.0
  0
LINE
 8
COMPONENT0
10
-29.1219187892257
20
20.4208417888189
30
0.0
11
-12.3590604026846
21
16.4787472035794
31
0.0
  0
LINE
 8
COMPONENT0
10
-12.3590604026846
20
16.4787472035794
30
0.0
11
4.04866584675424
21
19.9769121891167
31
0.0
  0
LINE
 8
COMPONENT0
10
4.04866584675424
20
19.9769121891167
30
0.0
11
17.4731543624161
21
30.4714765100671
31
0.0
  0
LINE
 8
COMPONENT0
10
17.4731543624161
20
30.4714765100671
30
0.0
11
26.4228350492132
21
45.8315080732307
31
0.0
  0
LINE
 8
COMPONENT0
10
26.4228350492132
20
45.8315080732307
30
0.0
11
29.4060402684564
21
63.9261744966443
31
0.0
  0
LINE
 8
COMPONENT0
10
29.4060402684564
20
63.9261744966443
30
0.0
11
26.9200332095426
21
80.0675389761359
31
0.0
  0
LINE
 8
COMPONENT0
10
26.9200332095426
20
80.0675389761359
30
0.0
11
19.4619686800895
21
93.829418344519
31
0.0
  0
LINE
 8
COMPONENT0
10
19.4619686800895
20
93.829418344519
30
0.0
11
7.95526431550916
21
103.258545340041
31
0.0
  0
LINE
 8
COMPONENT0
10
7.95526431550916
20
103.258545340041
30
0.0
11
-6.67673378076063
21
106.401565995526
31
0.0
  0
LINE
 8
COMPONENT0
10
-6.67673378076063
20
106.401565995526
30
0.0
11
-20.17225950783
21
103.205257270694
31
0.0
  0
LINE
 8
COMPONENT0
10
-20.17225950783
20
103.205257270694
30
0.0
11
-32.2472035794183
21
93.4742729306488
31
0.0
  0
LINE
 8
COMPONENT0
10
-32.2472035794183
20
93.4742729306488
30
0.0
11
-47.8736017897092
21
93.4742729306488
31
0.0
  0
LINE
 8
COMPONENT0
10
-47.8736017897092
20
93.4742729306488
30
0.0
11
-47.8736017897092
21
192.488814317673
31
0.0
 0
ENDSEC
 0
EOF
