 0
SECTION
 2
ENTITIES
  0
LINE
 8
COMPONENT0
10
-35.5145413870246
20
89.496644295302
30
0.0
11
-25.3751409048469
21
102.406189843846
31
0.0
  0
LINE
 8
COMPONENT0
10
-25.3751409048469
20
102.406189843846
30
0.0
11
-14.8450782997763
21
111.586689038031
31
0.0
  0
LINE
 8
COMPONENT0
10
-14.8450782997763
20
111.586689038031
30
0.0
11
-3.92435790708401
21
117.073694352869
31
0.0
  0
LINE
 8
COMPONENT0
10
-3.92435790708401
20
117.073694352869
30
0.0
11
7.38702460850112
21
118.902684563758
31
0.0
  0
LINE
 8
COMPONENT0
10
7.38702460850112
20
118.902684563758
30
0.0
11
16.9626559965829
21
117.872770992168
31
0.0
  0
LINE
 8
COMPONENT0
10
16.9626559965829
20
117.872770992168
30
0.0
11
25.6592659064854
21
114.783019439219
31
0.0
  0
LINE
 8
COMPONENT0
10
25.6592659064854
20
114.783019439219
30
0.0
11
33.476886039879
21
109.633413647645
31
0.0
  0
LINE
 8
COMPONENT0
10
33.476886039879
20
109.633413647645
30
0.0
11
40.415548098434
21
102.423937360179
31
0.0
  0
LINE
 8
COMPONENT0
10
40.415548098434
20
102.423937360179
30
0.0
11
46.1023323274565
21
93.6784689442423
31
0.0
  0
LINE
 8
COMPONENT0
10
46.1023323274565
20
93.6784689442423
30
0.0
11
50.1643059664391
21
83.9208710518993
31
0.0
  0
LINE
 8
COMPONENT0
10
50.1643059664391
20
83.9208710518993
30
0.0
11
53.413870246085
21
61.3691275167785
31
0.0
  0
LINE
 8
COMPONENT0
10
53.413870246085
20
61.3691275167785
30
0.0
11
52.4993773082759
21
48.8324667698052
31
0.0
  0
LINE
 8
COMPONENT0
10
52.4993773082759
20
48.8324667698052
30
0.0
11
49.7558898243061
21
37.3612877847898
31
0.0
  0
LINE
 8
COMPONENT0
10
49.7558898243061
20
37.3612877847898
30
0.0
11
45.1833947883623
21
26.9555499185652
31
0.0
  0
LINE
 8
COMPONENT0
10
45.1833947883623
20
26.9555499185652
30
0.0
11
38.7818791946309
21
17.6152125279642
31
0.0
  0
LINE
 8
COMPONENT0
10
38.7818791946309
20
17.6152125279642
30
0.0
11
31.0485780532461
21
9.90853228004987
31
0.0
  0
LINE
 8
COMPONENT0
10
31.0485780532461
20
9.90853228004987
30
0.0
11
22.4807133685289
21
4.40378111694216
31
0.0
  0
LINE
 8
COMPONENT0
10
22.4807133685289
20
4.40378111694216
30
0.0
11
13.0782526259454
21
1.10094252735443
31
0.0
  0
LINE
 8
COMPONENT0
10
13.0782526259454
20
1.10094252735443
30
0.0
11
2.84116331096197
21
0.0
31
0.0
  0
LINE
 8
COMPONENT0
10
2.84116331096197
20
0.0
30
0.0
11
-13.1758981060395
21
2.94769219350762
31
0.0
  0
LINE
 8
COMPONENT0
10
-13.1758981060395
20
2.94769219350762
30
0.0
11
-27.7013422818792
21
11.7908277404922
31
0.0
  0
LINE
 8
COMPONENT0
10
-27.7013422818792
20
11.7908277404922
30
0.0
11
-39.527694589073
21
26.4228048377922
31
0.0
  0
LINE
 8
COMPONENT0
10
-39.527694589073
20
26.4228048377922
30
0.0
11
-47.4474272930649
21
46.7371364653244
31
0.0
  0
LINE
 8
COMPONENT0
10
-47.4474272930649
20
46.7371364653244
30
0.0
11
-51.9222669760119
21
70.4963608598816
31
0.0
  0
LINE
 8
COMPONENT0
10
-51.9222669760119
20
70.4963608598816
30
0.0
11
-53.413870246085
21
95.4630872483222
31
0.0
  0
LINE
 8
COMPONENT0
10
-53.413870246085
20
95.4630872483222
30
0.0
11
-51.2652511948707
21
124.531752379415
31
0.0
  0
LINE
 8
COMPONENT0
10
-51.2652511948707
20
124.531752379415
30
0.0
11
-44.8193512304251
21
149.232102908277
31
0.0
  0
LINE
 8
COMPONENT0
10
-44.8193512304251
20
149.232102908277
30
0.0
11
-34.9108005508747
21
169.12026125846
31
0.0
  0
LINE
 8
COMPONENT0
10
-34.9108005508747
20
169.12026125846
30
0.0
11
-22.3741610738255
21
183.752237136465
31
0.0
  0
LINE
 8
COMPONENT0
10
-22.3741610738255
20
183.752237136465
30
0.0
11
-7.47581529723984
21
192.755188551525
31
0.0
  0
LINE
 8
COMPONENT0
10
-7.47581529723984
20
192.755188551525
30
0.0
11
9.51789709172259
21
195.75615212528
31
0.0
  0
LINE
 8
COMPONENT0
10
9.51789709172259
20
195.75615212528
30
0.0
11
25.1442931343778
21
193.447715605665
31
0.0
  0
LINE
 8
COMPONENT0
10
25.1442931343778
20
193.447715605665
30
0.0
11
41.3389261744966
21
186.522371364653
31
0.0
  0
LINE
 8
COMPONENT0
10
41.3389261744966
20
186.522371364653
30
0.0
11
41.3389261744966
21
166.065995525727
31
0.0
  0
LINE
 8
COMPONENT0
10
41.3389261744966
20
166.065995525727
30
0.0
11
26.8134787472036
21
175.868024121995
31
0.0
  0
LINE
 8
COMPONENT0
10
26.8134787472036
20
175.868024121995
30
0.0
11
12.5011185682327
21
179.135346756152
31
0.0
  0
LINE
 8
COMPONENT0
10
12.5011185682327
20
179.135346756152
30
0.0
11
-1.615914884563
21
176.34747043072
31
0.0
  0
LINE
 8
COMPONENT0
10
-1.615914884563
20
176.34747043072
30
0.0
11
-14.1347874720358
21
167.983780760626
31
0.0
  0
LINE
 8
COMPONENT0
10
-14.1347874720358
20
167.983780760626
30
0.0
11
-24.1321395430256
21
154.932197639073
31
0.0
  0
LINE
 8
COMPONENT0
10
-24.1321395430256
20
154.932197639073
30
0.0
11
-30.6845637583893
21
138.080536912752
31
0.0
  0
LINE
 8
COMPONENT0
10
-30.6845637583893
20
138.080536912752
30
0.0
11
-34.3070529408636
21
118.085855530946
31
0.0
  0
LINE
 8
COMPONENT0
10
-34.3070529408636
20
118.085855530946
30
0.0
11
-35.5145413870246
21
95.6051454138702
31
0.0
  0
LINE
 8
COMPONENT0
10
-35.5145413870246
20
95.6051454138702
30
0.0
11
-35.5145413870246
21
89.496644295302
31
0.0
  0
LINE
 8
COMPONENT0
10
-33.8098434004474
20
66.1991051454139
30
0.0
11
-29.5125947307954
21
46.2221653189435
31
0.0
  0
LINE
 8
COMPONENT0
10
-29.5125947307954
20
46.2221653189435
30
0.0
11
-20.8825503355705
21
30.329418344519
31
0.0
  0
LINE
 8
COMPONENT0
10
-20.8825503355705
20
30.329418344519
30
0.0
11
-9.37584109381008
21
19.9413975122524
31
0.0
  0
LINE
 8
COMPONENT0
10
-9.37584109381008
20
19.9413975122524
30
0.0
11
3.55145413870246
21
16.4787472035794
31
0.0
  0
LINE
 8
COMPONENT0
10
3.55145413870246
20
16.4787472035794
30
0.0
11
15.9105215862027
21
19.5507397246307
31
0.0
  0
LINE
 8
COMPONENT0
10
15.9105215862027
20
19.5507397246307
30
0.0
11
25.996644295302
21
28.7667785234899
31
0.0
  0
LINE
 8
COMPONENT0
10
25.996644295302
20
28.7667785234899
30
0.0
11
32.7089023718098
21
42.8127715134247
31
0.0
  0
LINE
 8
COMPONENT0
10
32.7089023718098
20
42.8127715134247
30
0.0
11
34.9463087248322
21
60.3747203579418
31
0.0
  0
LINE
 8
COMPONENT0
10
34.9463087248322
20
60.3747203579418
30
0.0
11
32.8332043504822
21
77.208620562116
31
0.0
  0
LINE
 8
COMPONENT0
10
32.8332043504822
20
77.208620562116
30
0.0
11
26.4938478747204
21
90.7751677852349
31
0.0
  0
LINE
 8
COMPONENT0
10
26.4938478747204
20
90.7751677852349
30
0.0
11
16.9226838480973
21
99.724848472032
31
0.0
  0
LINE
 8
COMPONENT0
10
16.9226838480973
20
99.724848472032
30
0.0
11
5.11409395973154
21
102.708053691275
31
0.0
  0
LINE
 8
COMPONENT0
10
5.11409395973154
20
102.708053691275
30
0.0
11
-6.58795122065534
21
100.435133880684
31
0.0
  0
LINE
 8
COMPONENT0
10
-6.58795122065534
20
100.435133880684
30
0.0
11
-16.9759507829978
21
93.6163310961969
31
0.0
  0
LINE
 8
COMPONENT0
10
-16.9759507829978
20
93.6163310961969
30
0.0
11
-26.0499199007448
21
82.2161752329577
31
0.0
  0
LINE
 8
COMPONENT0
10
-26.0499199007448
20
82.2161752329577
30
0.0
11
-33.8098434004474
21
66.1991051454139
31
0.0
 0
ENDSEC
 0
EOF
