 0
SECTION
 2
ENTITIES
  0
LINE
 8
COMPONENT0
10
-14.8450782997763
20
100.719239373602
30
0.0
11
-28.7046722755069
21
110.796505530142
31
0.0
  0
LINE
 8
COMPONENT0
10
-28.7046722755069
20
110.796505530142
30
0.0
11
-38.6043457760907
21
121.992439910069
31
0.0
  0
LINE
 8
COMPONENT0
10
-38.6043457760907
20
121.992439910069
30
0.0
11
-44.5441282678237
21
134.307087220868
31
0.0
  0
LINE
 8
COMPONENT0
10
-44.5441282678237
20
134.307087220868
30
0.0
11
-46.5240492170022
21
147.740492170022
31
0.0
  0
LINE
 8
COMPONENT0
10
-46.5240492170022
20
147.740492170022
30
0.0
11
-43.2034563964912
21
166.527693234301
31
0.0
  0
LINE
 8
COMPONENT0
10
-43.2034563964912
20
166.527693234301
30
0.0
11
-33.241610738255
21
181.976510067114
31
0.0
  0
LINE
 8
COMPONENT0
10
-33.241610738255
20
181.976510067114
30
0.0
11
-26.1164965245548
21
188.005122976282
31
0.0
  0
LINE
 8
COMPONENT0
10
-26.1164965245548
20
188.005122976282
30
0.0
11
-18.0236384244573
21
192.311258951823
31
0.0
  0
LINE
 8
COMPONENT0
10
-18.0236384244573
20
192.311258951823
30
0.0
11
1.06543624161074
21
195.75615212528
31
0.0
  0
LINE
 8
COMPONENT0
10
1.06543624161074
20
195.75615212528
30
0.0
11
18.9292603136442
21
192.790705260548
31
0.0
  0
LINE
 8
COMPONENT0
10
18.9292603136442
20
192.790705260548
30
0.0
11
33.5967561521253
21
183.894295302013
31
0.0
  0
LINE
 8
COMPONENT0
10
33.5967561521253
20
183.894295302013
30
0.0
11
43.3987847483932
21
170.41653551618
31
0.0
  0
LINE
 8
COMPONENT0
10
43.3987847483932
20
170.41653551618
30
0.0
11
46.6661073825503
21
153.706935123043
31
0.0
  0
LINE
 8
COMPONENT0
10
46.6661073825503
20
153.706935123043
30
0.0
11
44.7838453595804
21
140.957212597465
31
0.0
  0
LINE
 8
COMPONENT0
10
44.7838453595804
20
140.957212597465
30
0.0
11
39.1370246085011
21
129.414988814318
31
0.0
  0
LINE
 8
COMPONENT0
10
39.1370246085011
20
129.414988814318
30
0.0
11
29.1219380269915
21
118.405479900522
31
0.0
  0
LINE
 8
COMPONENT0
10
29.1219380269915
20
118.405479900522
30
0.0
11
14.1347874720358
21
107.253914988814
31
0.0
  0
LINE
 8
COMPONENT0
10
14.1347874720358
20
107.253914988814
30
0.0
11
33.8808898243061
21
96.173381327516
31
0.0
  0
LINE
 8
COMPONENT0
10
33.8808898243061
20
96.173381327516
30
0.0
11
46.5240492170022
21
84.2404921700224
31
0.0
  0
LINE
 8
COMPONENT0
10
46.5240492170022
20
84.2404921700224
30
0.0
11
53.3428520014889
21
70.744971862042
31
0.0
  0
LINE
 8
COMPONENT0
10
53.3428520014889
20
70.744971862042
30
0.0
11
55.6157718120805
21
54.9765100671141
31
0.0
  0
LINE
 8
COMPONENT0
10
55.6157718120805
20
54.9765100671141
30
0.0
11
54.5725402874701
21
43.1590184784042
31
0.0
  0
LINE
 8
COMPONENT0
10
54.5725402874701
20
43.1590184784042
30
0.0
11
51.442834875461
21
32.5668222589514
31
0.0
  0
LINE
 8
COMPONENT0
10
51.442834875461
20
32.5668222589514
30
0.0
11
46.2266393187862
21
23.199883813826
31
0.0
  0
LINE
 8
COMPONENT0
10
46.2266393187862
20
23.199883813826
30
0.0
11
38.923937360179
21
15.0581655480984
31
0.0
  0
LINE
 8
COMPONENT0
10
38.923937360179
20
15.0581655480984
30
0.0
11
30.1829074490524
21
8.47019695460596
31
0.0
  0
LINE
 8
COMPONENT0
10
30.1829074490524
20
8.47019695460596
30
0.0
11
20.6517134032793
21
3.76452257262514
31
0.0
  0
LINE
 8
COMPONENT0
10
20.6517134032793
20
3.76452257262514
30
0.0
11
10.3303170182828
21
0.94112829135635
31
0.0
  0
LINE
 8
COMPONENT0
10
10.3303170182828
20
0.94112829135635
30
0.0
11
-0.781319910514536
21
0.0
31
0.0
  0
LINE
 8
COMPONENT0
10
-0.781319910514536
20
0.0
30
0.0
11
-11.7864125038953
21
0.90561400398912
31
0.0
  0
LINE
 8
COMPONENT0
10
-11.7864125038953
20
0.90561400398912
30
0.0
11
-21.9302371641667
21
3.62246508446316
31
0.0
  0
LINE
 8
COMPONENT0
10
-21.9302371641667
20
3.62246508446316
30
0.0
11
-31.2128302669632
21
8.15056684418213
31
0.0
  0
LINE
 8
COMPONENT0
10
-31.2128302669632
20
8.15056684418213
30
0.0
11
-39.6342281879195
21
14.489932885906
31
0.0
  0
LINE
 8
COMPONENT0
10
-39.6342281879195
20
14.489932885906
30
0.0
11
-46.6261759280358
21
22.1610838846872
31
0.0
  0
LINE
 8
COMPONENT0
10
-46.6261759280358
20
22.1610838846872
30
0.0
11
-51.6204058211922
21
30.6845548168925
31
0.0
  0
LINE
 8
COMPONENT0
10
-51.6204058211922
20
30.6845548168925
30
0.0
11
-54.6169328037524
21
40.0603792131347
31
0.0
  0
LINE
 8
COMPONENT0
10
-54.6169328037524
20
40.0603792131347
30
0.0
11
-55.6157718120805
21
50.2885906040268
31
0.0
  0
LINE
 8
COMPONENT0
10
-55.6157718120805
20
50.2885906040268
30
0.0
11
-53.2185522581907
21
64.8140429085
31
0.0
  0
LINE
 8
COMPONENT0
10
-53.2185522581907
20
64.8140429085
30
0.0
11
-46.0268456375839
21
77.4217002237136
31
0.0
  0
LINE
 8
COMPONENT0
10
-46.0268456375839
20
77.4217002237136
30
0.0
11
-33.4369562957644
21
89.0704697986577
31
0.0
  0
LINE
 8
COMPONENT0
10
-33.4369562957644
20
89.0704697986577
30
0.0
11
-14.8450782997763
21
100.719239373602
31
0.0
  0
LINE
 8
COMPONENT0
10
-0.0710290827740446
20
112.510067114094
30
0.0
11
12.2969514112878
21
121.140112864091
31
0.0
  0
LINE
 8
COMPONENT0
10
12.2969514112878
20
121.140112864091
30
0.0
11
21.1311889750846
21
130.409389470248
31
0.0
  0
LINE
 8
COMPONENT0
10
21.1311889750846
20
130.409389470248
30
0.0
11
26.4317112459699
21
140.317931072824
31
0.0
  0
LINE
 8
COMPONENT0
10
26.4317112459699
20
140.317931072824
30
0.0
11
28.1985458612975
21
150.865771812081
31
0.0
  0
LINE
 8
COMPONENT0
10
28.1985458612975
20
150.865771812081
30
0.0
11
26.2097402141665
21
161.999584872184
31
0.0
  0
LINE
 8
COMPONENT0
10
26.2097402141665
20
161.999584872184
30
0.0
11
20.243288590604
21
171.251118568233
31
0.0
  0
LINE
 8
COMPONENT0
10
20.243288590604
20
171.251118568233
30
0.0
11
11.4001721205061
21
177.483933587469
31
0.0
  0
LINE
 8
COMPONENT0
10
11.4001721205061
20
177.483933587469
30
0.0
11
0.781319910514548
21
179.561521252796
31
0.0
  0
LINE
 8
COMPONENT0
10
0.781319910514548
20
179.561521252796
30
0.0
11
-10.3880082328848
21
177.395145066366
31
0.0
  0
LINE
 8
COMPONENT0
10
-10.3880082328848
20
177.395145066366
30
0.0
11
-19.7460850111857
21
170.895973154362
31
0.0
  0
LINE
 8
COMPONENT0
10
-19.7460850111857
20
170.895973154362
30
0.0
11
-26.0854414869475
21
161.129478608202
31
0.0
  0
LINE
 8
COMPONENT0
10
-26.0854414869475
20
161.129478608202
30
0.0
11
-28.1985458612975
21
149.161073825503
31
0.0
  0
LINE
 8
COMPONENT0
10
-28.1985458612975
20
149.161073825503
30
0.0
11
-26.440589474885
21
137.973968089827
31
0.0
  0
LINE
 8
COMPONENT0
10
-26.440589474885
20
137.973968089827
30
0.0
11
-21.1667024326538
21
128.136454486207
31
0.0
  0
LINE
 8
COMPONENT0
10
-21.1667024326538
20
128.136454486207
30
0.0
11
-12.3768579101136
21
119.648498874383
31
0.0
  0
LINE
 8
COMPONENT0
10
-12.3768579101136
20
119.648498874383
30
0.0
11
-0.0710290827740446
21
112.510067114094
31
0.0
  0
LINE
 8
COMPONENT0
10
-0.0710290827740446
20
95.0369127516778
30
0.0
11
-16.2923479861594
21
85.3591855921735
31
0.0
  0
LINE
 8
COMPONENT0
10
-16.2923479861594
20
85.3591855921735
30
0.0
11
-27.8789613220249
21
74.7936328316162
31
0.0
  0
LINE
 8
COMPONENT0
10
-27.8789613220249
20
74.7936328316162
30
0.0
11
-34.8309038402784
21
63.3402122011121
31
0.0
  0
LINE
 8
COMPONENT0
10
-34.8309038402784
20
63.3402122011121
30
0.0
11
-37.1482102908277
21
50.9988814317673
31
0.0
  0
LINE
 8
COMPONENT0
10
-37.1482102908277
20
50.9988814317673
30
0.0
11
-34.4668759638298
21
37.6631659928051
31
0.0
  0
LINE
 8
COMPONENT0
10
-34.4668759638298
20
37.6631659928051
30
0.0
11
-26.4228187919463
21
26.6359060402685
31
0.0
  0
LINE
 8
COMPONENT0
10
-26.4228187919463
20
26.6359060402685
30
0.0
11
-14.5076955756885
21
19.2311118326464
31
0.0
  0
LINE
 8
COMPONENT0
10
-14.5076955756885
20
19.2311118326464
30
0.0
11
-0.213087248322145
21
16.7628635346756
31
0.0
  0
LINE
 8
COMPONENT0
10
-0.213087248322145
20
16.7628635346756
30
0.0
11
14.4189103060387
21
19.3909264560247
31
0.0
  0
LINE
 8
COMPONENT0
10
14.4189103060387
20
19.3909264560247
30
0.0
11
26.4938478747204
21
27.2751677852349
31
0.0
  0
LINE
 8
COMPONENT0
10
26.4938478747204
20
27.2751677852349
30
0.0
11
34.5911774005933
21
39.0304747523877
31
0.0
  0
LINE
 8
COMPONENT0
10
34.5911774005933
20
39.0304747523877
30
0.0
11
37.2902684563758
21
53.2718120805369
31
0.0
  0
LINE
 8
COMPONENT0
10
37.2902684563758
20
53.2718120805369
30
0.0
11
34.9552052431725
21
66.6430708497963
31
0.0
  0
LINE
 8
COMPONENT0
10
34.9552052431725
20
66.6430708497963
30
0.0
11
27.9499917595712
21
78.0609820193092
31
0.0
  0
LINE
 8
COMPONENT0
10
27.9499917595712
20
78.0609820193092
30
0.0
11
16.2745922395847
21
87.5255833872213
31
0.0
  0
LINE
 8
COMPONENT0
10
16.2745922395847
20
87.5255833872213
30
0.0
11
-0.0710290827740446
21
95.0369127516778
31
0.0
 0
ENDSEC
 0
EOF
