 0
SECTION
 2
ENTITIES
  0
LINE
 8
COMPONENT0
10
35.1593959731544
20
106.401565995526
30
0.0
11
25.4639115429565
21
93.5363831413406
31
0.0
  0
LINE
 8
COMPONENT0
10
25.4639115429565
20
93.5363831413406
30
0.0
11
15.1292011337792
21
84.3470000281963
31
0.0
  0
LINE
 8
COMPONENT0
10
15.1292011337792
20
84.3470000281963
30
0.0
11
4.15522572818218
21
78.8333898316027
31
0.0
  0
LINE
 8
COMPONENT0
10
4.15522572818218
20
78.8333898316027
30
0.0
11
-7.45805369127516
21
76.9955257270693
31
0.0
  0
LINE
 8
COMPONENT0
10
-7.45805369127516
20
76.9955257270693
30
0.0
11
-16.9138220796649
21
78.0121213456395
31
0.0
  0
LINE
 8
COMPONENT0
10
-16.9138220796649
20
78.0121213456395
30
0.0
11
-25.534963927813
21
81.0619190395279
31
0.0
  0
LINE
 8
COMPONENT0
10
-25.534963927813
20
81.0619190395279
30
0.0
11
-33.3215097180949
21
86.1449350660013
31
0.0
  0
LINE
 8
COMPONENT0
10
-33.3215097180949
20
86.1449350660013
30
0.0
11
-40.2734899328859
21
93.2611856823266
31
0.0
  0
LINE
 8
COMPONENT0
10
-40.2734899328859
20
93.2611856823266
30
0.0
11
-45.9913494237251
21
101.948942562078
31
0.0
  0
LINE
 8
COMPONENT0
10
-45.9913494237251
20
101.948942562078
30
0.0
11
-50.0755196468409
21
111.746493636095
31
0.0
  0
LINE
 8
COMPONENT0
10
-50.0755196468409
20
111.746493636095
30
0.0
11
-53.342841163311
21
134.671140939597
31
0.0
  0
LINE
 8
COMPONENT0
10
-53.342841163311
20
134.671140939597
30
0.0
11
-49.8091619073411
21
158.465894507082
31
0.0
  0
LINE
 8
COMPONENT0
10
-49.8091619073411
20
158.465894507082
30
0.0
11
-45.3920430238348
21
168.818358664545
31
0.0
  0
LINE
 8
COMPONENT0
10
-45.3920430238348
20
168.818358664545
30
0.0
11
-39.2080536912752
21
178.140939597315
31
0.0
  0
LINE
 8
COMPONENT0
10
-39.2080536912752
20
178.140939597315
30
0.0
11
-31.6301290748903
21
185.84762190279
31
0.0
  0
LINE
 8
COMPONENT0
10
-31.6301290748903
20
185.84762190279
30
0.0
11
-23.0311903857545
21
191.35237283728
31
0.0
  0
LINE
 8
COMPONENT0
10
-23.0311903857545
20
191.35237283728
30
0.0
11
-13.4112034836071
21
194.655210283779
31
0.0
  0
LINE
 8
COMPONENT0
10
-13.4112034836071
20
194.655210283779
30
0.0
11
-2.77013422818792
21
195.75615212528
31
0.0
  0
LINE
 8
COMPONENT0
10
-2.77013422818792
20
195.75615212528
30
0.0
11
13.9572212680074
21
192.684161636387
31
0.0
  0
LINE
 8
COMPONENT0
10
13.9572212680074
20
192.684161636387
30
0.0
11
28.3406040268456
21
183.468120805369
31
0.0
  0
LINE
 8
COMPONENT0
10
28.3406040268456
20
183.468120805369
30
0.0
11
39.7230232119294
21
168.729599135567
31
0.0
  0
LINE
 8
COMPONENT0
10
39.7230232119294
20
168.729599135567
30
0.0
11
47.4474272930649
21
149.090044742729
31
0.0
  0
LINE
 8
COMPONENT0
10
47.4474272930649
20
149.090044742729
30
0.0
11
51.868995282474
21
126.023355530946
31
0.0
  0
LINE
 8
COMPONENT0
10
51.868995282474
20
126.023355530946
30
0.0
11
53.342841163311
21
101.003355704698
31
0.0
  0
LINE
 8
COMPONENT0
10
53.342841163311
20
101.003355704698
30
0.0
11
51.460579140341
21
74.9534358039532
31
0.0
  0
LINE
 8
COMPONENT0
10
51.460579140341
20
74.9534358039532
30
0.0
11
45.8137583892617
21
50.2175615212528
31
0.0
  0
LINE
 8
COMPONENT0
10
45.8137583892617
20
50.2175615212528
30
0.0
11
36.3669001346733
21
28.8910653287132
31
0.0
  0
LINE
 8
COMPONENT0
10
36.3669001346733
20
28.8910653287132
30
0.0
11
23.084451901566
21
13.0693512304251
31
0.0
  0
LINE
 8
COMPONENT0
10
23.084451901566
20
13.0693512304251
30
0.0
11
7.10291261267609
21
3.26732146566613
31
0.0
  0
LINE
 8
COMPONENT0
10
7.10291261267609
20
3.26732146566613
30
0.0
11
-10.4412751677852
21
0.0
31
0.0
  0
LINE
 8
COMPONENT0
10
-10.4412751677852
20
0.0
30
0.0
11
-25.3573790279277
21
2.37946237580772
31
0.0
  0
LINE
 8
COMPONENT0
10
-25.3573790279277
20
2.37946237580772
30
0.0
11
-41.4099552572707
21
9.5178970917226
31
0.0
  0
LINE
 8
COMPONENT0
10
-41.4099552572707
20
9.5178970917226
30
0.0
11
-41.4099552572707
21
29.5480984340045
31
0.0
  0
LINE
 8
COMPONENT0
10
-41.4099552572707
20
29.5480984340045
30
0.0
11
-27.4527434726689
21
19.9591564086726
31
0.0
  0
LINE
 8
COMPONENT0
10
-27.4527434726689
20
19.9591564086726
30
0.0
11
-12.2880313199105
21
16.7628635346756
31
0.0
  0
LINE
 8
COMPONENT0
10
-12.2880313199105
20
16.7628635346756
30
0.0
11
-1.5626371114846
21
18.3965244453225
31
0.0
  0
LINE
 8
COMPONENT0
10
-1.5626371114846
20
18.3965244453225
30
0.0
11
8.45246085011187
21
23.2975391498881
31
0.0
  0
LINE
 8
COMPONENT0
10
8.45246085011187
20
23.2975391498881
30
0.0
11
17.419885801789
21
31.7499902456399
31
0.0
  0
LINE
 8
COMPONENT0
10
17.419885801789
20
31.7499902456399
30
0.0
11
25.0022371364653
21
44.0380313199105
31
0.0
  0
LINE
 8
COMPONENT0
10
25.0022371364653
20
44.0380313199105
30
0.0
11
30.5780277209527
21
58.1195475217747
31
0.0
  0
LINE
 8
COMPONENT0
10
30.5780277209527
20
58.1195475217747
30
0.0
11
33.5257270693512
21
71.9524608501119
31
0.0
  0
LINE
 8
COMPONENT0
10
33.5257270693512
20
71.9524608501119
30
0.0
11
35.1593959731544
21
106.401565995526
31
0.0
  0
LINE
 8
COMPONENT0
10
33.7388143176734
20
129.557046979866
30
0.0
11
28.7135142981339
21
149.889133845933
31
0.0
  0
LINE
 8
COMPONENT0
10
28.7135142981339
20
149.889133845933
30
0.0
11
20.7404921700224
21
165.710850111857
31
0.0
  0
LINE
 8
COMPONENT0
10
20.7404921700224
20
165.710850111857
30
0.0
11
9.96183536196716
21
175.885783560324
31
0.0
  0
LINE
 8
COMPONENT0
10
9.96183536196716
20
175.885783560324
30
0.0
11
-3.48042505592841
21
179.2774049217
31
0.0
  0
LINE
 8
COMPONENT0
10
-3.48042505592841
20
179.2774049217
30
0.0
11
-15.8927626897825
21
176.205414432807
31
0.0
  0
LINE
 8
COMPONENT0
10
-15.8927626897825
20
176.205414432807
30
0.0
11
-26.1387024608501
21
166.98937360179
31
0.0
  0
LINE
 8
COMPONENT0
10
-26.1387024608501
20
166.98937360179
30
0.0
11
-33.0107775993262
21
152.978892443697
31
0.0
  0
LINE
 8
COMPONENT0
10
-33.0107775993262
20
152.978892443697
30
0.0
11
-35.3014541387025
21
135.523489932886
31
0.0
  0
LINE
 8
COMPONENT0
10
-35.3014541387025
20
135.523489932886
30
0.0
11
-33.206106493137
21
119.044735142582
31
0.0
  0
LINE
 8
COMPONENT0
10
-33.206106493137
20
119.044735142582
30
0.0
11
-26.9200223713646
21
105.407158836689
31
0.0
  0
LINE
 8
COMPONENT0
10
-26.9200223713646
20
105.407158836689
30
0.0
11
-17.2955887002966
21
96.2443919853876
31
0.0
  0
LINE
 8
COMPONENT0
10
-17.2955887002966
20
96.2443919853876
30
0.0
11
-5.18512304250559
21
93.1901565995526
31
0.0
  0
LINE
 8
COMPONENT0
10
-5.18512304250559
20
93.1901565995526
30
0.0
11
5.59354081036528
21
95.4808315132022
31
0.0
  0
LINE
 8
COMPONENT0
10
5.59354081036528
20
95.4808315132022
30
0.0
11
16.3366890380313
21
102.352908277405
31
0.0
  0
LINE
 8
COMPONENT0
10
16.3366890380313
20
102.352908277405
30
0.0
11
26.0499193588359
21
113.735307953768
31
0.0
  0
LINE
 8
COMPONENT0
10
26.0499193588359
20
113.735307953768
30
0.0
11
33.7388143176734
21
129.557046979866
31
0.0
 0
ENDSEC
 0
EOF
