 0
SECTION
 2
ENTITIES
  0
LINE
 8
COMPONENT0
10
58.534725594949
20
3.82418649830015
30
0.0
11
35.4662457503643
21
3.82418649830015
31
0.0
  0
LINE
 8
COMPONENT0
10
35.4662457503643
20
3.82418649830015
30
0.0
11
35.4662457503643
21
18.5041282175813
31
0.0
  0
LINE
 8
COMPONENT0
10
35.4662457503643
20
18.5041282175813
30
0.0
11
27.1393880524526
21
12.6444876153473
31
0.0
  0
LINE
 8
COMPONENT0
10
27.1393880524526
20
12.6444876153473
30
0.0
11
16.9621175327829
21
6.66148615832929
31
0.0
  0
LINE
 8
COMPONENT0
10
16.9621175327829
20
6.66148615832929
30
0.0
11
3.63914521612433
21
1.91209324915007
31
0.0
  0
LINE
 8
COMPONENT0
10
3.63914521612433
20
1.91209324915007
30
0.0
11
-14.0014570179699
21
0.0
31
0.0
  0
LINE
 8
COMPONENT0
10
-14.0014570179699
20
0.0
30
0.0
11
-31.2103035543774
21
3.08400594693124
31
0.0
  0
LINE
 8
COMPONENT0
10
-31.2103035543774
20
3.08400594693124
30
0.0
11
-45.5818358426421
21
12.3360854783876
31
0.0
  0
LINE
 8
COMPONENT0
10
-45.5818358426421
20
12.3360854783876
30
0.0
11
-55.2965193920311
21
26.3683747101201
31
0.0
  0
LINE
 8
COMPONENT0
10
-55.2965193920311
20
26.3683747101201
30
0.0
11
-58.534725594949
21
43.7931034482759
31
0.0
  0
LINE
 8
COMPONENT0
10
-58.534725594949
20
43.7931034482759
30
0.0
11
-56.8539423602133
21
57.9641891709226
31
0.0
  0
LINE
 8
COMPONENT0
10
-56.8539423602133
20
57.9641891709226
30
0.0
11
-51.8115590092278
21
69.1437591063623
31
0.0
  0
LINE
 8
COMPONENT0
10
-51.8115590092278
20
69.1437591063623
30
0.0
11
-43.6543295454087
21
77.7944465774306
31
0.0
  0
LINE
 8
COMPONENT0
10
-43.6543295454087
20
77.7944465774306
30
0.0
11
-32.6289460903351
21
84.3788246721709
31
0.0
  0
LINE
 8
COMPONENT0
10
-32.6289460903351
20
84.3788246721709
30
0.0
11
-18.7816962584412
21
89.0356988225995
31
0.0
  0
LINE
 8
COMPONENT0
10
-18.7816962584412
20
89.0356988225995
30
0.0
11
-2.40553666828558
21
91.9038368139874
31
0.0
  0
LINE
 8
COMPONENT0
10
-2.40553666828558
20
91.9038368139874
30
0.0
11
35.4662457503643
21
94.8644973288004
31
0.0
  0
LINE
 8
COMPONENT0
10
35.4662457503643
20
94.8644973288004
30
0.0
11
35.4662457503643
21
98.4419621175328
31
0.0
  0
LINE
 8
COMPONENT0
10
35.4662457503643
20
98.4419621175328
30
0.0
11
32.690626517727
21
111.518212724624
31
0.0
  0
LINE
 8
COMPONENT0
10
32.690626517727
20
111.518212724624
30
0.0
11
24.7338513841671
21
119.660029140359
31
0.0
  0
LINE
 8
COMPONENT0
10
24.7338513841671
20
119.660029140359
30
0.0
11
12.891209324915
21
123.48421563866
31
0.0
  0
LINE
 8
COMPONENT0
10
12.891209324915
20
123.48421563866
30
0.0
11
-1.54201068479845
21
124.471102476931
31
0.0
  0
LINE
 8
COMPONENT0
10
-1.54201068479845
20
124.471102476931
30
0.0
11
-21.8965517241379
21
122.065565808645
31
0.0
  0
LINE
 8
COMPONENT0
10
-21.8965517241379
20
122.065565808645
30
0.0
11
-45.0883924235066
21
115.095677513356
31
0.0
  0
LINE
 8
COMPONENT0
10
-45.0883924235066
20
115.095677513356
30
0.0
11
-46.3220009713453
21
115.095677513356
31
0.0
  0
LINE
 8
COMPONENT0
10
-46.3220009713453
20
115.095677513356
30
0.0
11
-46.3220009713453
21
138.657600777076
31
0.0
  0
LINE
 8
COMPONENT0
10
-46.3220009713453
20
138.657600777076
30
0.0
11
-26.7076250607091
21
142.728508984944
31
0.0
  0
LINE
 8
COMPONENT0
10
-26.7076250607091
20
142.728508984944
30
0.0
11
-1.41864983001457
21
144.949004371054
31
0.0
  0
LINE
 8
COMPONENT0
10
-1.41864983001457
20
144.949004371054
30
0.0
11
23.9320058280719
21
142.543467702768
31
0.0
  0
LINE
 8
COMPONENT0
10
23.9320058280719
20
142.543467702768
30
0.0
11
34.0013393644803
21
139.289827040181
31
0.0
  0
LINE
 8
COMPONENT0
10
34.0013393644803
20
139.289827040181
30
0.0
11
42.621175327829
21
134.339970859641
31
0.0
  0
LINE
 8
COMPONENT0
10
42.621175327829
20
134.339970859641
30
0.0
11
49.46770559184
21
127.832688593297
31
0.0
  0
LINE
 8
COMPONENT0
10
49.46770559184
20
127.832688593297
30
0.0
11
54.4638173870811
21
119.660029140359
31
0.0
  0
LINE
 8
COMPONENT0
10
54.4638173870811
20
119.660029140359
30
0.0
11
57.5170041899938
21
109.575283967621
31
0.0
  0
LINE
 8
COMPONENT0
10
57.5170041899938
20
109.575283967621
30
0.0
11
58.534725594949
21
97.3317144244779
31
0.0
  0
LINE
 8
COMPONENT0
10
58.534725594949
20
97.3317144244779
30
0.0
11
58.534725594949
21
3.82418649830015
31
0.0
  0
LINE
 8
COMPONENT0
10
35.4662457503643
20
37.748421563866
30
0.0
11
35.4662457503643
21
76.1136474016513
31
0.0
  0
LINE
 8
COMPONENT0
10
35.4662457503643
20
76.1136474016513
30
0.0
11
10.4856726566294
21
74.2632345798932
31
0.0
  0
LINE
 8
COMPONENT0
10
10.4856726566294
20
74.2632345798932
30
0.0
11
-12.2744050509956
21
70.6857697911608
31
0.0
  0
LINE
 8
COMPONENT0
10
-12.2744050509956
20
70.6857697911608
30
0.0
11
-21.310592840342
21
67.0620475053903
31
0.0
  0
LINE
 8
COMPONENT0
10
-21.310592840342
20
67.0620475053903
30
0.0
11
-28.4346770276833
21
61.8654686741136
31
0.0
  0
LINE
 8
COMPONENT0
10
-28.4346770276833
20
61.8654686741136
30
0.0
11
-33.0607166114277
21
54.7568055347889
31
0.0
  0
LINE
 8
COMPONENT0
10
-33.0607166114277
20
54.7568055347889
30
0.0
11
-34.6027197668771
21
45.3967945604662
31
0.0
  0
LINE
 8
COMPONENT0
10
-34.6027197668771
20
45.3967945604662
30
0.0
11
-32.8139960783208
21
35.0190560635923
31
0.0
  0
LINE
 8
COMPONENT0
10
-32.8139960783208
20
35.0190560635923
30
0.0
11
-27.4477901894123
21
27.5711510441962
31
0.0
  0
LINE
 8
COMPONENT0
10
-27.4477901894123
20
27.5711510441962
30
0.0
11
-18.4116169881797
21
23.0838924220837
31
0.0
  0
LINE
 8
COMPONENT0
10
-18.4116169881797
20
23.0838924220837
30
0.0
11
-5.61291889266634
21
21.5881495871782
31
0.0
  0
LINE
 8
COMPONENT0
10
-5.61291889266634
20
21.5881495871782
30
0.0
11
6.07552539219608
21
22.7754919321691
31
0.0
  0
LINE
 8
COMPONENT0
10
6.07552539219608
20
22.7754919321691
30
0.0
11
16.7153958232151
21
26.3375424963575
31
0.0
  0
LINE
 8
COMPONENT0
10
16.7153958232151
20
26.3375424963575
30
0.0
11
35.4662457503643
21
37.748421563866
31
0.0
 0
ENDSEC
 0
EOF
