 0
SECTION
 2
ENTITIES
  0
LINE
 8
COMPONENT0
10
69.2671199611462
20
56.4992714910151
30
-6.90588646142636
11
67.9718366329273
21
43.6080588720098
31
-6.90588646142636
  0
LINE
 8
COMPONENT0
10
67.9718366329273
20
43.6080588720098
30
-6.90588646142636
11
64.0859640602234
21
32.3205439533754
31
-6.90588646142636
  0
LINE
 8
COMPONENT0
10
64.0859640602234
20
32.3205439533754
30
-6.90588646142636
11
58.0104466679607
21
22.7600734723662
31
-6.90588646142636
  0
LINE
 8
COMPONENT0
10
58.0104466679607
20
22.7600734723662
30
-6.90588646142636
11
50.1461874696454
21
15.0500242836328
31
-6.90588646142636
  0
LINE
 8
COMPONENT0
10
50.1461874696454
20
15.0500242836328
30
-6.90588646142636
11
39.2750121418164
21
8.08013004721687
31
-6.90588646142636
  0
LINE
 8
COMPONENT0
10
39.2750121418164
20
8.08013004721687
30
-6.90588646142636
11
27.3861097620204
21
3.45410393394852
31
-6.90588646142636
  0
LINE
 8
COMPONENT0
10
27.3861097620204
20
3.45410393394852
30
-6.90588646142636
11
13.3075625626655
21
0.863521645287972
31
-6.90588646142636
  0
LINE
 8
COMPONENT0
10
13.3075625626655
20
0.863521645287972
30
-6.90588646142636
11
-4.13258863525983
21
0.0
31
-6.90588646142636
  0
LINE
 8
COMPONENT0
10
-4.13258863525983
20
0.0
30
-6.90588646142636
11
-69.2671199611462
21
0.0
31
-6.90588646142636
  0
LINE
 8
COMPONENT0
10
-69.2671199611462
20
0.0
30
-6.90588646142636
11
-69.2671199611462
21
183.684312773191
31
-6.90588646142636
  0
LINE
 8
COMPONENT0
10
-69.2671199611462
20
183.684312773191
30
-6.90588646142636
11
-14.864983001457
21
183.684312773191
31
-6.90588646142636
  0
LINE
 8
COMPONENT0
10
-14.864983001457
20
183.684312773191
30
-6.90588646142636
11
15.2350655658086
21
182.203982515784
31
-6.90588646142636
  0
LINE
 8
COMPONENT0
10
15.2350655658086
20
182.203982515784
30
-6.90588646142636
11
34.3559980573094
21
176.035939776591
31
-6.90588646142636
  0
LINE
 8
COMPONENT0
10
34.3559980573094
20
176.035939776591
30
-6.90588646142636
11
43.0837841802804
21
169.97583966767
31
-6.90588646142636
  0
LINE
 8
COMPONENT0
10
43.0837841802804
20
169.97583966767
30
-6.90588646142636
11
49.0359397765906
21
162.404565322972
31
-6.90588646142636
  0
LINE
 8
COMPONENT0
10
49.0359397765906
20
162.404565322972
30
-6.90588646142636
11
52.4592100850235
21
153.260445726792
31
-6.90588646142636
  0
LINE
 8
COMPONENT0
10
52.4592100850235
20
153.260445726792
30
-6.90588646142636
11
53.600291403594
21
142.481787275376
31
-6.90588646142636
  0
LINE
 8
COMPONENT0
10
53.600291403594
20
142.481787275376
30
-6.90588646142636
11
51.9349283345293
21
130.376997752697
31
-6.90588646142636
  0
LINE
 8
COMPONENT0
10
51.9349283345293
20
130.376997752697
30
-6.90588646142636
11
46.9388052452647
21
120.215152986887
31
-6.90588646142636
  0
LINE
 8
COMPONENT0
10
46.9388052452647
20
120.215152986887
30
-6.90588646142636
11
39.1670770408923
21
111.934549021339
31
-6.90588646142636
  0
LINE
 8
COMPONENT0
10
39.1670770408923
20
111.934549021339
30
-6.90588646142636
11
29.1748421563866
21
105.473530840214
31
-6.90588646142636
  0
LINE
 8
COMPONENT0
10
29.1748421563866
20
105.473530840214
30
-6.90588646142636
11
29.1748421563866
21
104.486644001943
31
-6.90588646142636
  0
LINE
 8
COMPONENT0
10
29.1748421563866
20
104.486644001943
30
-6.90588646142636
11
45.8285669638961
21
98.4882337321003
31
-6.90588646142636
  0
LINE
 8
COMPONENT0
10
45.8285669638961
20
98.4882337321003
30
-6.90588646142636
11
58.534725594949
21
88.1413307430792
31
-6.90588646142636
  0
LINE
 8
COMPONENT0
10
58.534725594949
20
88.1413307430792
30
-6.90588646142636
11
66.5840326636204
21
73.9702619614677
31
-6.90588646142636
  0
LINE
 8
COMPONENT0
10
66.5840326636204
20
73.9702619614677
30
-6.90588646142636
11
69.2671199611462
21
56.4992714910151
31
-6.90588646142636
  0
LINE
 8
COMPONENT0
10
28.1879553181156
20
139.274405050996
30
-6.90588646142636
11
25.9674599320058
21
150.500242836328
31
-6.90588646142636
  0
LINE
 8
COMPONENT0
10
25.9674599320058
20
150.500242836328
30
-6.90588646142636
11
18.812530354541
21
157.901894123361
31
-6.90588646142636
  0
LINE
 8
COMPONENT0
10
18.812530354541
20
157.901894123361
30
-6.90588646142636
11
4.74939290917921
21
162.034482758621
31
-6.90588646142636
  0
LINE
 8
COMPONENT0
10
4.74939290917921
20
162.034482758621
30
-6.90588646142636
11
-15.7285089849442
21
162.836328314716
31
-6.90588646142636
  0
LINE
 8
COMPONENT0
10
-15.7285089849442
20
162.836328314716
30
-6.90588646142636
11
-44.8416707139388
21
162.836328314716
31
-6.90588646142636
  0
LINE
 8
COMPONENT0
10
-44.8416707139388
20
162.836328314716
30
-6.90588646142636
11
-44.8416707139388
21
109.791160757649
31
-6.90588646142636
  0
LINE
 8
COMPONENT0
10
-44.8416707139388
20
109.791160757649
30
-6.90588646142636
11
-13.2612918892666
21
109.791160757649
31
-6.90588646142636
  0
LINE
 8
COMPONENT0
10
-13.2612918892666
20
109.791160757649
30
-6.90588646142636
11
4.99611461874696
21
110.963088878096
31
-6.90588646142636
  0
LINE
 8
COMPONENT0
10
4.99611461874696
20
110.963088878096
30
-6.90588646142636
11
17.5789218067023
21
115.835842642059
31
-6.90588646142636
  0
LINE
 8
COMPONENT0
10
17.5789218067023
20
115.835842642059
30
-6.90588646142636
11
22.5287808107484
21
120.076371084086
31
-6.90588646142636
  0
LINE
 8
COMPONENT0
10
22.5287808107484
20
120.076371084086
30
-6.90588646142636
11
25.78241864983
21
125.39630888781
31
-6.90588646142636
  0
LINE
 8
COMPONENT0
10
25.78241864983
20
125.39630888781
30
-6.90588646142636
11
28.1879553181156
21
139.274405050996
31
-6.90588646142636
  0
LINE
 8
COMPONENT0
10
43.8547838756678
20
55.512384652744
30
-6.90588646142636
11
43.0221009293825
21
65.4737802647224
31
-6.90588646142636
  0
LINE
 8
COMPONENT0
10
43.0221009293825
20
65.4737802647224
30
-6.90588646142636
11
40.5240407965032
21
73.1529868868383
31
-6.90588646142636
  0
LINE
 8
COMPONENT0
10
40.5240407965032
20
73.1529868868383
30
-6.90588646142636
11
35.8363358440649
21
79.1976697124168
31
-6.90588646142636
  0
LINE
 8
COMPONENT0
10
35.8363358440649
20
79.1976697124168
30
-6.90588646142636
11
28.4346770276833
21
84.2554638173871
31
-6.90588646142636
  0
LINE
 8
COMPONENT0
10
28.4346770276833
20
84.2554638173871
30
-6.90588646142636
11
14.0631374453618
21
88.264691597863
31
-6.90588646142636
  0
LINE
 8
COMPONENT0
10
14.0631374453618
20
88.264691597863
30
-6.90588646142636
11
-6.47644487615347
21
89.1898980087421
31
-6.90588646142636
  0
LINE
 8
COMPONENT0
10
-6.47644487615347
20
89.1898980087421
30
-6.90588646142636
11
-44.8416707139388
21
89.1898980087421
31
-6.90588646142636
  0
LINE
 8
COMPONENT0
10
-44.8416707139388
20
89.1898980087421
30
-6.90588646142636
11
-44.8416707139388
21
20.847984458475
31
-6.90588646142636
  0
LINE
 8
COMPONENT0
10
-44.8416707139388
20
20.847984458475
30
-6.90588646142636
11
-12.5211267605634
21
20.847984458475
31
-6.90588646142636
  0
LINE
 8
COMPONENT0
10
-12.5211267605634
20
20.847984458475
30
-6.90588646142636
11
13.7547353084021
21
22.5133559980573
31
-6.90588646142636
  0
LINE
 8
COMPONENT0
10
13.7547353084021
20
22.5133559980573
30
-6.90588646142636
11
23.0684854915965
21
24.8726288164166
31
-6.90588646142636
  0
LINE
 8
COMPONENT0
10
23.0684854915965
20
24.8726288164166
30
-6.90588646142636
11
30.5318115590092
21
28.6197183098592
31
-6.90588646142636
  0
LINE
 8
COMPONENT0
10
30.5318115590092
20
28.6197183098592
30
-6.90588646142636
11
40.647401651287
21
39.5988343856241
31
-6.90588646142636
  0
LINE
 8
COMPONENT0
10
40.647401651287
20
39.5988343856241
30
-6.90588646142636
11
43.0529430254158
21
46.6612386161578
31
-6.90588646142636
  0
LINE
 8
COMPONENT0
10
43.0529430254158
20
46.6612386161578
30
-6.90588646142636
11
43.8547838756678
21
55.512384652744
31
-6.90588646142636
 0
ENDSEC
 0
EOF
