 0
SECTION
 2
ENTITIES
  0
LINE
 8
COMPONENT0
10
60.6318601262749
20
73.7697911607576
30
0.0
11
59.4136763911273
21
57.3627937098277
31
0.0
  0
LINE
 8
COMPONENT0
10
59.4136763911273
20
57.3627937098277
30
0.0
11
55.7591063623118
21
42.682855755221
31
0.0
  0
LINE
 8
COMPONENT0
10
55.7591063623118
20
42.682855755221
30
0.0
11
50.0382514275527
21
29.97668206547
31
0.0
  0
LINE
 8
COMPONENT0
10
50.0382514275527
20
29.97668206547
30
0.0
11
42.621175327829
21
19.4910150558524
31
0.0
  0
LINE
 8
COMPONENT0
10
42.621175327829
20
19.4910150558524
30
0.0
11
33.4307935287676
21
10.9636898513208
31
0.0
  0
LINE
 8
COMPONENT0
10
33.4307935287676
20
10.9636898513208
30
0.0
11
23.3768819815444
21
4.87275376396309
31
0.0
  0
LINE
 8
COMPONENT0
10
23.3768819815444
20
4.87275376396309
30
0.0
11
12.3669303979267
21
1.21818232339467
31
0.0
  0
LINE
 8
COMPONENT0
10
12.3669303979267
20
1.21818232339467
30
0.0
11
0.308402136959697
21
0.0
31
0.0
  0
LINE
 8
COMPONENT0
10
0.308402136959697
20
0.0
30
0.0
11
-20.1694997571637
21
2.7756192326372
31
0.0
  0
LINE
 8
COMPONENT0
10
-20.1694997571637
20
2.7756192326372
30
0.0
11
-37.4400194269063
21
10.2389509470617
31
0.0
  0
LINE
 8
COMPONENT0
10
-37.4400194269063
20
10.2389509470617
30
0.0
11
-38.9203496843128
21
3.82418649830015
31
0.0
  0
LINE
 8
COMPONENT0
10
-38.9203496843128
20
3.82418649830015
30
0.0
11
-60.6318601262749
21
3.82418649830015
31
0.0
  0
LINE
 8
COMPONENT0
10
-60.6318601262749
20
3.82418649830015
30
0.0
11
-60.6318601262749
21
195.773676542011
31
0.0
  0
LINE
 8
COMPONENT0
10
-60.6318601262749
20
195.773676542011
30
0.0
11
-37.4400194269063
21
195.773676542011
31
0.0
  0
LINE
 8
COMPONENT0
10
-37.4400194269063
20
195.773676542011
30
0.0
11
-37.4400194269063
21
127.185041282176
31
0.0
  0
LINE
 8
COMPONENT0
10
-37.4400194269063
20
127.185041282176
30
0.0
11
-16.7153958232151
21
140.322972316659
31
0.0
  0
LINE
 8
COMPONENT0
10
-16.7153958232151
20
140.322972316659
30
0.0
11
-5.05779881081343
21
144.162582686481
31
0.0
  0
LINE
 8
COMPONENT0
10
-5.05779881081343
20
144.162582686481
30
0.0
11
7.95677513355998
21
145.442447790189
31
0.0
  0
LINE
 8
COMPONENT0
10
7.95677513355998
20
145.442447790189
30
0.0
11
19.525738178381
21
144.270528846137
31
0.0
  0
LINE
 8
COMPONENT0
10
19.525738178381
20
144.270528846137
30
0.0
11
29.8070787723462
21
140.754759778787
31
0.0
  0
LINE
 8
COMPONENT0
10
29.8070787723462
20
140.754759778787
30
0.0
11
38.8008343269085
21
134.89512223535
31
0.0
  0
LINE
 8
COMPONENT0
10
38.8008343269085
20
134.89512223535
30
0.0
11
46.5070422535211
21
126.69159786304
31
0.0
  0
LINE
 8
COMPONENT0
10
46.5070422535211
20
126.69159786304
30
0.0
11
52.6866712491451
21
116.352404927443
31
0.0
  0
LINE
 8
COMPONENT0
10
52.6866712491451
20
116.352404927443
30
0.0
11
57.1006744814591
21
104.085740047268
31
0.0
  0
LINE
 8
COMPONENT0
10
57.1006744814591
20
104.085740047268
30
0.0
11
59.7490660679925
21
89.8915523994079
31
0.0
  0
LINE
 8
COMPONENT0
10
59.7490660679925
20
89.8915523994079
30
0.0
11
60.6318601262749
21
73.7697911607576
31
0.0
  0
LINE
 8
COMPONENT0
10
36.699854298203
20
73.1529868868383
30
0.0
11
34.6644114882926
21
94.8490903983132
31
0.0
  0
LINE
 8
COMPONENT0
10
34.6644114882926
20
94.8490903983132
30
0.0
11
28.5580378824672
21
110.593006313745
31
0.0
  0
LINE
 8
COMPONENT0
10
28.5580378824672
20
110.593006313745
30
0.0
11
23.8626111119971
21
116.178959078092
31
0.0
  0
LINE
 8
COMPONENT0
10
23.8626111119971
20
116.178959078092
30
0.0
11
17.9181754513815
21
120.168909607378
31
0.0
  0
LINE
 8
COMPONENT0
10
17.9181754513815
20
120.168909607378
30
0.0
11
2.28217581350171
21
123.360854783876
31
0.0
  0
LINE
 8
COMPONENT0
10
2.28217581350171
20
123.360854783876
30
0.0
11
-7.89509423558372
21
122.266033785849
31
0.0
  0
LINE
 8
COMPONENT0
10
-7.89509423558372
20
122.266033785849
30
0.0
11
-18.1957260806217
21
118.981544439048
31
0.0
  0
LINE
 8
COMPONENT0
10
-18.1957260806217
20
118.981544439048
30
0.0
11
-37.4400194269063
21
107.694026226323
31
0.0
  0
LINE
 8
COMPONENT0
10
-37.4400194269063
20
107.694026226323
30
0.0
11
-37.4400194269063
21
28.743079164643
31
0.0
  0
LINE
 8
COMPONENT0
10
-37.4400194269063
20
28.743079164643
30
0.0
11
-20.4779018941234
21
22.5750364254492
31
0.0
  0
LINE
 8
COMPONENT0
10
-20.4779018941234
20
22.5750364254492
30
0.0
11
-4.37931034482758
21
20.847984458475
31
0.0
  0
LINE
 8
COMPONENT0
10
-4.37931034482758
20
20.847984458475
30
0.0
11
12.7832798710027
21
24.0090903624451
31
0.0
  0
LINE
 8
COMPONENT0
10
12.7832798710027
20
24.0090903624451
30
0.0
11
25.78241864983
21
33.4924720738222
31
0.0
  0
LINE
 8
COMPONENT0
10
25.78241864983
20
33.4924720738222
30
0.0
11
30.5588126282138
21
40.7129423994645
31
0.0
  0
LINE
 8
COMPONENT0
10
30.5588126282138
20
40.7129423994645
30
0.0
11
33.9705095036392
21
49.7298267025459
31
0.0
  0
LINE
 8
COMPONENT0
10
33.9705095036392
20
49.7298267025459
30
0.0
11
36.699854298203
21
73.1529868868383
31
0.0
 0
ENDSEC
 0
EOF
