 0
SECTION
 2
ENTITIES
  0
LINE
 8
COMPONENT0
10
76.1753278290432
20
16.6537153958232
30
0.0
11
63.9009227780476
21
11.1024769305488
31
0.0
  0
LINE
 8
COMPONENT0
10
63.9009227780476
20
11.1024769305488
30
0.0
11
49.5293831957261
21
5.67459932005828
31
0.0
  0
LINE
 8
COMPONENT0
10
49.5293831957261
20
5.67459932005828
30
0.0
11
33.1840699368625
21
1.66537153958232
31
0.0
  0
LINE
 8
COMPONENT0
10
33.1840699368625
20
1.66537153958232
30
0.0
11
13.7547353084021
21
0.0
31
0.0
  0
LINE
 8
COMPONENT0
10
13.7547353084021
20
0.0
30
0.0
11
-5.31994062722916
21
1.40322272322489
31
0.0
  0
LINE
 8
COMPONENT0
10
-5.31994062722916
20
1.40322272322489
30
0.0
11
-22.5750364254492
21
5.61291889266634
31
0.0
  0
LINE
 8
COMPONENT0
10
-22.5750364254492
20
5.61291889266634
30
0.0
11
-37.8563679588136
21
12.8141007319187
31
0.0
  0
LINE
 8
COMPONENT0
10
-37.8563679588136
20
12.8141007319187
30
0.0
11
-51.0097134531326
21
23.1918406993686
31
0.0
  0
LINE
 8
COMPONENT0
10
-51.0097134531326
20
23.1918406993686
30
0.0
11
-61.5570728900422
21
36.4993853798302
31
0.0
  0
LINE
 8
COMPONENT0
10
-61.5570728900422
20
36.4993853798302
30
0.0
11
-69.5138416707139
21
52.9834871296746
31
0.0
  0
LINE
 8
COMPONENT0
10
-69.5138416707139
20
52.9834871296746
30
0.0
11
-74.5099645835095
21
72.5207545061375
31
0.0
  0
LINE
 8
COMPONENT0
10
-74.5099645835095
20
72.5207545061375
30
0.0
11
-76.1753278290432
21
94.9878581835843
31
0.0
  0
LINE
 8
COMPONENT0
10
-76.1753278290432
20
94.9878581835843
30
0.0
11
-74.5716447167862
21
116.483492776686
31
0.0
  0
LINE
 8
COMPONENT0
10
-74.5716447167862
20
116.483492776686
30
0.0
11
-69.7605633802817
21
135.573579407479
31
0.0
  0
LINE
 8
COMPONENT0
10
-69.7605633802817
20
135.573579407479
30
0.0
11
-61.9271563955625
21
152.073099381835
31
0.0
  0
LINE
 8
COMPONENT0
10
-61.9271563955625
20
152.073099381835
30
0.0
11
-51.2564351627003
21
165.796988829529
31
0.0
  0
LINE
 8
COMPONENT0
10
-51.2564351627003
20
165.796988829529
30
0.0
11
-38.3189716348375
21
176.344351325237
31
0.0
  0
LINE
 8
COMPONENT0
10
-38.3189716348375
20
176.344351325237
30
0.0
11
-22.9451189898009
21
184.054395337542
31
0.0
  0
LINE
 8
COMPONENT0
10
-22.9451189898009
20
184.054395337542
30
0.0
11
-5.44330148201304
21
188.772953680038
31
0.0
  0
LINE
 8
COMPONENT0
10
-5.44330148201304
20
188.772953680038
30
0.0
11
13.878096163186
21
190.34579893152
31
0.0
  0
LINE
 8
COMPONENT0
10
13.878096163186
20
190.34579893152
30
0.0
11
43.4230208839242
21
186.768334142788
31
0.0
  0
LINE
 8
COMPONENT0
10
43.4230208839242
20
186.768334142788
30
0.0
11
58.981904928866
21
181.833907480782
31
0.0
  0
LINE
 8
COMPONENT0
10
58.981904928866
20
181.833907480782
30
0.0
11
76.1753278290432
21
174.185526954832
31
0.0
  0
LINE
 8
COMPONENT0
10
76.1753278290432
20
174.185526954832
30
0.0
11
76.1753278290432
21
145.195726080622
31
0.0
  0
LINE
 8
COMPONENT0
10
76.1753278290432
20
145.195726080622
30
0.0
11
74.3249150072851
21
145.195726080622
31
0.0
  0
LINE
 8
COMPONENT0
10
74.3249150072851
20
145.195726080622
30
0.0
11
59.2132140609348
21
156.174849685736
31
0.0
  0
LINE
 8
COMPONENT0
10
59.2132140609348
20
156.174849685736
30
0.0
11
44.2248664400194
21
163.699854298203
31
0.0
  0
LINE
 8
COMPONENT0
10
44.2248664400194
20
163.699854298203
30
0.0
11
28.7739240841822
21
168.048331958684
31
0.0
  0
LINE
 8
COMPONENT0
10
28.7739240841822
20
168.048331958684
30
0.0
11
12.2744050509956
21
169.497814473045
31
0.0
  0
LINE
 8
COMPONENT0
10
12.2744050509956
20
169.497814473045
30
0.0
11
-0.971472378434799
21
168.372154202491
31
0.0
  0
LINE
 8
COMPONENT0
10
-0.971472378434799
20
168.372154202491
30
0.0
11
-12.8295288975231
21
164.995143273434
31
0.0
  0
LINE
 8
COMPONENT0
10
-12.8295288975231
20
164.995143273434
30
0.0
11
-23.3923063236513
21
159.243449066147
31
0.0
  0
LINE
 8
COMPONENT0
10
-23.3923063236513
20
159.243449066147
30
0.0
11
-32.752306945119
21
150.993686255464
31
0.0
  0
LINE
 8
COMPONENT0
10
-32.752306945119
20
150.993686255464
30
0.0
11
-40.3235841133225
21
140.523441235031
31
0.0
  0
LINE
 8
COMPONENT0
10
-40.3235841133225
20
140.523441235031
30
0.0
11
-46.0135988343856
21
127.616804273919
31
0.0
  0
LINE
 8
COMPONENT0
10
-46.0135988343856
20
127.616804273919
30
0.0
11
-49.575649398574
21
112.397162579633
31
0.0
  0
LINE
 8
COMPONENT0
10
-49.575649398574
20
112.397162579633
30
0.0
11
-50.7629917435648
21
94.9878581835843
31
0.0
  0
LINE
 8
COMPONENT0
10
-50.7629917435648
20
94.9878581835843
30
0.0
11
-49.4522894849587
21
76.9771686792952
31
0.0
  0
LINE
 8
COMPONENT0
10
-49.4522894849587
20
76.9771686792952
30
0.0
11
-45.5201554152501
21
61.6804273919378
31
0.0
  0
LINE
 8
COMPONENT0
10
-45.5201554152501
20
61.6804273919378
30
0.0
11
-39.5217385572273
21
49.0359327178258
31
0.0
  0
LINE
 8
COMPONENT0
10
-39.5217385572273
20
49.0359327178258
30
0.0
11
-32.0121418164157
21
38.9820301117047
31
0.0
  0
LINE
 8
COMPONENT0
10
-32.0121418164157
20
38.9820301117047
30
0.0
11
-22.6521407243637
21
31.0406692026888
31
0.0
  0
LINE
 8
COMPONENT0
10
-22.6521407243637
20
31.0406692026888
30
0.0
11
-11.8426420592521
21
25.4740165128703
31
0.0
  0
LINE
 8
COMPONENT0
10
-11.8426420592521
20
25.4740165128703
30
0.0
11
0.0154172833420975
21
22.1895285778222
31
0.0
  0
LINE
 8
COMPONENT0
10
0.0154172833420975
20
22.1895285778222
30
0.0
11
12.5211267605634
21
21.0947061680427
31
0.0
  0
LINE
 8
COMPONENT0
10
12.5211267605634
20
21.0947061680427
30
0.0
11
29.6066079716361
21
22.6058693450883
31
0.0
  0
LINE
 8
COMPONENT0
10
29.6066079716361
20
22.6058693450883
30
0.0
11
45.5818358426421
21
27.1393880524526
31
0.0
  0
LINE
 8
COMPONENT0
10
45.5818358426421
20
27.1393880524526
30
0.0
11
60.5085030361656
21
34.6952331139081
31
0.0
  0
LINE
 8
COMPONENT0
10
60.5085030361656
20
34.6952331139081
30
0.0
11
74.448275862069
21
45.2734337056824
31
0.0
  0
LINE
 8
COMPONENT0
10
74.448275862069
20
45.2734337056824
30
0.0
11
76.1753278290432
21
45.2734337056824
31
0.0
  0
LINE
 8
COMPONENT0
10
76.1753278290432
20
45.2734337056824
30
0.0
11
76.1753278290432
21
16.6537153958232
31
0.0
 0
ENDSEC
 0
EOF
