 0
SECTION
 2
ENTITIES
  0
LINE
 8
COMPONENT0
10
55.8824672170957
20
11.7192812044682
30
0.0
11
33.8625546381739
21
3.08402136959689
31
0.0
  0
LINE
 8
COMPONENT0
10
33.8625546381739
20
3.08402136959689
30
0.0
11
11.7192812044682
21
0.0
31
0.0
  0
LINE
 8
COMPONENT0
10
11.7192812044682
20
0.0
30
0.0
11
-2.59058124455159
21
1.09482210095847
31
0.0
  0
LINE
 8
COMPONENT0
10
-2.59058124455159
20
1.09482210095847
30
0.0
11
-15.6668285575522
21
4.37931034482759
31
0.0
  0
LINE
 8
COMPONENT0
10
-15.6668285575522
20
4.37931034482759
30
0.0
11
-27.2319133993837
21
9.88428307783841
31
0.0
  0
LINE
 8
COMPONENT0
10
-27.2319133993837
20
9.88428307783841
30
0.0
11
-37.0082564351627
21
17.6406022340942
31
0.0
  0
LINE
 8
COMPONENT0
10
-37.0082564351627
20
17.6406022340942
30
0.0
11
-44.995876723554
21
27.6945064872605
31
0.0
  0
LINE
 8
COMPONENT0
10
-44.995876723554
20
27.6945064872605
30
0.0
11
-50.9480330257406
21
40.0922778047596
31
0.0
  0
LINE
 8
COMPONENT0
10
-50.9480330257406
20
40.0922778047596
30
0.0
11
-54.6488648162645
21
54.8030545613093
31
0.0
  0
LINE
 8
COMPONENT0
10
-54.6488648162645
20
54.8030545613093
30
0.0
11
-55.8824672170957
21
71.7960174842156
31
0.0
  0
LINE
 8
COMPONENT0
10
-55.8824672170957
20
71.7960174842156
30
0.0
11
-54.7221128899476
21
87.7867074617198
31
0.0
  0
LINE
 8
COMPONENT0
10
-54.7221128899476
20
87.7867074617198
30
0.0
11
-51.2410382909529
21
101.957764361077
31
0.0
  0
LINE
 8
COMPONENT0
10
-51.2410382909529
20
101.957764361077
30
0.0
11
-45.4392259937863
21
114.309239711271
31
0.0
  0
LINE
 8
COMPONENT0
10
-45.4392259937863
20
114.309239711271
30
0.0
11
-37.3166585721224
21
124.841185041282
31
0.0
  0
LINE
 8
COMPONENT0
10
-37.3166585721224
20
124.841185041282
30
0.0
11
-27.2897222707896
21
133.260588791835
31
0.0
  0
LINE
 8
COMPONENT0
10
-27.2897222707896
20
133.260588791835
30
0.0
11
-15.7747838936019
21
139.274427639043
31
0.0
  0
LINE
 8
COMPONENT0
10
-15.7747838936019
20
139.274427639043
30
0.0
11
-2.7717979115268
21
142.882718523942
31
0.0
  0
LINE
 8
COMPONENT0
10
-2.7717979115268
20
142.882718523942
30
0.0
11
11.7192812044682
21
144.085478387567
31
0.0
  0
LINE
 8
COMPONENT0
10
11.7192812044682
20
144.085478387567
30
0.0
11
34.9728023312287
21
140.754735308402
31
0.0
  0
LINE
 8
COMPONENT0
10
34.9728023312287
20
140.754735308402
30
0.0
11
55.8824672170957
21
132.612918892666
31
0.0
  0
LINE
 8
COMPONENT0
10
55.8824672170957
20
132.612918892666
30
0.0
11
55.8824672170957
21
106.830500242836
31
0.0
  0
LINE
 8
COMPONENT0
10
55.8824672170957
20
106.830500242836
30
0.0
11
54.6488586692569
21
106.830500242836
31
0.0
  0
LINE
 8
COMPONENT0
10
54.6488586692569
20
106.830500242836
30
0.0
11
32.752306945119
21
119.536668285576
31
0.0
  0
LINE
 8
COMPONENT0
10
32.752306945119
20
119.536668285576
30
0.0
11
21.6035696940262
21
122.867417011752
31
0.0
  0
LINE
 8
COMPONENT0
10
21.6035696940262
20
122.867417011752
30
0.0
11
10.7323943661972
21
123.977659057795
31
0.0
  0
LINE
 8
COMPONENT0
10
10.7323943661972
20
123.977659057795
30
0.0
11
-6.92363926876859
21
120.662353967682
31
0.0
  0
LINE
 8
COMPONENT0
10
-6.92363926876859
20
120.662353967682
30
0.0
11
-14.1903473269077
21
116.518202487562
31
0.0
  0
LINE
 8
COMPONENT0
10
-14.1903473269077
20
116.518202487562
30
0.0
11
-20.4162214667314
21
110.716367168528
31
0.0
  0
LINE
 8
COMPONENT0
10
-20.4162214667314
20
110.716367168528
30
0.0
11
-25.4084972056907
21
103.310852737204
31
0.0
  0
LINE
 8
COMPONENT0
10
-25.4084972056907
20
103.310852737204
30
0.0
11
-28.9743951201844
21
94.3556479203464
31
0.0
  0
LINE
 8
COMPONENT0
10
-28.9743951201844
20
94.3556479203464
30
0.0
11
-31.8271005342399
21
71.7960174842156
31
0.0
  0
LINE
 8
COMPONENT0
10
-31.8271005342399
20
71.7960174842156
30
0.0
11
-29.036075076992
21
49.760671622085
31
0.0
  0
LINE
 8
COMPONENT0
10
-29.036075076992
20
49.760671622085
30
0.0
11
-20.6629431762992
21
33.4924720738222
31
0.0
  0
LINE
 8
COMPONENT0
10
-20.6629431762992
20
33.4924720738222
30
0.0
11
-14.5141688648389
21
27.636667704339
31
0.0
  0
LINE
 8
COMPONENT0
10
-14.5141688648389
20
27.636667704339
30
0.0
11
-7.23204140572827
21
23.4539658100412
31
0.0
  0
LINE
 8
COMPONENT0
10
-7.23204140572827
20
23.4539658100412
30
0.0
11
10.7323943661972
21
20.1078193297717
31
0.0
  0
LINE
 8
COMPONENT0
10
10.7323943661972
20
20.1078193297717
30
0.0
11
25.0422535211268
21
21.9582321515299
31
0.0
  0
LINE
 8
COMPONENT0
10
25.0422535211268
20
21.9582321515299
30
0.0
11
38.1185041282176
21
26.769305488101
31
0.0
  0
LINE
 8
COMPONENT0
10
38.1185041282176
20
26.769305488101
30
0.0
11
47.617289946576
21
32.2588635259835
31
0.0
  0
LINE
 8
COMPONENT0
10
47.617289946576
20
32.2588635259835
30
0.0
11
54.6488586692569
21
37.2549781447305
31
0.0
  0
LINE
 8
COMPONENT0
10
54.6488586692569
20
37.2549781447305
30
0.0
11
55.8824672170957
21
37.2549781447305
31
0.0
  0
LINE
 8
COMPONENT0
10
55.8824672170957
20
37.2549781447305
30
0.0
11
55.8824672170957
21
11.7192812044682
31
0.0
 0
ENDSEC
 0
EOF
