 0
SECTION
 2
ENTITIES
  0
LINE
 8
COMPONENT0
10
77.5939776590578
20
91.6571151044196
30
0.0
11
74.8646300409881
21
67.7867849978965
31
0.0
  0
LINE
 8
COMPONENT0
10
74.8646300409881
20
67.7867849978965
30
0.0
11
66.6765420106848
21
46.2603205439534
31
0.0
  0
LINE
 8
COMPONENT0
10
66.6765420106848
20
46.2603205439534
30
0.0
11
53.9549651551212
21
28.1879442593842
31
0.0
  0
LINE
 8
COMPONENT0
10
53.9549651551212
20
28.1879442593842
30
0.0
11
37.6250607090821
21
14.6799417192812
31
0.0
  0
LINE
 8
COMPONENT0
10
37.6250607090821
20
14.6799417192812
30
0.0
11
24.317512263946
21
7.9876097590672
31
0.0
  0
LINE
 8
COMPONENT0
10
24.317512263946
20
7.9876097590672
30
0.0
11
9.56046624575037
21
3.45410393394852
31
0.0
  0
LINE
 8
COMPONENT0
10
9.56046624575037
20
3.45410393394852
30
0.0
11
-8.37310672443198
21
0.863521645287972
31
0.0
  0
LINE
 8
COMPONENT0
10
-8.37310672443198
20
0.863521645287972
30
0.0
11
-31.2102962603205
21
0.0
31
0.0
  0
LINE
 8
COMPONENT0
10
-31.2102962603205
20
0.0
30
0.0
11
-77.5939776590578
21
0.0
31
0.0
  0
LINE
 8
COMPONENT0
10
-77.5939776590578
20
0.0
30
0.0
11
-77.5939776590578
21
183.684312773191
31
0.0
  0
LINE
 8
COMPONENT0
10
-77.5939776590578
20
183.684312773191
30
0.0
11
-31.703739679456
21
183.684312773191
31
0.0
  0
LINE
 8
COMPONENT0
10
-31.703739679456
20
183.684312773191
30
0.0
11
-7.57126022716815
21
182.71285168878
31
0.0
  0
LINE
 8
COMPONENT0
10
-7.57126022716815
20
182.71285168878
30
0.0
11
11.0407965031569
21
179.798445847499
31
0.0
  0
LINE
 8
COMPONENT0
10
11.0407965031569
20
179.798445847499
30
0.0
11
25.6744854312432
21
175.187837664626
31
0.0
  0
LINE
 8
COMPONENT0
10
25.6744854312432
20
175.187837664626
30
0.0
11
37.8717824186498
21
169.127731908694
31
0.0
  0
LINE
 8
COMPONENT0
10
37.8717824186498
20
169.127731908694
30
0.0
11
54.5563474398553
21
155.465528535403
31
0.0
  0
LINE
 8
COMPONENT0
10
54.5563474398553
20
155.465528535403
30
0.0
11
67.1083050024284
21
137.917435648373
31
0.0
  0
LINE
 8
COMPONENT0
10
67.1083050024284
20
137.917435648373
30
0.0
11
74.9725745535985
21
116.606858337313
31
0.0
  0
LINE
 8
COMPONENT0
10
74.9725745535985
20
116.606858337313
30
0.0
11
77.5939776590578
21
91.6571151044196
31
0.0
  0
LINE
 8
COMPONENT0
10
52.0582807187955
20
92.0271976687712
30
0.0
11
50.1770370950277
21
111.919142090852
31
0.0
  0
LINE
 8
COMPONENT0
10
50.1770370950277
20
111.919142090852
30
0.0
11
44.5332685769791
21
128.418649830015
31
0.0
  0
LINE
 8
COMPONENT0
10
44.5332685769791
20
128.418649830015
30
0.0
11
35.1578520839222
21
141.649107152597
31
0.0
  0
LINE
 8
COMPONENT0
10
35.1578520839222
20
141.649107152597
30
0.0
11
22.0815930063138
21
151.733851384167
31
0.0
  0
LINE
 8
COMPONENT0
10
22.0815930063138
20
151.733851384167
30
0.0
11
10.8865973170143
21
156.961269487971
31
0.0
  0
LINE
 8
COMPONENT0
10
10.8865973170143
20
156.961269487971
30
0.0
11
-0.986886838271006
21
160.307430791646
31
0.0
  0
LINE
 8
COMPONENT0
10
-0.986886838271006
20
160.307430791646
30
0.0
11
-30.2234094220495
21
162.712967459932
31
0.0
  0
LINE
 8
COMPONENT0
10
-30.2234094220495
20
162.712967459932
30
0.0
11
-53.1685284118504
21
162.712967459932
31
0.0
  0
LINE
 8
COMPONENT0
10
-53.1685284118504
20
162.712967459932
30
0.0
11
-53.1685284118504
21
20.9713453132589
31
0.0
  0
LINE
 8
COMPONENT0
10
-53.1685284118504
20
20.9713453132589
30
0.0
11
-30.2234094220495
21
20.9713453132589
31
0.0
  0
LINE
 8
COMPONENT0
10
-30.2234094220495
20
20.9713453132589
30
0.0
11
0.555123846527443
21
23.5619232637202
31
0.0
  0
LINE
 8
COMPONENT0
10
0.555123846527443
20
23.5619232637202
30
0.0
11
13.1533549060053
21
27.2627439661012
31
0.0
  0
LINE
 8
COMPONENT0
10
13.1533549060053
20
27.2627439661012
30
0.0
11
24.6721709567751
21
33.1840699368625
31
0.0
  0
LINE
 8
COMPONENT0
10
24.6721709567751
20
33.1840699368625
30
0.0
11
36.6536024481767
21
43.3304931840716
31
0.0
  0
LINE
 8
COMPONENT0
10
36.6536024481767
20
43.3304931840716
30
0.0
11
45.2117532782904
21
56.2525497814473
31
0.0
  0
LINE
 8
COMPONENT0
10
45.2117532782904
20
56.2525497814473
30
0.0
11
50.3466601526928
21
72.3511319190568
31
0.0
  0
LINE
 8
COMPONENT0
10
50.3466601526928
20
72.3511319190568
30
0.0
11
52.0582807187955
21
92.0271976687712
31
0.0
 0
ENDSEC
 0
EOF
