 0
SECTION
 2
ENTITIES
  0
LINE
 8
COMPONENT0
10
60.6318601262749
20
3.82418649830015
30
0.0
11
37.4400194269063
21
3.82418649830015
31
0.0
  0
LINE
 8
COMPONENT0
10
37.4400194269063
20
3.82418649830015
30
0.0
11
37.4400194269063
21
18.2574065080136
31
0.0
  0
LINE
 8
COMPONENT0
10
37.4400194269063
20
18.2574065080136
30
0.0
11
16.5920349684313
21
4.81107333657115
31
0.0
  0
LINE
 8
COMPONENT0
10
16.5920349684313
20
4.81107333657115
30
0.0
11
5.27368077726952
21
1.20276233419277
31
0.0
  0
LINE
 8
COMPONENT0
10
5.27368077726952
20
1.20276233419277
30
0.0
11
-6.96988829528897
21
0.0
31
0.0
  0
LINE
 8
COMPONENT0
10
-6.96988829528897
20
0.0
30
0.0
11
-18.6699230424289
21
1.18733933766297
31
0.0
  0
LINE
 8
COMPONENT0
10
-18.6699230424289
20
1.18733933766297
30
0.0
11
-29.0977550337997
21
4.74936920349432
31
0.0
  0
LINE
 8
COMPONENT0
10
-29.0977550337997
20
4.74936920349432
30
0.0
11
-38.2534215043852
21
10.6861073767577
31
0.0
  0
LINE
 8
COMPONENT0
10
-38.2534215043852
20
10.6861073767577
30
0.0
11
-46.1369596891695
21
18.9975716367168
31
0.0
  0
LINE
 8
COMPONENT0
10
-46.1369596891695
20
18.9975716367168
30
0.0
11
-52.4784990125863
21
29.4138644006775
31
0.0
  0
LINE
 8
COMPONENT0
10
-52.4784990125863
20
29.4138644006775
30
0.0
11
-57.0081531344947
21
41.6651098798814
31
0.0
  0
LINE
 8
COMPONENT0
10
-57.0081531344947
20
41.6651098798814
30
0.0
11
-59.7259356430168
21
55.7513574856818
31
0.0
  0
LINE
 8
COMPONENT0
10
-59.7259356430168
20
55.7513574856818
30
0.0
11
-60.6318601262749
21
71.6726566294318
31
0.0
  0
LINE
 8
COMPONENT0
10
-60.6318601262749
20
71.6726566294318
30
0.0
11
-59.3828377362418
21
88.2338551488416
31
0.0
  0
LINE
 8
COMPONENT0
10
-59.3828377362418
20
88.2338551488416
30
0.0
11
-55.6357455075279
21
102.882952889752
31
0.0
  0
LINE
 8
COMPONENT0
10
-55.6357455075279
20
102.882952889752
30
0.0
11
-49.7606890337047
21
115.558286365807
31
0.0
  0
LINE
 8
COMPONENT0
10
-49.7606890337047
20
115.558286365807
30
0.0
11
-42.1277319086935
21
126.198154443905
31
0.0
  0
LINE
 8
COMPONENT0
10
-42.1277319086935
20
126.198154443905
30
0.0
11
-33.0452925046131
21
134.463337361436
31
0.0
  0
LINE
 8
COMPONENT0
10
-33.0452925046131
20
134.463337361436
30
0.0
11
-22.5750364254492
21
140.508013598834
31
0.0
  0
LINE
 8
COMPONENT0
10
-22.5750364254492
20
140.508013598834
30
0.0
11
-11.210418149069
21
144.208843007025
31
0.0
  0
LINE
 8
COMPONENT0
10
-11.210418149069
20
144.208843007025
30
0.0
11
0.555123846527443
21
145.442447790189
31
0.0
  0
LINE
 8
COMPONENT0
10
0.555123846527443
20
145.442447790189
30
0.0
11
19.799417192812
21
143.160271976688
31
0.0
  0
LINE
 8
COMPONENT0
10
19.799417192812
20
143.160271976688
30
0.0
11
37.4400194269063
21
136.067022826615
31
0.0
  0
LINE
 8
COMPONENT0
10
37.4400194269063
20
136.067022826615
30
0.0
11
37.4400194269063
21
195.773676542011
31
0.0
  0
LINE
 8
COMPONENT0
10
37.4400194269063
20
195.773676542011
30
0.0
11
60.6318601262749
21
195.773676542011
31
0.0
  0
LINE
 8
COMPONENT0
10
60.6318601262749
20
195.773676542011
30
0.0
11
60.6318601262749
21
3.82418649830015
31
0.0
  0
LINE
 8
COMPONENT0
10
37.4400194269063
20
37.748421563866
30
0.0
11
37.4400194269063
21
116.82272948033
31
0.0
  0
LINE
 8
COMPONENT0
10
37.4400194269063
20
116.82272948033
30
0.0
11
20.6629431762992
21
122.620689655172
31
0.0
  0
LINE
 8
COMPONENT0
10
20.6629431762992
20
122.620689655172
30
0.0
11
4.50267119961147
21
124.224380767363
31
0.0
  0
LINE
 8
COMPONENT0
10
4.50267119961147
20
124.224380767363
30
0.0
11
-12.8295397209623
21
120.831973260673
31
0.0
  0
LINE
 8
COMPONENT0
10
-12.8295397209623
20
120.831973260673
30
0.0
11
-19.8765115506328
21
116.591445877461
31
0.0
  0
LINE
 8
COMPONENT0
10
-19.8765115506328
20
116.591445877461
30
0.0
11
-25.8440990772219
21
110.654686741136
31
0.0
  0
LINE
 8
COMPONENT0
10
-25.8440990772219
20
110.654686741136
30
0.0
11
-33.9859291399029
21
94.2477090547477
31
0.0
  0
LINE
 8
COMPONENT0
10
-33.9859291399029
20
94.2477090547477
30
0.0
11
-36.699854298203
21
72.1661000485673
31
0.0
  0
LINE
 8
COMPONENT0
10
-36.699854298203
20
72.1661000485673
30
0.0
11
-34.6027301197321
21
50.5625152958429
31
0.0
  0
LINE
 8
COMPONENT0
10
-34.6027301197321
20
50.5625152958429
30
0.0
11
-28.3113161728995
21
34.8494414764449
31
0.0
  0
LINE
 8
COMPONENT0
10
-28.3113161728995
20
34.8494414764449
30
0.0
11
-23.4848195530362
21
29.2634895062088
31
0.0
  0
LINE
 8
COMPONENT0
10
-23.4848195530362
20
29.2634895062088
30
0.0
11
-17.3938927597187
21
25.2735388886876
31
0.0
  0
LINE
 8
COMPONENT0
10
-17.3938927597187
20
25.2735388886876
30
0.0
11
-1.41864983001457
21
22.0815930063137
31
0.0
  0
LINE
 8
COMPONENT0
10
-1.41864983001457
20
22.0815930063137
30
0.0
11
8.51189992125605
21
23.1764154160932
31
0.0
  0
LINE
 8
COMPONENT0
10
8.51189992125605
20
23.1764154160932
30
0.0
11
18.5658086449733
21
26.4609033511413
31
0.0
  0
LINE
 8
COMPONENT0
10
18.5658086449733
20
26.4609033511413
30
0.0
11
37.4400194269063
21
37.748421563866
31
0.0
 0
ENDSEC
 0
EOF
