 0
SECTION
 2
ENTITIES
  0
LINE
 8
COMPONENT0
10
62.543953375425
20
69.6988829528897
30
0.0
11
-38.9820301117047
21
69.6988829528897
31
0.0
  0
LINE
 8
COMPONENT0
10
-38.9820301117047
20
69.6988829528897
30
0.0
11
-38.0259879576807
21
57.8099753966663
31
0.0
  0
LINE
 8
COMPONENT0
10
-38.0259879576807
20
57.8099753966663
30
0.0
11
-35.1578436134046
21
47.5556095191841
31
0.0
  0
LINE
 8
COMPONENT0
10
-35.1578436134046
20
47.5556095191841
30
0.0
11
-30.6243362000638
21
38.9666067107665
31
0.0
  0
LINE
 8
COMPONENT0
10
-30.6243362000638
20
38.9666067107665
30
0.0
11
-24.6721709567751
21
32.0738222438077
31
0.0
  0
LINE
 8
COMPONENT0
10
-24.6721709567751
20
32.0738222438077
30
0.0
11
-9.43710539096649
21
23.1918406993686
31
0.0
  0
LINE
 8
COMPONENT0
10
-9.43710539096649
20
23.1918406993686
30
0.0
11
9.99222923749393
21
20.2311801845556
31
0.0
  0
LINE
 8
COMPONENT0
10
9.99222923749393
20
20.2311801845556
30
0.0
11
24.1016270033997
21
21.6344030842496
31
0.0
  0
LINE
 8
COMPONENT0
10
24.1016270033997
20
21.6344030842496
30
0.0
11
38.3035454103934
21
25.8440990772219
31
0.0
  0
LINE
 8
COMPONENT0
10
38.3035454103934
20
25.8440990772219
30
0.0
11
58.5964060223409
21
36.8848955803788
31
0.0
  0
LINE
 8
COMPONENT0
10
58.5964060223409
20
36.8848955803788
30
0.0
11
59.8300145701797
21
36.8848955803788
31
0.0
  0
LINE
 8
COMPONENT0
10
59.8300145701797
20
36.8848955803788
30
0.0
11
59.8300145701797
21
11.5959203496843
31
0.0
  0
LINE
 8
COMPONENT0
10
59.8300145701797
20
11.5959203496843
30
0.0
11
35.8980087421078
21
3.33074307916464
31
0.0
  0
LINE
 8
COMPONENT0
10
35.8980087421078
20
3.33074307916464
30
0.0
11
10.2389509470617
21
0.0
31
0.0
  0
LINE
 8
COMPONENT0
10
10.2389509470617
20
0.0
30
0.0
11
-5.96762052631424
21
1.16035432714812
31
0.0
  0
LINE
 8
COMPONENT0
10
-5.96762052631424
20
1.16035432714812
30
0.0
11
-20.2928794353202
21
4.64142892614275
31
0.0
  0
LINE
 8
COMPONENT0
10
-20.2928794353202
20
4.64142892614275
30
0.0
11
-32.7368758971857
21
10.4432412233093
31
0.0
  0
LINE
 8
COMPONENT0
10
-32.7368758971857
20
10.4432412233093
30
0.0
11
-43.2996600291404
21
18.5658086449733
31
0.0
  0
LINE
 8
COMPONENT0
10
-43.2996600291404
20
18.5658086449733
30
0.0
11
-51.719065367915
21
28.8240444313964
31
0.0
  0
LINE
 8
COMPONENT0
10
-51.719065367915
20
28.8240444313964
30
0.0
11
-57.7329040386539
21
41.0328840873611
31
0.0
  0
LINE
 8
COMPONENT0
10
-57.7329040386539
20
41.0328840873611
30
0.0
11
-61.3411940412072
21
55.1923773771585
31
0.0
  0
LINE
 8
COMPONENT0
10
-61.3411940412072
20
55.1923773771585
30
0.0
11
-62.543953375425
21
71.3025740650801
31
0.0
  0
LINE
 8
COMPONENT0
10
-62.543953375425
20
71.3025740650801
30
0.0
11
-61.3913090134663
21
87.3318146626425
31
0.0
  0
LINE
 8
COMPONENT0
10
-61.3913090134663
20
87.3318146626425
30
0.0
11
-57.933364427686
21
101.61852295159
31
0.0
  0
LINE
 8
COMPONENT0
10
-57.933364427686
20
101.61852295159
30
0.0
11
-52.1701023682279
21
114.162749755029
31
0.0
  0
LINE
 8
COMPONENT0
10
-52.1701023682279
20
114.162749755029
30
0.0
11
-44.1015055852355
21
124.964545896066
31
0.0
  0
LINE
 8
COMPONENT0
10
-44.1015055852355
20
124.964545896066
30
0.0
11
-34.1516700828463
21
133.653803634088
31
0.0
  0
LINE
 8
COMPONENT0
10
-34.1516700828463
20
133.653803634088
30
0.0
11
-22.744672424183
21
139.860393581603
31
0.0
  0
LINE
 8
COMPONENT0
10
-22.744672424183
20
139.860393581603
30
0.0
11
-9.88046725668219
21
143.584334091401
31
0.0
  0
LINE
 8
COMPONENT0
10
-9.88046725668219
20
143.584334091401
30
0.0
11
4.44099077221953
21
144.82564351627
31
0.0
  0
LINE
 8
COMPONENT0
10
4.44099077221953
20
144.82564351627
30
0.0
11
17.5828093037321
21
143.807924934821
31
0.0
  0
LINE
 8
COMPONENT0
10
17.5828093037321
20
143.807924934821
30
0.0
11
29.128598776878
21
140.754757896449
31
0.0
  0
LINE
 8
COMPONENT0
10
29.128598776878
20
140.754757896449
30
0.0
11
39.0783987207399
21
135.66612546012
31
0.0
  0
LINE
 8
COMPONENT0
10
39.0783987207399
20
135.66612546012
30
0.0
11
47.4322486644002
21
128.542010684798
31
0.0
  0
LINE
 8
COMPONENT0
10
47.4322486644002
20
128.542010684798
30
0.0
11
54.043639592953
21
119.544369868482
31
0.0
  0
LINE
 8
COMPONENT0
10
54.043639592953
20
119.544369868482
30
0.0
11
58.7660450798728
21
108.83513107411
31
0.0
  0
LINE
 8
COMPONENT0
10
58.7660450798728
20
108.83513107411
30
0.0
11
61.5994785368124
21
96.4142519490935
31
0.0
  0
LINE
 8
COMPONENT0
10
61.5994785368124
20
96.4142519490935
30
0.0
11
62.543953375425
21
82.2816901408451
31
0.0
  0
LINE
 8
COMPONENT0
10
62.543953375425
20
82.2816901408451
30
0.0
11
62.543953375425
21
69.6988829528897
31
0.0
  0
LINE
 8
COMPONENT0
10
39.9689169499757
20
87.4628460417678
30
0.0
11
37.609650955089
21
103.653970467344
31
0.0
  0
LINE
 8
COMPONENT0
10
37.609650955089
20
103.653970467344
30
0.0
11
30.778533268577
21
115.712481787275
31
0.0
  0
LINE
 8
COMPONENT0
10
30.778533268577
20
115.712481787275
30
0.0
11
19.3522453882441
21
123.206665009419
31
0.0
  0
LINE
 8
COMPONENT0
10
19.3522453882441
20
123.206665009419
30
0.0
11
3.20738222438078
21
125.704711024769
31
0.0
  0
LINE
 8
COMPONENT0
10
3.20738222438078
20
125.704711024769
30
0.0
11
-13.523443587953
21
122.959945182189
31
0.0
  0
LINE
 8
COMPONENT0
10
-13.523443587953
20
122.959945182189
30
0.0
11
-26.4609033511413
21
114.725594949004
31
0.0
  0
LINE
 8
COMPONENT0
10
-26.4609033511413
20
114.725594949004
30
0.0
11
-35.1115948221763
21
102.420356272493
31
0.0
  0
LINE
 8
COMPONENT0
10
-35.1115948221763
20
102.420356272493
30
0.0
11
-38.9820301117047
21
87.4628460417678
31
0.0
  0
LINE
 8
COMPONENT0
10
-38.9820301117047
20
87.4628460417678
30
0.0
11
39.9689169499757
21
87.4628460417678
31
0.0
 0
ENDSEC
 0
EOF
