 0
SECTION
 2
ENTITIES
  0
LINE
 8
COMPONENT0
10
81.8499271491015
20
17.1471588149587
30
0.0
11
48.9742593491986
21
5.11947547353084
31
0.0
  0
LINE
 8
COMPONENT0
10
48.9742593491986
20
5.11947547353084
30
0.0
11
31.441595980703
21
1.27986245667141
31
0.0
  0
LINE
 8
COMPONENT0
10
31.441595980703
20
1.27986245667141
30
0.0
11
14.4949004371054
21
0.0
31
0.0
  0
LINE
 8
COMPONENT0
10
14.4949004371054
20
0.0
30
0.0
11
-6.07552680394902
21
1.48032284570354
31
0.0
  0
LINE
 8
COMPONENT0
10
-6.07552680394902
20
1.48032284570354
30
0.0
11
-24.8572122389509
21
5.92132102962603
31
0.0
  0
LINE
 8
COMPONENT0
10
-24.8572122389509
20
5.92132102962603
30
0.0
11
-41.4184135818667
21
13.3229649049556
31
0.0
  0
LINE
 8
COMPONENT0
10
-41.4184135818667
20
13.3229649049556
30
0.0
11
-55.3273433705682
21
23.6852841185041
31
0.0
  0
LINE
 8
COMPONENT0
10
-55.3273433705682
20
23.6852841185041
30
0.0
11
-66.5840285460077
21
37.1470298674455
31
0.0
  0
LINE
 8
COMPONENT0
10
-66.5840285460077
20
37.1470298674455
30
0.0
11
-74.9417192812045
21
53.600291403594
31
0.0
  0
LINE
 8
COMPONENT0
10
-74.9417192812045
20
53.600291403594
30
0.0
11
-80.1228838585256
21
73.0758778820807
31
0.0
  0
LINE
 8
COMPONENT0
10
-80.1228838585256
20
73.0758778820807
30
0.0
11
-81.8499271491015
21
95.6046624575036
31
0.0
  0
LINE
 8
COMPONENT0
10
-81.8499271491015
20
95.6046624575036
30
0.0
11
-80.2423930542164
21
116.464260348653
31
0.0
  0
LINE
 8
COMPONENT0
10
-80.2423930542164
20
116.464260348653
30
0.0
11
-75.4197747108715
21
135.003057100982
31
0.0
  0
LINE
 8
COMPONENT0
10
-75.4197747108715
20
135.003057100982
30
0.0
11
-67.382048031032
21
151.221116949251
31
0.0
  0
LINE
 8
COMPONENT0
10
-67.382048031032
20
151.221116949251
30
0.0
11
-56.1291889266634
21
165.118504128218
31
0.0
  0
LINE
 8
COMPONENT0
10
-56.1291889266634
20
165.118504128218
30
0.0
11
-42.0698915081385
21
176.263422352298
31
0.0
  0
LINE
 8
COMPONENT0
10
-42.0698915081385
20
176.263422352298
30
0.0
11
-25.6128224154709
21
184.224048512604
31
0.0
  0
LINE
 8
COMPONENT0
10
-25.6128224154709
20
184.224048512604
30
0.0
11
-6.75791423745731
21
189.000406608934
31
0.0
  0
LINE
 8
COMPONENT0
10
-6.75791423745731
20
189.000406608934
30
0.0
11
14.4949004371054
21
190.592520641088
31
0.0
  0
LINE
 8
COMPONENT0
10
14.4949004371054
20
190.592520641088
30
0.0
11
46.5070422535211
21
186.83001457018
31
0.0
  0
LINE
 8
COMPONENT0
10
46.5070422535211
20
186.83001457018
30
0.0
11
63.4845761284775
21
181.756806946542
31
0.0
  0
LINE
 8
COMPONENT0
10
63.4845761284775
20
181.756806946542
30
0.0
11
81.7265662943176
21
174.062166100049
31
0.0
  0
LINE
 8
COMPONENT0
10
81.7265662943176
20
174.062166100049
30
0.0
11
81.7265662943176
21
145.072365225838
31
0.0
  0
LINE
 8
COMPONENT0
10
81.7265662943176
20
145.072365225838
30
0.0
11
79.5060709082079
21
145.072365225838
31
0.0
  0
LINE
 8
COMPONENT0
10
79.5060709082079
20
145.072365225838
30
0.0
11
68.4035939776591
21
152.844099077222
31
0.0
  0
LINE
 8
COMPONENT0
10
68.4035939776591
20
152.844099077222
30
0.0
11
54.0937348227295
21
160.862554638174
31
0.0
  0
LINE
 8
COMPONENT0
10
54.0937348227295
20
160.862554638174
30
0.0
11
34.7877610490529
21
167.215638659543
31
0.0
  0
LINE
 8
COMPONENT0
10
34.7877610490529
20
167.215638659543
30
0.0
11
10.3006313744536
21
169.744536182613
31
0.0
  0
LINE
 8
COMPONENT0
10
10.3006313744536
20
169.744536182613
30
0.0
11
-4.31380877279436
21
168.50708107858
31
0.0
  0
LINE
 8
COMPONENT0
10
-4.31380877279436
20
168.50708107858
30
0.0
11
-17.3167950489846
21
164.794704472457
31
0.0
  0
LINE
 8
COMPONENT0
10
-17.3167950489846
20
164.794704472457
30
0.0
11
-28.7083726302115
21
158.607389423209
31
0.0
  0
LINE
 8
COMPONENT0
10
-28.7083726302115
20
158.607389423209
30
0.0
11
-38.4885866925692
21
149.945118989801
31
0.0
  0
LINE
 8
COMPONENT0
10
-38.4885866925692
20
149.945118989801
30
0.0
11
-46.3413015164583
21
139.170310153378
31
0.0
  0
LINE
 8
COMPONENT0
10
-46.3413015164583
20
139.170310153378
30
0.0
11
-51.9503625589068
21
126.645358248206
31
0.0
  0
LINE
 8
COMPONENT0
10
-51.9503625589068
20
126.645358248206
30
0.0
11
-55.3157867609499
21
112.370213862934
31
0.0
  0
LINE
 8
COMPONENT0
10
-55.3157867609499
20
112.370213862934
30
0.0
11
-56.4375910636231
21
96.3448275862069
31
0.0
  0
LINE
 8
COMPONENT0
10
-56.4375910636231
20
96.3448275862069
30
0.0
11
-55.2656715901631
21
79.5098867587756
31
0.0
  0
LINE
 8
COMPONENT0
10
-55.2656715901631
20
79.5098867587756
30
0.0
11
-51.7499016404673
21
64.6564901313948
31
0.0
  0
LINE
 8
COMPONENT0
10
-51.7499016404673
20
64.6564901313948
30
0.0
11
-45.8902639205621
21
51.7845861750821
31
0.0
  0
LINE
 8
COMPONENT0
10
-45.8902639205621
20
51.7845861750821
30
0.0
11
-37.686741136474
21
40.8941233608548
31
0.0
  0
LINE
 8
COMPONENT0
10
-37.686741136474
20
40.8941233608548
30
0.0
11
-27.4631995316441
21
32.2318505451134
31
0.0
  0
LINE
 8
COMPONENT0
10
-27.4631995316441
20
32.2318505451134
30
0.0
11
-15.543485114388
21
26.0445357605692
31
0.0
  0
LINE
 8
COMPONENT0
10
-15.543485114388
20
26.0445357605692
30
0.0
11
-1.92755023804377
21
22.3321604779648
31
0.0
  0
LINE
 8
COMPONENT0
10
-1.92755023804377
20
22.3321604779648
30
0.0
11
13.3846527440505
21
21.0947061680427
31
0.0
  0
LINE
 8
COMPONENT0
10
13.3846527440505
20
21.0947061680427
30
0.0
11
37.0082564351627
21
23.4385624089364
31
0.0
  0
LINE
 8
COMPONENT0
10
37.0082564351627
20
23.4385624089364
30
0.0
11
57.6711996114619
21
29.4832442933463
31
0.0
  0
LINE
 8
COMPONENT0
10
57.6711996114619
20
29.4832442933463
30
0.0
11
57.6711996114619
21
74.5099562894609
31
0.0
  0
LINE
 8
COMPONENT0
10
57.6711996114619
20
74.5099562894609
30
0.0
11
8.45021855269548
21
74.5099562894609
31
0.0
  0
LINE
 8
COMPONENT0
10
8.45021855269548
20
74.5099562894609
30
0.0
11
8.45021855269548
21
95.9747450218553
31
0.0
  0
LINE
 8
COMPONENT0
10
8.45021855269548
20
95.9747450218553
30
0.0
11
81.8499271491015
21
95.9747450218553
31
0.0
  0
LINE
 8
COMPONENT0
10
81.8499271491015
20
95.9747450218553
30
0.0
11
81.8499271491015
21
17.1471588149587
31
0.0
 0
ENDSEC
 0
EOF
