 0
SECTION
 2
ENTITIES
  0
LINE
 8
COMPONENT0
10
60.6318601262749
20
13.0484701311316
30
-1.00185334963068e-29
11
59.6372706462828
21
-3.30459458522279
31
-1.00185334963068e-29
  0
LINE
 8
COMPONENT0
10
59.6372706462828
20
-3.30459458522279
30
-1.00185334963068e-29
11
56.6534923240361
21
-17.3291633592062
31
-1.00185334963068e-29
  0
LINE
 8
COMPONENT0
10
56.6534923240361
20
-17.3291633592062
30
-1.00185334963068e-29
11
51.6805103361288
21
-29.0252844992397
31
-1.00185334963068e-29
  0
LINE
 8
COMPONENT0
10
51.6805103361288
20
-29.0252844992397
30
-1.00185334963068e-29
11
44.7183098591549
21
-38.3930063137445
31
-1.00185334963068e-29
  0
LINE
 8
COMPONENT0
10
44.7183098591549
20
-38.3930063137445
30
-1.00185334963068e-29
11
35.6898302408953
21
-45.5710893454049
31
-1.00185334963068e-29
  0
LINE
 8
COMPONENT0
10
35.6898302408953
20
-45.5710893454049
30
-1.00185334963068e-29
11
24.5179905940052
21
-50.698272284146
31
-1.00185334963068e-29
  0
LINE
 8
COMPONENT0
10
24.5179905940052
20
-50.698272284146
30
-1.00185334963068e-29
11
11.2027457423902
21
-53.7745706592503
31
-1.00185334963068e-29
  0
LINE
 8
COMPONENT0
10
11.2027457423902
20
-53.7745706592503
30
-1.00185334963068e-29
11
-4.25594949004372
21
-54.8
31
-1.00185334963068e-29
  0
LINE
 8
COMPONENT0
10
-4.25594949004372
20
-54.8
30
-1.00185334963068e-29
11
-25.6590577950461
21
-53.2579893152016
31
-1.00185334963068e-29
  0
LINE
 8
COMPONENT0
10
-25.6590577950461
20
-53.2579893152016
30
-1.00185334963068e-29
11
-46.1986401165614
21
-48.878678970374
31
-1.00185334963068e-29
  0
LINE
 8
COMPONENT0
10
-46.1986401165614
20
-48.878678970374
30
-1.00185334963068e-29
11
-46.1986401165614
21
-25.1933948518698
31
-1.00185334963068e-29
  0
LINE
 8
COMPONENT0
10
-46.1986401165614
20
-25.1933948518698
30
-1.00185334963068e-29
11
-44.9650315687227
21
-25.1933948518698
31
-1.00185334963068e-29
  0
LINE
 8
COMPONENT0
10
-44.9650315687227
20
-25.1933948518698
30
-1.00185334963068e-29
11
-26.9543467702768
21
-30.6829528897523
31
-1.00185334963068e-29
  0
LINE
 8
COMPONENT0
10
-26.9543467702768
20
-30.6829528897523
30
-1.00185334963068e-29
11
-2.28217581350171
21
-33.952015541525
31
-1.00185334963068e-29
  0
LINE
 8
COMPONENT0
10
-2.28217581350171
20
-33.952015541525
30
-1.00185334963068e-29
11
17.3322000971345
21
-31.1147158814959
31
-1.00185334963068e-29
  0
LINE
 8
COMPONENT0
10
17.3322000971345
20
-31.1147158814959
30
-1.00185334963068e-29
11
29.4215638659543
21
-23.2196211753278
31
-1.00185334963068e-29
  0
LINE
 8
COMPONENT0
10
29.4215638659543
20
-23.2196211753278
30
-1.00185334963068e-29
11
35.5896066051481
21
-11.6237008256435
31
-1.00185334963068e-29
  0
LINE
 8
COMPONENT0
10
35.5896066051481
20
-11.6237008256435
30
-1.00185334963068e-29
11
37.4400194269063
21
3.54968431277318
31
-1.00185334963068e-29
  0
LINE
 8
COMPONENT0
10
37.4400194269063
20
3.54968431277318
30
-1.00185334963068e-29
11
37.4400194269063
21
16.1324915007285
31
-1.00185334963068e-29
  0
LINE
 8
COMPONENT0
10
37.4400194269063
20
16.1324915007285
30
-1.00185334963068e-29
11
17.3938805245265
21
3.61136474016512
31
-1.00185334963068e-29
  0
LINE
 8
COMPONENT0
10
17.3938805245265
20
3.61136474016512
30
-1.00185334963068e-29
11
6.52271272604647
21
0.511918116704293
31
-1.00185334963068e-29
  0
LINE
 8
COMPONENT0
10
6.52271272604647
20
0.511918116704293
30
-1.00185334963068e-29
11
-6.96988829528898
21
-0.521223895094716
31
-1.00185334963068e-29
  0
LINE
 8
COMPONENT0
10
-6.96988829528898
20
-0.521223895094716
30
-1.00185334963068e-29
11
-18.6699230424289
21
0.592870442389043
31
-1.00185334963068e-29
  0
LINE
 8
COMPONENT0
10
-18.6699230424289
20
0.592870442389043
30
-1.00185334963068e-29
11
-29.0977550337997
21
3.93516463121781
31
-1.00185334963068e-29
  0
LINE
 8
COMPONENT0
10
-29.0977550337997
20
3.93516463121781
30
-1.00185334963068e-29
11
-38.2534215043852
21
9.50567543595782
31
-1.00185334963068e-29
  0
LINE
 8
COMPONENT0
10
-38.2534215043852
20
9.50567543595782
30
-1.00185334963068e-29
11
-46.1369596891695
21
17.3044196211753
31
-1.00185334963068e-29
  0
LINE
 8
COMPONENT0
10
-46.1369596891695
20
17.3044196211753
30
-1.00185334963068e-29
11
-52.4784990125863
21
27.1308920629167
31
-1.00185334963068e-29
  0
LINE
 8
COMPONENT0
10
-52.4784990125863
20
27.1308920629167
30
-1.00185334963068e-29
11
-57.0081531344947
21
38.7846101076294
31
-1.00185334963068e-29
  0
LINE
 8
COMPONENT0
10
-57.0081531344947
20
38.7846101076294
30
-1.00185334963068e-29
11
-59.7259356430169
21
52.2656199902224
31
-1.00185334963068e-29
  0
LINE
 8
COMPONENT0
10
-59.7259356430169
20
52.2656199902224
30
-1.00185334963068e-29
11
-60.6318601262749
21
67.5739679456047
31
-1.00185334963068e-29
  0
LINE
 8
COMPONENT0
10
-60.6318601262749
20
67.5739679456047
30
-1.00185334963068e-29
11
-59.3828377362419
21
84.119750122841
31
-1.00185334963068e-29
  0
LINE
 8
COMPONENT0
10
-59.3828377362419
20
84.119750122841
30
-1.00185334963068e-29
11
-55.6357455075279
21
98.2291403593977
31
-1.00185334963068e-29
  0
LINE
 8
COMPONENT0
10
-55.6357455075279
20
98.2291403593977
30
-1.00185334963068e-29
11
-49.7298490553009
21
110.241406417484
31
-1.00185334963068e-29
  0
LINE
 8
COMPONENT0
10
-49.7298490553009
20
110.241406417484
30
-1.00185334963068e-29
11
-42.0043710539097
21
120.495774647887
31
-1.00185334963068e-29
  0
LINE
 8
COMPONENT0
10
-42.0043710539097
20
120.495774647887
30
-1.00185334963068e-29
11
-33.1223932741451
21
128.282934253131
31
-1.00185334963068e-29
  0
LINE
 8
COMPONENT0
10
-33.1223932741451
20
128.282934253131
30
-1.00185334963068e-29
11
-22.5133559980573
21
134.127149101506
31
-1.00185334963068e-29
  0
LINE
 8
COMPONENT0
10
-22.5133559980573
20
134.127149101506
30
-1.00185334963068e-29
11
-11.0716371874372
21
137.781721953827
31
-1.00185334963068e-29
  0
LINE
 8
COMPONENT0
10
-11.0716371874372
20
137.781721953827
30
-1.00185334963068e-29
11
0.308402136959685
21
138.999902865469
31
-1.00185334963068e-29
  0
LINE
 8
COMPONENT0
10
0.308402136959685
20
138.999902865469
30
-1.00185334963068e-29
11
20.3545410393395
21
136.594366197183
31
-1.00185334963068e-29
  0
LINE
 8
COMPONENT0
10
20.3545410393395
20
136.594366197183
30
-1.00185334963068e-29
11
37.4400194269063
21
129.254395337542
31
-1.00185334963068e-29
  0
LINE
 8
COMPONENT0
10
37.4400194269063
20
129.254395337542
30
-1.00185334963068e-29
11
38.9203496843128
21
135.175716367169
31
-1.00185334963068e-29
  0
LINE
 8
COMPONENT0
10
38.9203496843128
20
135.175716367169
30
-1.00185334963068e-29
11
60.6318601262749
21
135.175716367169
31
-1.00185334963068e-29
  0
LINE
 8
COMPONENT0
10
60.6318601262749
20
135.175716367169
30
-1.00185334963068e-29
11
60.6318601262749
21
13.0484701311316
31
-1.00185334963068e-29
  0
LINE
 8
COMPONENT0
10
37.4400194269063
20
35.2534239922292
30
-1.00185334963068e-29
11
37.4400194269063
21
110.38018455561
31
-1.00185334963068e-29
  0
LINE
 8
COMPONENT0
10
37.4400194269063
20
110.38018455561
30
-1.00185334963068e-29
11
20.2311801845556
21
116.363186012627
31
-1.00185334963068e-29
  0
LINE
 8
COMPONENT0
10
20.2311801845556
20
116.363186012627
30
-1.00185334963068e-29
11
4.37931034482758
21
118.151918406994
31
-1.00185334963068e-29
  0
LINE
 8
COMPONENT0
10
4.37931034482758
20
118.151918406994
30
-1.00185334963068e-29
11
-12.7061793367628
21
114.94455218248
31
-1.00185334963068e-29
  0
LINE
 8
COMPONENT0
10
-12.7061793367628
20
114.94455218248
30
-1.00185334963068e-29
11
-25.7207382224381
21
105.322389509471
31
-1.00185334963068e-29
  0
LINE
 8
COMPONENT0
10
-25.7207382224381
20
105.322389509471
30
-1.00185334963068e-29
11
-33.9550891614991
21
89.5938955832246
31
-1.00185334963068e-29
  0
LINE
 8
COMPONENT0
10
-33.9550891614991
20
89.5938955832246
30
-1.00185334963068e-29
11
-36.699854298203
21
68.0674113647402
31
-1.00185334963068e-29
  0
LINE
 8
COMPONENT0
10
-36.699854298203
20
68.0674113647402
30
-1.00185334963068e-29
11
-34.6644100765397
21
47.6820164647595
31
-1.00185334963068e-29
  0
LINE
 8
COMPONENT0
10
-34.6644100765397
20
47.6820164647595
30
-1.00185334963068e-29
11
-28.5580378824672
21
32.9095677513356
31
-1.00185334963068e-29
  0
LINE
 8
COMPONENT0
10
-28.5580378824672
20
32.9095677513356
30
-1.00185334963068e-29
11
-23.8163529090826
21
27.6744245354095
31
-1.00185334963068e-29
  0
LINE
 8
COMPONENT0
10
-23.8163529090826
20
27.6744245354095
30
-1.00185334963068e-29
11
-17.7331369927116
21
23.9350505071105
31
-1.00185334963068e-29
  0
LINE
 8
COMPONENT0
10
-17.7331369927116
20
23.9350505071105
30
-1.00185334963068e-29
11
-1.54201068479845
21
20.9435648372996
31
-1.00185334963068e-29
  0
LINE
 8
COMPONENT0
10
-1.54201068479845
20
20.9435648372996
30
-1.00185334963068e-29
11
18.7508499271491
21
24.8294317629917
31
-1.00185334963068e-29
  0
LINE
 8
COMPONENT0
10
18.7508499271491
20
24.8294317629917
30
-1.00185334963068e-29
11
37.4400194269063
21
35.2534239922292
31
-1.00185334963068e-29
 0
ENDSEC
 0
EOF
