 0
SECTION
 2
ENTITIES
  0
LINE
 8
COMPONENT0
10
100.539096648859
20
0.0
30
0.0
11
77.34725594949
21
0.0
31
0.0
  0
LINE
 8
COMPONENT0
10
77.34725594949
20
0.0
30
0.0
11
77.34725594949
21
78.4575036425449
31
0.0
  0
LINE
 8
COMPONENT0
10
77.34725594949
20
78.4575036425449
30
0.0
11
76.5454103933948
21
95.6046624575036
31
0.0
  0
LINE
 8
COMPONENT0
10
76.5454103933948
20
95.6046624575036
30
0.0
11
73.1529868868383
21
108.804273919378
31
0.0
  0
LINE
 8
COMPONENT0
10
73.1529868868383
20
108.804273919378
30
0.0
11
65.0111704711025
21
116.82272948033
31
0.0
  0
LINE
 8
COMPONENT0
10
65.0111704711025
20
116.82272948033
30
0.0
11
49.7144244779019
21
119.536668285576
31
0.0
  0
LINE
 8
COMPONENT0
10
49.7144244779019
20
119.536668285576
30
0.0
11
39.9689169499757
21
118.318484550428
31
0.0
  0
LINE
 8
COMPONENT0
10
39.9689169499757
20
118.318484550428
30
0.0
11
30.2234094220495
21
114.663914521612
31
0.0
  0
LINE
 8
COMPONENT0
10
30.2234094220495
20
114.663914521612
30
0.0
11
10.7323943661972
21
102.266148615833
31
0.0
  0
LINE
 8
COMPONENT0
10
10.7323943661972
20
102.266148615833
30
0.0
11
11.3491986401165
21
95.6663428848956
31
0.0
  0
LINE
 8
COMPONENT0
10
11.3491986401165
20
95.6663428848956
30
0.0
11
11.5959203496843
21
88.2030111704711
31
0.0
  0
LINE
 8
COMPONENT0
10
11.5959203496843
20
88.2030111704711
30
0.0
11
11.5959203496843
21
0.0
31
0.0
  0
LINE
 8
COMPONENT0
10
11.5959203496843
20
0.0
30
0.0
11
-11.5959203496843
21
0.0
31
0.0
  0
LINE
 8
COMPONENT0
10
-11.5959203496843
20
0.0
30
0.0
11
-11.5959203496843
21
78.4575036425449
31
0.0
  0
LINE
 8
COMPONENT0
10
-11.5959203496843
20
78.4575036425449
30
0.0
11
-12.3977659057795
21
95.7897037396795
31
0.0
  0
LINE
 8
COMPONENT0
10
-12.3977659057795
20
95.7897037396795
30
0.0
11
-15.7901894123361
21
108.927634774162
31
0.0
  0
LINE
 8
COMPONENT0
10
-15.7901894123361
20
108.927634774162
30
0.0
11
-23.9320058280719
21
116.884409907722
31
0.0
  0
LINE
 8
COMPONENT0
10
-23.9320058280719
20
116.884409907722
30
0.0
11
-39.2287518212725
21
119.536668285576
31
0.0
  0
LINE
 8
COMPONENT0
10
-39.2287518212725
20
119.536668285576
30
0.0
11
-48.7429572758946
21
118.364744870972
31
0.0
  0
LINE
 8
COMPONENT0
10
-48.7429572758946
20
118.364744870972
30
0.0
11
-58.2880038853813
21
114.848955803788
31
0.0
  0
LINE
 8
COMPONENT0
10
-58.2880038853813
20
114.848955803788
30
0.0
11
-77.34725594949
21
102.882952889752
31
0.0
  0
LINE
 8
COMPONENT0
10
-77.34725594949
20
102.882952889752
30
0.0
11
-77.34725594949
21
0.0
31
0.0
  0
LINE
 8
COMPONENT0
10
-77.34725594949
20
0.0
30
0.0
11
-100.539096648859
21
0.0
31
0.0
  0
LINE
 8
COMPONENT0
10
-100.539096648859
20
0.0
30
0.0
11
-100.539096648859
21
137.794074793589
31
0.0
  0
LINE
 8
COMPONENT0
10
-100.539096648859
20
137.794074793589
30
0.0
11
-77.34725594949
21
137.794074793589
31
0.0
  0
LINE
 8
COMPONENT0
10
-77.34725594949
20
137.794074793589
30
0.0
11
-77.34725594949
21
122.497328800389
31
0.0
  0
LINE
 8
COMPONENT0
10
-77.34725594949
20
122.497328800389
30
0.0
11
-55.6974259349199
21
136.56046624575
31
0.0
  0
LINE
 8
COMPONENT0
10
-55.6974259349199
20
136.56046624575
30
0.0
11
-44.5486910367487
21
140.353820059704
31
0.0
  0
LINE
 8
COMPONENT0
10
-44.5486910367487
20
140.353820059704
30
0.0
11
-32.6906265177271
21
141.618261291889
31
0.0
  0
LINE
 8
COMPONENT0
10
-32.6906265177271
20
141.618261291889
30
0.0
11
-19.6914707978644
21
140.137936681495
31
0.0
  0
LINE
 8
COMPONENT0
10
-19.6914707978644
20
140.137936681495
30
0.0
11
-8.82030111704712
21
135.696940262263
31
0.0
  0
LINE
 8
COMPONENT0
10
-8.82030111704712
20
135.696940262263
30
0.0
11
-0.262136169403953
21
128.634537914067
31
0.0
  0
LINE
 8
COMPONENT0
10
-0.262136169403953
20
128.634537914067
30
0.0
11
5.79796017484215
21
119.289946576008
31
0.0
  0
LINE
 8
COMPONENT0
10
5.79796017484215
20
119.289946576008
30
0.0
11
19.2442952286219
21
129.482646614212
31
0.0
  0
LINE
 8
COMPONENT0
10
19.2442952286219
20
129.482646614212
30
0.0
11
31.4570179698883
21
136.375424963575
31
0.0
  0
LINE
 8
COMPONENT0
10
31.4570179698883
20
136.375424963575
30
0.0
11
43.4538573329457
21
140.30755973916
31
0.0
  0
LINE
 8
COMPONENT0
10
43.4538573329457
20
140.30755973916
30
0.0
11
56.2525497814473
21
141.618261291889
31
0.0
  0
LINE
 8
COMPONENT0
10
56.2525497814473
20
141.618261291889
30
0.0
11
66.8577529718252
21
140.758597393879
31
0.0
  0
LINE
 8
COMPONENT0
10
66.8577529718252
20
140.758597393879
30
0.0
11
75.9748796163803
21
138.179596288161
31
0.0
  0
LINE
 8
COMPONENT0
10
75.9748796163803
20
138.179596288161
30
0.0
11
83.6039593619244
21
133.881243857207
31
0.0
  0
LINE
 8
COMPONENT0
10
83.6039593619244
20
133.881243857207
30
0.0
11
89.7450218552695
21
127.863525983487
31
0.0
  0
LINE
 8
COMPONENT0
10
89.7450218552695
20
127.863525983487
30
0.0
11
97.8405911268222
21
111.379445880521
31
0.0
  0
LINE
 8
COMPONENT0
10
97.8405911268222
20
111.379445880521
30
0.0
11
100.539096648859
21
89.4366197183098
31
0.0
  0
LINE
 8
COMPONENT0
10
100.539096648859
20
89.4366197183098
30
0.0
11
100.539096648859
21
0.0
31
0.0
 0
ENDSEC
 0
EOF
