 0
SECTION
 2
ENTITIES
  0
LINE
 8
COMPONENT0
10
62.1121903836814
20
166.413793103448
30
0.0
11
72.0273266162844
21
152.689903655754
31
0.0
  0
LINE
 8
COMPONENT0
10
72.0273266162844
20
152.689903655754
30
0.0
11
79.321029626032
21
136.190383681399
31
0.0
  0
LINE
 8
COMPONENT0
10
79.321029626032
20
136.190383681399
30
0.0
11
83.8082882481446
21
117.100297050606
31
0.0
  0
LINE
 8
COMPONENT0
10
83.8082882481446
20
117.100297050606
30
0.0
11
85.30403108305
21
95.6046624575036
31
0.0
  0
LINE
 8
COMPONENT0
10
85.30403108305
20
95.6046624575036
30
0.0
11
83.7774461521113
21
74.0936068163849
31
0.0
  0
LINE
 8
COMPONENT0
10
83.7774461521113
20
74.0936068163849
30
0.0
11
79.1976687712482
21
54.9572608062166
31
0.0
  0
LINE
 8
COMPONENT0
10
79.1976687712482
20
54.9572608062166
30
0.0
11
71.8731255478046
21
38.5039992700681
31
0.0
  0
LINE
 8
COMPONENT0
10
71.8731255478046
20
38.5039992700681
30
0.0
11
62.1121903836814
21
25.0422535211268
31
0.0
  0
LINE
 8
COMPONENT0
10
62.1121903836814
20
25.0422535211268
30
0.0
11
49.7298521140989
21
14.1248101669356
31
0.0
  0
LINE
 8
COMPONENT0
10
49.7298521140989
20
14.1248101669356
30
0.0
11
35.2812044681884
21
6.29140359397766
31
0.0
  0
LINE
 8
COMPONENT0
10
35.2812044681884
20
6.29140359397766
30
0.0
11
18.7045933712797
21
1.57284304561865
31
0.0
  0
LINE
 8
COMPONENT0
10
18.7045933712797
20
1.57284304561865
30
0.0
11
-0.0616804273919393
21
0.0
31
0.0
  0
LINE
 8
COMPONENT0
10
-0.0616804273919393
20
0.0
30
0.0
11
-18.5503927733841
21
1.60368311225702
31
0.0
  0
LINE
 8
COMPONENT0
10
-18.5503927733841
20
1.60368311225702
30
0.0
11
-35.2812044681884
21
6.41476444876153
31
0.0
  0
LINE
 8
COMPONENT0
10
-35.2812044681884
20
6.41476444876153
30
0.0
11
-49.9457312570491
21
14.2790117648228
31
0.0
  0
LINE
 8
COMPONENT0
10
-49.9457312570491
20
14.2790117648228
30
0.0
11
-62.2355512384653
21
25.0422535211268
31
0.0
  0
LINE
 8
COMPONENT0
10
-62.2355512384653
20
25.0422535211268
30
0.0
11
-72.0581655358736
21
38.6427807022843
31
0.0
  0
LINE
 8
COMPONENT0
10
-72.0581655358736
20
38.6427807022843
30
0.0
11
-79.321029626032
21
55.0189412336085
31
0.0
  0
LINE
 8
COMPONENT0
10
-79.321029626032
20
55.0189412336085
30
0.0
11
-83.80828815991
21
74.0473483781782
31
0.0
  0
LINE
 8
COMPONENT0
10
-83.80828815991
20
74.0473483781782
30
0.0
11
-85.30403108305
21
95.6046624575036
31
0.0
  0
LINE
 8
COMPONENT0
10
-85.30403108305
20
95.6046624575036
30
0.0
11
-83.8237082373465
21
116.899835661582
31
0.0
  0
LINE
 8
COMPONENT0
10
-83.8237082373465
20
116.899835661582
30
0.0
11
-79.382710053424
21
135.881981544439
31
0.0
  0
LINE
 8
COMPONENT0
10
-79.382710053424
20
135.881981544439
30
0.0
11
-72.1044264446479
21
152.427765604013
31
0.0
  0
LINE
 8
COMPONENT0
10
-72.1044264446479
20
152.427765604013
30
0.0
11
-62.1121903836814
21
166.413793103448
31
0.0
  0
LINE
 8
COMPONENT0
10
-62.1121903836814
20
166.413793103448
30
0.0
11
-49.9457321982178
21
177.084510806928
31
0.0
  0
LINE
 8
COMPONENT0
10
-49.9457321982178
20
177.084510806928
30
0.0
11
-35.1578436134046
21
184.91792132103
31
0.0
  0
LINE
 8
COMPONENT0
10
-35.1578436134046
20
184.91792132103
30
0.0
11
-18.334510806928
21
189.729004069287
31
0.0
  0
LINE
 8
COMPONENT0
10
-18.334510806928
20
189.729004069287
30
0.0
11
-0.0616804273919393
21
191.332685769791
31
0.0
  0
LINE
 8
COMPONENT0
10
-0.0616804273919393
20
191.332685769791
30
0.0
11
18.6737531575837
21
189.713580197765
31
0.0
  0
LINE
 8
COMPONENT0
10
18.6737531575837
20
189.713580197765
30
0.0
11
35.4045653229723
21
184.856240893638
31
0.0
  0
LINE
 8
COMPONENT0
10
35.4045653229723
20
184.856240893638
30
0.0
11
49.9457298452962
21
177.0074159197
31
0.0
  0
LINE
 8
COMPONENT0
10
49.9457298452962
20
177.0074159197
30
0.0
11
62.1121903836814
21
166.413793103448
31
0.0
  0
LINE
 8
COMPONENT0
10
59.8916949975716
20
95.6046624575036
30
0.0
11
58.8893958170938
21
112.47044561626
31
0.0
  0
LINE
 8
COMPONENT0
10
58.8893958170938
20
112.47044561626
30
0.0
11
55.8824879228056
21
127.29300367699
31
0.0
  0
LINE
 8
COMPONENT0
10
55.8824879228056
20
127.29300367699
30
0.0
11
50.8709557854243
21
140.072386756923
31
0.0
  0
LINE
 8
COMPONENT0
10
50.8709557854243
20
140.072386756923
30
0.0
11
43.8547838756678
21
150.808644973288
31
0.0
  0
LINE
 8
COMPONENT0
10
43.8547838756678
20
150.808644973288
30
0.0
11
35.1038626512895
21
159.309004284792
31
0.0
  0
LINE
 8
COMPONENT0
10
35.1038626512895
20
159.309004284792
30
0.0
11
24.8880656290078
21
165.38066853268
31
0.0
  0
LINE
 8
COMPONENT0
10
24.8880656290078
20
165.38066853268
30
0.0
11
13.207351867987
21
169.023654657987
31
0.0
  0
LINE
 8
COMPONENT0
10
13.207351867987
20
169.023654657987
30
0.0
11
0.0616804273919393
21
170.237979601748
31
0.0
  0
LINE
 8
COMPONENT0
10
0.0616804273919393
20
170.237979601748
30
0.0
11
-13.1880790285256
21
169.023654657987
31
0.0
  0
LINE
 8
COMPONENT0
10
-13.1880790285256
20
169.023654657987
30
0.0
11
-24.9343283024733
21
165.38066853268
31
0.0
  0
LINE
 8
COMPONENT0
10
-24.9343283024733
20
165.38066853268
30
0.0
11
-35.1771093941013
21
159.309004284792
31
0.0
  0
LINE
 8
COMPONENT0
10
-35.1771093941013
20
159.309004284792
30
0.0
11
-43.9164643030597
21
150.808644973288
31
0.0
  0
LINE
 8
COMPONENT0
10
-43.9164643030597
20
150.808644973288
30
0.0
11
-50.9056504964249
21
140.072386756923
31
0.0
  0
LINE
 8
COMPONENT0
10
-50.9056504964249
20
140.072386756923
30
0.0
11
-55.8979075590692
21
127.29300367699
31
0.0
  0
LINE
 8
COMPONENT0
10
-55.8979075590692
20
127.29300367699
30
0.0
11
-58.8932506673367
21
112.47044561626
31
0.0
  0
LINE
 8
COMPONENT0
10
-58.8932506673367
20
112.47044561626
30
0.0
11
-59.8916949975716
21
95.6046624575036
31
0.0
  0
LINE
 8
COMPONENT0
10
-59.8916949975716
20
95.6046624575036
30
0.0
11
-58.8739756220113
21
78.5923886366294
31
0.0
  0
LINE
 8
COMPONENT0
10
-58.8739756220113
20
78.5923886366294
30
0.0
11
-55.8208072601214
21
63.7004406833139
31
0.0
  0
LINE
 8
COMPONENT0
10
-55.8208072601214
20
63.7004406833139
30
0.0
11
-50.7321745590888
21
50.9287677744513
31
0.0
  0
LINE
 8
COMPONENT0
10
-50.7321745590888
20
50.9287677744513
30
0.0
11
-43.6080621661
21
40.2773190869354
31
0.0
  0
LINE
 8
COMPONENT0
10
-43.6080621661
20
40.2773190869354
30
0.0
11
-34.7723314128726
21
31.8848986704411
31
0.0
  0
LINE
 8
COMPONENT0
10
-34.7723314128726
20
31.8848986704411
30
0.0
11
-24.5488242195207
21
25.8903351626737
31
0.0
  0
LINE
 8
COMPONENT0
10
-24.5488242195207
20
25.8903351626737
30
0.0
11
-12.9375003510855
21
22.2936103873139
31
0.0
  0
LINE
 8
COMPONENT0
10
-12.9375003510855
20
22.2936103873139
30
0.0
11
0.0616804273919393
21
21.0947061680427
31
0.0
  0
LINE
 8
COMPONENT0
10
0.0616804273919393
20
21.0947061680427
30
0.0
11
13.0570058262192
21
22.2936103873139
31
0.0
  0
LINE
 8
COMPONENT0
10
13.0570058262192
20
22.2936103873139
30
0.0
11
24.656764026288
21
25.8903351626737
31
0.0
  0
LINE
 8
COMPONENT0
10
24.656764026288
20
25.8903351626737
30
0.0
11
34.8609959684338
21
31.8848986704411
31
0.0
  0
LINE
 8
COMPONENT0
10
34.8609959684338
20
31.8848986704411
30
0.0
11
43.669742593492
21
40.2773190869354
31
0.0
  0
LINE
 8
COMPONENT0
10
43.669742593492
20
40.2773190869354
30
0.0
11
50.7668700642005
21
50.9287677744513
31
0.0
  0
LINE
 8
COMPONENT0
10
50.7668700642005
20
50.9287677744513
30
0.0
11
55.8362276022616
21
63.7004406833139
31
0.0
  0
LINE
 8
COMPONENT0
10
55.8362276022616
20
63.7004406833139
30
0.0
11
58.8778307369579
21
78.5923886366294
31
0.0
  0
LINE
 8
COMPONENT0
10
58.8778307369579
20
78.5923886366294
30
0.0
11
59.8916949975716
21
95.6046624575036
31
0.0
 0
ENDSEC
 0
EOF
