 0
SECTION
 2
ENTITIES
  0
LINE
 8
COMPONENT0
10
63.5925206410879
20
72.6595434677028
30
0.0
11
62.5131212793084
21
56.7074044631951
31
0.0
  0
LINE
 8
COMPONENT0
10
62.5131212793084
20
56.7074044631951
30
0.0
11
59.2749123705308
21
42.5286368045372
31
0.0
  0
LINE
 8
COMPONENT0
10
59.2749123705308
20
42.5286368045372
30
0.0
11
53.877877679596
21
30.1231903744994
31
0.0
  0
LINE
 8
COMPONENT0
10
53.877877679596
20
30.1231903744994
30
0.0
11
46.3220009713453
21
19.4910150558524
31
0.0
  0
LINE
 8
COMPONENT0
10
46.3220009713453
20
19.4910150558524
30
0.0
11
36.9542758259859
21
10.9636685389984
31
0.0
  0
LINE
 8
COMPONENT0
10
36.9542758259859
20
10.9636685389984
30
0.0
11
26.1216770003524
21
4.87272938181325
31
0.0
  0
LINE
 8
COMPONENT0
10
26.1216770003524
20
4.87272938181325
30
0.0
11
13.824160024227
21
1.21817929768458
31
0.0
  0
LINE
 8
COMPONENT0
10
13.824160024227
20
1.21817929768458
30
0.0
11
0.0616804273919393
21
0.0
31
0.0
  0
LINE
 8
COMPONENT0
10
0.0616804273919393
20
0.0
30
0.0
11
-13.8048840083214
21
1.21817929768458
31
0.0
  0
LINE
 8
COMPONENT0
10
-13.8048840083214
20
1.21817929768458
30
0.0
11
-26.167936850312
21
4.87272938181325
31
0.0
  0
LINE
 8
COMPONENT0
10
-26.167936850312
20
4.87272938181325
30
0.0
11
-37.0275215099829
21
10.9636685389984
31
0.0
  0
LINE
 8
COMPONENT0
10
-37.0275215099829
20
10.9636685389984
30
0.0
11
-46.3836813987372
21
19.4910150558524
31
0.0
  0
LINE
 8
COMPONENT0
10
-46.3836813987372
20
19.4910150558524
30
0.0
11
-53.9125727876521
21
30.1231903744994
31
0.0
  0
LINE
 8
COMPONENT0
10
-53.9125727876521
20
30.1231903744994
30
0.0
11
-59.2903323597327
21
42.5286368045372
31
0.0
  0
LINE
 8
COMPONENT0
10
-59.2903323597327
20
42.5286368045372
30
0.0
11
-62.5169762619031
21
56.7074044631951
31
0.0
  0
LINE
 8
COMPONENT0
10
-62.5169762619031
20
56.7074044631951
30
0.0
11
-63.5925206410879
21
72.6595434677028
31
0.0
  0
LINE
 8
COMPONENT0
10
-63.5925206410879
20
72.6595434677028
30
0.0
11
-62.5169762619031
21
88.6155378518607
31
0.0
  0
LINE
 8
COMPONENT0
10
-62.5169762619031
20
88.6155378518607
30
0.0
11
-59.2903323597327
21
102.805871178885
31
0.0
  0
LINE
 8
COMPONENT0
10
-59.2903323597327
20
102.805871178885
30
0.0
11
-53.9125727876521
21
115.230592860129
31
0.0
  0
LINE
 8
COMPONENT0
10
-53.9125727876521
20
115.230592860129
30
0.0
11
-46.3836813987372
21
125.889752306945
31
0.0
  0
LINE
 8
COMPONENT0
10
-46.3836813987372
20
125.889752306945
30
0.0
11
-37.0275215099829
21
134.444086227676
31
0.0
  0
LINE
 8
COMPONENT0
10
-37.0275215099829
20
134.444086227676
30
0.0
11
-26.167936850312
21
140.5543002721
31
0.0
  0
LINE
 8
COMPONENT0
10
-26.167936850312
20
140.5543002721
30
0.0
11
-13.8048840083214
21
144.220414204757
31
0.0
  0
LINE
 8
COMPONENT0
10
-13.8048840083214
20
144.220414204757
30
0.0
11
0.0616804273919393
21
145.442447790189
31
0.0
  0
LINE
 8
COMPONENT0
10
0.0616804273919393
20
145.442447790189
30
0.0
11
13.824160024227
21
144.220414204757
31
0.0
  0
LINE
 8
COMPONENT0
10
13.824160024227
20
144.220414204757
30
0.0
11
26.1216770003524
21
140.5543002721
31
0.0
  0
LINE
 8
COMPONENT0
10
26.1216770003524
20
140.5543002721
30
0.0
11
36.9542758259859
21
134.444086227676
31
0.0
  0
LINE
 8
COMPONENT0
10
36.9542758259859
20
134.444086227676
30
0.0
11
46.3220009713453
21
125.889752306945
31
0.0
  0
LINE
 8
COMPONENT0
10
46.3220009713453
20
125.889752306945
30
0.0
11
53.877877679596
21
115.230592860129
31
0.0
  0
LINE
 8
COMPONENT0
10
53.877877679596
20
115.230592860129
30
0.0
11
59.2749123705308
21
102.805871178885
31
0.0
  0
LINE
 8
COMPONENT0
10
59.2749123705308
20
102.805871178885
30
0.0
11
62.5131212793084
21
88.6155378518607
31
0.0
  0
LINE
 8
COMPONENT0
10
62.5131212793084
20
88.6155378518607
30
0.0
11
63.5925206410879
21
72.6595434677028
31
0.0
  0
LINE
 8
COMPONENT0
10
39.660514813016
20
72.6595434677028
30
0.0
11
37.0391088840509
21
95.9901839520759
31
0.0
  0
LINE
 8
COMPONENT0
10
37.0391088840509
20
95.9901839520759
30
0.0
11
33.7623377082532
21
105.076458147743
31
0.0
  0
LINE
 8
COMPONENT0
10
33.7623377082532
20
105.076458147743
30
0.0
11
29.1748421563866
21
112.443419135503
31
0.0
  0
LINE
 8
COMPONENT0
10
29.1748421563866
20
112.443419135503
30
0.0
11
23.4231373609531
21
118.137311588971
31
0.0
  0
LINE
 8
COMPONENT0
10
23.4231373609531
20
118.137311588971
30
0.0
11
16.6537266898468
21
122.204362770144
31
0.0
  0
LINE
 8
COMPONENT0
10
16.6537266898468
20
122.204362770144
30
0.0
11
0.0616804273919393
21
125.457989315202
31
0.0
  0
LINE
 8
COMPONENT0
10
0.0616804273919393
20
125.457989315202
30
0.0
11
-16.6999865398064
21
122.204362770144
31
0.0
  0
LINE
 8
COMPONENT0
10
-16.6999865398064
20
122.204362770144
30
0.0
11
-23.4963819861354
21
118.137311588971
31
0.0
  0
LINE
 8
COMPONENT0
10
-23.4963819861354
20
118.137311588971
30
0.0
11
-29.2365225837785
21
112.443419135503
31
0.0
  0
LINE
 8
COMPONENT0
10
-29.2365225837785
20
112.443419135503
30
0.0
11
-33.7970340074759
21
105.076458147743
31
0.0
  0
LINE
 8
COMPONENT0
10
-33.7970340074759
20
105.076458147743
30
0.0
11
-37.0545299320675
21
95.9901839520759
31
0.0
  0
LINE
 8
COMPONENT0
10
-37.0545299320675
20
95.9901839520759
30
0.0
11
-39.660514813016
21
72.6595434677028
31
0.0
  0
LINE
 8
COMPONENT0
10
-39.660514813016
20
72.6595434677028
30
0.0
11
-37.0391095899273
21
49.8840305945316
31
0.0
  0
LINE
 8
COMPONENT0
10
-37.0391095899273
20
49.8840305945316
30
0.0
11
-29.1748421563866
21
33.3691112190384
31
0.0
  0
LINE
 8
COMPONENT0
10
-29.1748421563866
20
33.3691112190384
30
0.0
11
-23.4154255428379
21
27.5133068495552
31
0.0
  0
LINE
 8
COMPONENT0
10
-23.4154255428379
20
27.5133068495552
30
0.0
11
-16.6228845938136
21
23.3306049552573
31
0.0
  0
LINE
 8
COMPONENT0
10
-16.6228845938136
20
23.3306049552573
30
0.0
11
0.0616804273919393
21
19.9844584749879
31
0.0
  0
LINE
 8
COMPONENT0
10
0.0616804273919393
20
19.9844584749879
30
0.0
11
16.576623332101
21
23.2997649768535
31
0.0
  0
LINE
 8
COMPONENT0
10
16.576623332101
20
23.2997649768535
30
0.0
11
23.3421793294335
21
27.4439166334429
31
0.0
  0
LINE
 8
COMPONENT0
10
23.3421793294335
20
27.4439166334429
30
0.0
11
29.1131617289947
21
33.2457503642545
31
0.0
  0
LINE
 8
COMPONENT0
10
29.1131617289947
20
33.2457503642545
30
0.0
11
37.0236906595401
21
49.7298281142988
31
0.0
  0
LINE
 8
COMPONENT0
10
37.0236906595401
20
49.7298281142988
30
0.0
11
39.660514813016
21
72.6595434677028
31
0.0
 0
ENDSEC
 0
EOF
