 0
SECTION
 2
ENTITIES
  0
LINE
 8
COMPONENT0
10
60.0767362797475
20
128.171928120447
30
0.0
11
59.0127545542483
21
116.406385654266
31
0.0
  0
LINE
 8
COMPONENT0
10
59.0127545542483
20
116.406385654266
30
0.0
11
55.8207867897037
21
105.535211267606
31
0.0
  0
LINE
 8
COMPONENT0
10
55.8207867897037
20
105.535211267606
30
0.0
11
50.716736128864
21
95.8051210230215
31
0.0
  0
LINE
 8
COMPONENT0
10
50.716736128864
20
95.8051210230215
30
0.0
11
43.9164643030597
21
87.4628460417678
31
0.0
  0
LINE
 8
COMPONENT0
10
43.9164643030597
20
87.4628460417678
30
0.0
11
33.5541562658887
21
79.1514018625238
31
0.0
  0
LINE
 8
COMPONENT0
10
33.5541562658887
20
79.1514018625238
30
0.0
11
21.4647887323944
21
73.2146673142302
31
0.0
  0
LINE
 8
COMPONENT0
10
21.4647887323944
20
73.2146673142302
30
0.0
11
6.81569522674249
21
69.6526160441654
31
0.0
  0
LINE
 8
COMPONENT0
10
6.81569522674249
20
69.6526160441654
30
0.0
11
-11.2258377853327
21
68.465274405051
31
0.0
  0
LINE
 8
COMPONENT0
10
-11.2258377853327
20
68.465274405051
30
0.0
11
-35.6512870325401
21
68.465274405051
31
0.0
  0
LINE
 8
COMPONENT0
10
-35.6512870325401
20
68.465274405051
30
0.0
11
-35.6512870325401
21
0.0
31
0.0
  0
LINE
 8
COMPONENT0
10
-35.6512870325401
20
0.0
30
0.0
11
-60.0767362797475
21
0.0
31
0.0
  0
LINE
 8
COMPONENT0
10
-60.0767362797475
20
0.0
30
0.0
11
-60.0767362797475
21
183.684312773191
31
0.0
  0
LINE
 8
COMPONENT0
10
-60.0767362797475
20
183.684312773191
30
0.0
11
-10.2389509470617
21
183.684312773191
31
0.0
  0
LINE
 8
COMPONENT0
10
-10.2389509470617
20
183.684312773191
30
0.0
11
17.7639630888781
21
180.908693540554
31
0.0
  0
LINE
 8
COMPONENT0
10
17.7639630888781
20
180.908693540554
30
0.0
11
28.5888809196691
21
177.346648858669
31
0.0
  0
LINE
 8
COMPONENT0
10
28.5888809196691
20
177.346648858669
30
0.0
11
38.1185041282176
21
172.21175327829
31
0.0
  0
LINE
 8
COMPONENT0
10
38.1185041282176
20
172.21175327829
30
0.0
11
47.4168323222267
21
164.316662336797
31
0.0
  0
LINE
 8
COMPONENT0
10
47.4168323222267
20
164.316662336797
30
0.0
11
54.3404565322972
21
154.69451189898
31
0.0
  0
LINE
 8
COMPONENT0
10
54.3404565322972
20
154.69451189898
30
0.0
11
58.6426748134026
21
142.821035273044
31
0.0
  0
LINE
 8
COMPONENT0
10
58.6426748134026
20
142.821035273044
30
0.0
11
60.0767362797475
21
128.171928120447
31
0.0
  0
LINE
 8
COMPONENT0
10
34.6644001942691
20
127.555123846527
30
0.0
11
31.3336571151044
21
144.085478387567
31
0.0
  0
LINE
 8
COMPONENT0
10
31.3336571151044
20
144.085478387567
30
0.0
11
27.139394640633
21
150.469408269644
31
0.0
  0
LINE
 8
COMPONENT0
10
27.139394640633
20
150.469408269644
30
0.0
11
21.2180670228266
21
155.558037882467
31
0.0
  0
LINE
 8
COMPONENT0
10
21.2180670228266
20
155.558037882467
30
0.0
11
7.71005342399222
21
161.04759592035
31
0.0
  0
LINE
 8
COMPONENT0
10
7.71005342399222
20
161.04759592035
30
0.0
11
-11.4725594949004
21
162.712967459932
31
0.0
  0
LINE
 8
COMPONENT0
10
-11.4725594949004
20
162.712967459932
30
0.0
11
-35.6512870325401
21
162.712967459932
31
0.0
  0
LINE
 8
COMPONENT0
10
-35.6512870325401
20
162.712967459932
30
0.0
11
-35.6512870325401
21
89.313258863526
31
0.0
  0
LINE
 8
COMPONENT0
10
-35.6512870325401
20
89.313258863526
30
0.0
11
-15.0500242836328
21
89.313258863526
31
0.0
  0
LINE
 8
COMPONENT0
10
-15.0500242836328
20
89.313258863526
30
0.0
11
9.00534239922291
21
91.9655172413793
31
0.0
  0
LINE
 8
COMPONENT0
10
9.00534239922291
20
91.9655172413793
30
0.0
11
17.393884289201
21
95.4041982449739
31
0.0
  0
LINE
 8
COMPONENT0
10
17.393884289201
20
95.4041982449739
30
0.0
11
24.0553666828558
21
100.415735794075
31
0.0
  0
LINE
 8
COMPONENT0
10
24.0553666828558
20
100.415735794075
30
0.0
11
32.2588635259835
21
112.875182127246
31
0.0
  0
LINE
 8
COMPONENT0
10
32.2588635259835
20
112.875182127246
30
0.0
11
34.6644001942691
21
127.555123846527
31
0.0
 0
ENDSEC
 0
EOF
