 0
SECTION
 2
ENTITIES
  0
LINE
 8
COMPONENT0
10
60.0318601262749
20
75.1870811073337
30
0.0
11
58.8290974391439
21
59.1347461139073
31
0.0
  0
LINE
 8
COMPONENT0
10
58.8290974391439
20
59.1347461139073
30
0.0
11
55.2207867897037
21
44.5319086935406
31
0.0
  0
LINE
 8
COMPONENT0
10
55.2207867897037
20
44.5319086935406
30
0.0
11
49.4228313207047
21
31.7177942558537
31
0.0
  0
LINE
 8
COMPONENT0
10
49.4228313207047
20
31.7177942558537
30
0.0
11
41.6510927634774
21
21.0316658572122
31
0.0
  0
LINE
 8
COMPONENT0
10
41.6510927634774
20
21.0316658572122
30
0.0
11
32.7845350905609
21
12.9361045267699
31
0.0
  0
LINE
 8
COMPONENT0
10
32.7845350905609
20
12.9361045267699
30
0.0
11
22.4684798445847
21
6.90684798445848
31
0.0
  0
LINE
 8
COMPONENT0
10
22.4684798445847
20
6.90684798445848
30
0.0
11
11.1038610976202
21
3.15975575574456
31
0.0
  0
LINE
 8
COMPONENT0
10
11.1038610976202
20
3.15975575574456
30
0.0
11
-0.908402136959684
21
1.91073336571152
31
0.0
  0
LINE
 8
COMPONENT0
10
-0.908402136959684
20
1.91073336571152
30
0.0
11
-20.3377367654201
21
4.25458960660516
31
0.0
  0
LINE
 8
COMPONENT0
10
-20.3377367654201
20
4.25458960660516
30
0.0
11
-38.0400194269063
21
11.5328800388538
31
0.0
  0
LINE
 8
COMPONENT0
10
-38.0400194269063
20
11.5328800388538
30
0.0
11
-38.0400194269063
21
-46.2
31
0.0
  0
LINE
 8
COMPONENT0
10
-38.0400194269063
20
-46.2
30
0.0
11
-61.2318601262749
21
-46.2
31
0.0
  0
LINE
 8
COMPONENT0
10
-61.2318601262749
20
-46.2
30
0.0
11
-61.2318601262749
21
142.418746964546
31
0.0
  0
LINE
 8
COMPONENT0
10
-61.2318601262749
20
142.418746964546
30
0.0
11
-38.0400194269063
21
142.418746964546
31
0.0
  0
LINE
 8
COMPONENT0
10
-38.0400194269063
20
142.418746964546
30
0.0
11
-38.0400194269063
21
127.985526954832
31
0.0
  0
LINE
 8
COMPONENT0
10
-38.0400194269063
20
127.985526954832
30
0.0
11
-17.2537153958232
21
141.000097134531
31
0.0
  0
LINE
 8
COMPONENT0
10
-17.2537153958232
20
141.000097134531
30
0.0
11
-5.33397468466849
21
144.932231910116
31
0.0
  0
LINE
 8
COMPONENT0
10
-5.33397468466849
20
144.932231910116
30
0.0
11
7.35677513355998
21
146.242933462846
31
0.0
  0
LINE
 8
COMPONENT0
10
7.35677513355998
20
146.242933462846
30
0.0
11
19.126201332096
21
145.067158080328
31
0.0
  0
LINE
 8
COMPONENT0
10
19.126201332096
20
145.067158080328
30
0.0
11
29.5154837328117
21
141.539821579921
31
0.0
  0
LINE
 8
COMPONENT0
10
29.5154837328117
20
141.539821579921
30
0.0
11
38.5246590412838
21
135.66090843234
31
0.0
  0
LINE
 8
COMPONENT0
10
38.5246590412838
20
135.66090843234
30
0.0
11
46.1537639630889
21
127.430403108305
31
0.0
  0
LINE
 8
COMPONENT0
10
46.1537639630889
20
127.430403108305
30
0.0
11
52.2254500931475
21
117.110485306268
31
0.0
  0
LINE
 8
COMPONENT0
10
52.2254500931475
20
117.110485306268
30
0.0
11
56.5623530265137
21
104.963324371827
31
0.0
  0
LINE
 8
COMPONENT0
10
56.5623530265137
20
104.963324371827
30
0.0
11
59.164485468964
21
90.9888723053823
31
0.0
  0
LINE
 8
COMPONENT0
10
59.164485468964
20
90.9888723053823
30
0.0
11
60.0318601262749
21
75.1870811073337
31
0.0
  0
LINE
 8
COMPONENT0
10
36.099854298203
20
74.5702768334143
30
0.0
11
33.9718908472047
21
96.3434846438037
31
0.0
  0
LINE
 8
COMPONENT0
10
33.9718908472047
20
96.3434846438037
30
0.0
11
27.5879553181156
21
111.825254978145
31
0.0
  0
LINE
 8
COMPONENT0
10
27.5879553181156
20
111.825254978145
30
0.0
11
22.7614572864994
21
117.222309315975
31
0.0
  0
LINE
 8
COMPONENT0
10
22.7614572864994
20
117.222309315975
30
0.0
11
16.7938908773814
21
121.077334145634
31
0.0
  0
LINE
 8
COMPONENT0
10
16.7938908773814
20
121.077334145634
30
0.0
11
1.43545410393395
21
124.161340456532
31
0.0
  0
LINE
 8
COMPONENT0
10
1.43545410393395
20
124.161340456532
30
0.0
11
-8.58761581784025
21
123.081937683017
31
0.0
  0
LINE
 8
COMPONENT0
10
-8.58761581784025
20
123.081937683017
30
0.0
11
-18.6723652258378
21
119.843710539097
31
0.0
  0
LINE
 8
COMPONENT0
10
-18.6723652258378
20
119.843710539097
30
0.0
11
-38.0400194269063
21
108.49451189898
31
0.0
  0
LINE
 8
COMPONENT0
10
-38.0400194269063
20
108.49451189898
30
0.0
11
-38.0400194269063
21
30.4070908207868
31
0.0
  0
LINE
 8
COMPONENT0
10
-38.0400194269063
20
30.4070908207868
30
0.0
11
-21.0779018941234
21
24.3624089363769
31
0.0
  0
LINE
 8
COMPONENT0
10
-21.0779018941234
20
24.3624089363769
30
0.0
11
-4.97931034482758
21
22.7587178241865
31
0.0
  0
LINE
 8
COMPONENT0
10
-4.97931034482758
20
22.7587178241865
30
0.0
11
12.2603804052426
21
26.0277640055082
31
0.0
  0
LINE
 8
COMPONENT0
10
12.2603804052426
20
26.0277640055082
30
0.0
11
19.2842228393407
21
30.1140902614177
31
0.0
  0
LINE
 8
COMPONENT0
10
19.2842228393407
20
30.1140902614177
30
0.0
11
25.244099077222
21
35.8349684312773
31
0.0
  0
LINE
 8
COMPONENT0
10
25.244099077222
20
35.8349684312773
30
0.0
11
29.9935057509924
21
43.1595257134273
31
0.0
  0
LINE
 8
COMPONENT0
10
29.9935057509924
20
43.1595257134273
30
0.0
11
33.38592772815
21
52.0569053060746
31
0.0
  0
LINE
 8
COMPONENT0
10
33.38592772815
20
52.0569053060746
30
0.0
11
36.099854298203
21
74.5702768334143
31
0.0
 0
ENDSEC
 0
EOF
