 0
SECTION
 2
ENTITIES
  0
LINE
 8
COMPONENT0
10
87.5000389012213
20
-41.2760477268132
30
0.0
11
72.8817776093321
21
-43.9283061046666
31
0.0
  0
LINE
 8
COMPONENT0
10
72.8817776093321
20
-43.9283061046666
30
0.0
11
58.1401554626589
21
-44.7301516607617
31
0.0
  0
LINE
 8
COMPONENT0
10
58.1401554626589
20
-44.7301516607617
30
0.0
11
38.7879091332462
21
-41.7849263114948
31
0.0
  0
LINE
 8
COMPONENT0
10
38.7879091332462
20
-41.7849263114948
30
0.0
11
23.6607965505657
21
-32.9491900289016
31
0.0
  0
LINE
 8
COMPONENT0
10
23.6607965505657
20
-32.9491900289016
30
0.0
11
17.8975136162814
21
-26.4226232761348
31
0.0
  0
LINE
 8
COMPONENT0
10
17.8975136162814
20
-26.4226232761348
30
0.0
11
13.6222909926611
21
-18.6239234729006
31
0.0
  0
LINE
 8
COMPONENT0
10
13.6222909926611
20
-18.6239234729006
30
0.0
11
9.53597867781191
21
0.79000375448837
31
0.0
  0
LINE
 8
COMPONENT0
10
9.53597867781191
20
0.79000375448837
30
0.0
11
3.79969893036169
21
0.111519053177054
31
0.0
  0
LINE
 8
COMPONENT0
10
3.79969893036169
20
0.111519053177054
30
0.0
11
-1.5664982527369
21
-0.0735222289987596
31
0.0
  0
LINE
 8
COMPONENT0
10
-1.5664982527369
20
-0.0735222289987596
30
0.0
11
-20.0552105987291
21
1.53016088325826
31
0.0
  0
LINE
 8
COMPONENT0
10
-20.0552105987291
20
1.53016088325826
30
0.0
11
-36.7860222935334
21
6.34124221976277
31
0.0
  0
LINE
 8
COMPONENT0
10
-36.7860222935334
20
6.34124221976277
30
0.0
11
-51.4505490823941
21
14.205489535824
31
0.0
  0
LINE
 8
COMPONENT0
10
-51.4505490823941
20
14.205489535824
30
0.0
11
-63.7403690638102
21
24.968731292128
31
0.0
  0
LINE
 8
COMPONENT0
10
-63.7403690638102
20
24.968731292128
30
0.0
11
-73.5629833612185
21
38.5692584732856
31
0.0
  0
LINE
 8
COMPONENT0
10
-73.5629833612185
20
38.5692584732856
30
0.0
11
-80.825847451377
21
54.9454190046098
31
0.0
  0
LINE
 8
COMPONENT0
10
-80.825847451377
20
54.9454190046098
30
0.0
11
-85.313105985255
21
73.9738261491795
31
0.0
  0
LINE
 8
COMPONENT0
10
-85.313105985255
20
73.9738261491795
30
0.0
11
-86.808848908395
21
95.5311402285049
31
0.0
  0
LINE
 8
COMPONENT0
10
-86.808848908395
20
95.5311402285049
30
0.0
11
-85.3285260626914
21
116.826313432583
31
0.0
  0
LINE
 8
COMPONENT0
10
-85.3285260626914
20
116.826313432583
30
0.0
11
-80.8875278787689
21
135.80845931544
31
0.0
  0
LINE
 8
COMPONENT0
10
-80.8875278787689
20
135.80845931544
30
0.0
11
-73.6092442699929
21
152.354243375014
31
0.0
  0
LINE
 8
COMPONENT0
10
-73.6092442699929
20
152.354243375014
30
0.0
11
-63.6170082090264
21
166.340270874449
31
0.0
  0
LINE
 8
COMPONENT0
10
-63.6170082090264
20
166.340270874449
30
0.0
11
-51.4505500235627
21
177.010988577929
31
0.0
  0
LINE
 8
COMPONENT0
10
-51.4505500235627
20
177.010988577929
30
0.0
11
-36.6626614387495
21
184.844399092031
31
0.0
  0
LINE
 8
COMPONENT0
10
-36.6626614387495
20
184.844399092031
30
0.0
11
-19.839328632273
21
189.655481840288
31
0.0
  0
LINE
 8
COMPONENT0
10
-19.839328632273
20
189.655481840288
30
0.0
11
-1.5664982527369
21
191.259163540792
31
0.0
  0
LINE
 8
COMPONENT0
10
-1.5664982527369
20
191.259163540792
30
0.0
11
17.1689353322387
21
189.640057968766
31
0.0
  0
LINE
 8
COMPONENT0
10
17.1689353322387
20
189.640057968766
30
0.0
11
33.8997474976273
21
184.782718664639
31
0.0
  0
LINE
 8
COMPONENT0
10
33.8997474976273
20
184.782718664639
30
0.0
11
48.4409120199512
21
176.933893690701
31
0.0
  0
LINE
 8
COMPONENT0
10
48.4409120199512
20
176.933893690701
30
0.0
11
60.6073725583364
21
166.340270874449
31
0.0
  0
LINE
 8
COMPONENT0
10
60.6073725583364
20
166.340270874449
30
0.0
11
70.5225087909395
21
152.616381426755
31
0.0
  0
LINE
 8
COMPONENT0
10
70.5225087909395
20
152.616381426755
30
0.0
11
77.8162118006871
21
136.1168614524
31
0.0
  0
LINE
 8
COMPONENT0
10
77.8162118006871
20
136.1168614524
30
0.0
11
82.3034704227996
21
117.026774821607
31
0.0
  0
LINE
 8
COMPONENT0
10
82.3034704227996
20
117.026774821607
30
0.0
11
83.799213257705
21
95.5311402285049
31
0.0
  0
LINE
 8
COMPONENT0
10
83.799213257705
20
95.5311402285049
30
0.0
11
80.3605482539771
21
64.5058720739993
31
0.0
  0
LINE
 8
COMPONENT0
10
80.3605482539771
20
64.5058720739993
30
0.0
11
76.062195823023
21
50.9824684857131
31
0.0
  0
LINE
 8
COMPONENT0
10
76.062195823023
20
50.9824684857131
30
0.0
11
70.0444779493029
21
38.7851470279221
31
0.0
  0
LINE
 8
COMPONENT0
10
70.0444779493029
20
38.7851470279221
30
0.0
11
62.5772813258958
21
28.1144046334715
31
0.0
  0
LINE
 8
COMPONENT0
10
62.5772813258958
20
28.1144046334715
30
0.0
11
53.9304775871827
21
19.1707535880201
31
0.0
  0
LINE
 8
COMPONENT0
10
53.9304775871827
20
19.1707535880201
30
0.0
11
44.104030027587
21
11.9541632741758
31
0.0
  0
LINE
 8
COMPONENT0
10
44.104030027587
20
11.9541632741758
30
0.0
11
33.0979019415322
21
6.46460307454665
31
0.0
  0
LINE
 8
COMPONENT0
10
33.0979019415322
20
6.46460307454665
30
0.0
11
35.0099886025018
21
-6.02569123696196
31
0.0
  0
LINE
 8
COMPONENT0
10
35.0099886025018
20
-6.02569123696196
30
0.0
11
39.7593880998615
21
-15.3702682221993
31
0.0
  0
LINE
 8
COMPONENT0
10
39.7593880998615
20
-15.3702682221993
30
0.0
11
48.4563133034266
21
-21.1990784930081
31
0.0
  0
LINE
 8
COMPONENT0
10
48.4563133034266
20
-21.1990784930081
30
0.0
11
62.2110636705268
21
-23.1420020735835
31
0.0
  0
LINE
 8
COMPONENT0
10
62.2110636705268
20
-23.1420020735835
30
0.0
11
74.2387470119547
21
-21.5999913887851
31
0.0
  0
LINE
 8
COMPONENT0
10
74.2387470119547
20
-21.5999913887851
30
0.0
11
84.1692958220567
21
-18.8243721561479
31
0.0
  0
LINE
 8
COMPONENT0
10
84.1692958220567
20
-18.8243721561479
30
0.0
11
87.5000389012213
21
-18.8243721561479
31
0.0
  0
LINE
 8
COMPONENT0
10
87.5000389012213
20
-18.8243721561479
30
0.0
11
87.5000389012213
21
-41.2760477268132
31
0.0
  0
LINE
 8
COMPONENT0
10
58.3868771722267
20
95.5311402285049
30
0.0
11
57.3845779917489
21
112.396923387262
31
0.0
  0
LINE
 8
COMPONENT0
10
57.3845779917489
20
112.396923387262
30
0.0
11
54.3776700974606
21
127.219481447991
31
0.0
  0
LINE
 8
COMPONENT0
10
54.3776700974606
20
127.219481447991
30
0.0
11
49.3661379600794
21
139.998864527924
31
0.0
  0
LINE
 8
COMPONENT0
10
49.3661379600794
20
139.998864527924
30
0.0
11
42.3499660503228
21
150.735122744289
31
0.0
  0
LINE
 8
COMPONENT0
10
42.3499660503228
20
150.735122744289
30
0.0
11
33.5990448259446
21
159.235482055794
31
0.0
  0
LINE
 8
COMPONENT0
10
33.5990448259446
20
159.235482055794
30
0.0
11
23.3832478036628
21
165.307146303682
31
0.0
  0
LINE
 8
COMPONENT0
10
23.3832478036628
20
165.307146303682
30
0.0
11
11.7025340426421
21
168.950132428989
31
0.0
  0
LINE
 8
COMPONENT0
10
11.7025340426421
20
168.950132428989
30
0.0
11
-1.44313739795302
21
170.16445737275
31
0.0
  0
LINE
 8
COMPONENT0
10
-1.44313739795302
20
170.16445737275
30
0.0
11
-14.6928968538706
21
168.950132428989
31
0.0
  0
LINE
 8
COMPONENT0
10
-14.6928968538706
20
168.950132428989
30
0.0
11
-26.4391461278182
21
165.307146303682
31
0.0
  0
LINE
 8
COMPONENT0
10
-26.4391461278182
20
165.307146303682
30
0.0
11
-36.6819272194462
21
159.235482055794
31
0.0
  0
LINE
 8
COMPONENT0
10
-36.6819272194462
20
159.235482055794
30
0.0
11
-45.4212821284047
21
150.735122744289
31
0.0
  0
LINE
 8
COMPONENT0
10
-45.4212821284047
20
150.735122744289
30
0.0
11
-52.4104683217699
21
139.998864527924
31
0.0
  0
LINE
 8
COMPONENT0
10
-52.4104683217699
20
139.998864527924
30
0.0
11
-57.4027253844142
21
127.219481447991
31
0.0
  0
LINE
 8
COMPONENT0
10
-57.4027253844142
20
127.219481447991
30
0.0
11
-60.3980684926817
21
112.396923387262
31
0.0
  0
LINE
 8
COMPONENT0
10
-60.3980684926817
20
112.396923387262
30
0.0
11
-61.3965128229166
21
95.5311402285049
31
0.0
  0
LINE
 8
COMPONENT0
10
-61.3965128229166
20
95.5311402285049
30
0.0
11
-60.3787934473563
21
78.5188664076306
31
0.0
  0
LINE
 8
COMPONENT0
10
-60.3787934473563
20
78.5188664076306
30
0.0
11
-57.3256250854664
21
63.6269184543152
31
0.0
  0
LINE
 8
COMPONENT0
10
-57.3256250854664
20
63.6269184543152
30
0.0
11
-52.2369923844338
21
50.8552455454525
31
0.0
  0
LINE
 8
COMPONENT0
10
-52.2369923844338
20
50.8552455454525
30
0.0
11
-45.112879991445
21
40.2037968579366
31
0.0
  0
LINE
 8
COMPONENT0
10
-45.112879991445
20
40.2037968579366
30
0.0
11
-36.2771492382175
21
31.8113764414423
31
0.0
  0
LINE
 8
COMPONENT0
10
-36.2771492382175
20
31.8113764414423
30
0.0
11
-26.0536420448657
21
25.8168129336749
31
0.0
  0
LINE
 8
COMPONENT0
10
-26.0536420448657
20
25.8168129336749
30
0.0
11
-14.4423181764305
21
22.2200881583152
31
0.0
  0
LINE
 8
COMPONENT0
10
-14.4423181764305
20
22.2200881583152
30
0.0
11
-1.44313739795302
21
21.021183939044
31
0.0
  0
LINE
 8
COMPONENT0
10
-1.44313739795302
20
21.021183939044
30
0.0
11
11.5521880008742
21
22.2200881583152
31
0.0
  0
LINE
 8
COMPONENT0
10
11.5521880008742
20
22.2200881583152
30
0.0
11
23.151946200943
21
25.8168129336749
31
0.0
  0
LINE
 8
COMPONENT0
10
23.151946200943
20
25.8168129336749
30
0.0
11
33.3561781430888
21
31.8113764414423
31
0.0
  0
LINE
 8
COMPONENT0
10
33.3561781430888
20
31.8113764414423
30
0.0
11
42.164924768147
21
40.2037968579366
31
0.0
  0
LINE
 8
COMPONENT0
10
42.164924768147
20
40.2037968579366
30
0.0
11
49.2620522388555
21
50.8552455454525
31
0.0
  0
LINE
 8
COMPONENT0
10
49.2620522388555
20
50.8552455454525
30
0.0
11
54.3314097769167
21
63.6269184543152
31
0.0
  0
LINE
 8
COMPONENT0
10
54.3314097769167
20
63.6269184543152
30
0.0
11
57.3730129116129
21
78.5188664076306
31
0.0
  0
LINE
 8
COMPONENT0
10
57.3730129116129
20
78.5188664076306
30
0.0
11
58.3868771722267
21
95.5311402285049
31
0.0
 0
ENDSEC
 0
EOF
