 0
SECTION
 2
ENTITIES
  0
LINE
 8
COMPONENT0
10
60.4670032861671
20
-48.4610808293768
30
0.0
11
37.2751625867985
21
-48.4610808293768
31
0.0
  0
LINE
 8
COMPONENT0
10
37.2751625867985
20
-48.4610808293768
30
0.0
11
37.2751625867985
21
17.9070590443483
31
0.0
  0
LINE
 8
COMPONENT0
10
37.2751625867985
20
17.9070590443483
30
0.0
11
26.5736074931286
21
9.8423371040794
31
0.0
  0
LINE
 8
COMPONENT0
10
26.5736074931286
20
9.8423371040794
30
0.0
11
15.933734709188
21
4.1523237359462
31
0.0
  0
LINE
 8
COMPONENT0
10
15.933734709188
20
4.1523237359462
30
0.0
11
4.89294008836836
21
0.775314703931579
31
0.0
  0
LINE
 8
COMPONENT0
10
4.89294008836836
20
0.775314703931579
30
0.0
11
-7.01138428061289
21
-0.350347463665262
31
0.0
  0
LINE
 8
COMPONENT0
10
-7.01138428061289
20
-0.350347463665262
30
0.0
11
-18.6651575601596
21
0.833136858315032
31
0.0
  0
LINE
 8
COMPONENT0
10
-18.6651575601596
20
0.833136858315032
30
0.0
11
-29.0775694152708
21
4.3836016623926
31
0.0
  0
LINE
 8
COMPONENT0
10
-29.0775694152708
20
4.3836016623926
30
0.0
11
-38.2486565515233
21
10.3010647057725
31
0.0
  0
LINE
 8
COMPONENT0
10
-38.2486565515233
20
10.3010647057725
30
0.0
11
-46.1784556744934
21
18.5855437456596
31
0.0
  0
LINE
 8
COMPONENT0
10
-46.1784556744934
20
18.5855437456596
30
0.0
11
-52.5739656365818
21
28.9517219564753
31
0.0
  0
LINE
 8
COMPONENT0
10
-52.5739656365818
20
28.9517219564753
30
0.0
11
-57.1421699961987
21
41.1143026742374
31
0.0
  0
LINE
 8
COMPONENT0
10
-57.1421699961987
20
41.1143026742374
30
0.0
11
-59.8830825179352
21
55.0733344279535
31
0.0
  0
LINE
 8
COMPONENT0
10
-59.8830825179352
20
55.0733344279535
30
0.0
11
-60.7967169663827
21
70.828865746631
31
0.0
  0
LINE
 8
COMPONENT0
10
-60.7967169663827
20
70.828865746631
30
0.0
11
-59.5168545097113
21
87.5596863825373
31
0.0
  0
LINE
 8
COMPONENT0
10
-59.5168545097113
20
87.5596863825373
30
0.0
11
-55.6772414928518
21
102.224203289127
31
0.0
  0
LINE
 8
COMPONENT0
10
-55.6772414928518
20
102.224203289127
30
0.0
11
-49.7405044739906
21
114.760756744719
31
0.0
  0
LINE
 8
COMPONENT0
10
-49.7405044739906
20
114.760756744719
30
0.0
11
-42.1692278940175
21
125.107641851536
31
0.0
  0
LINE
 8
COMPONENT0
10
-42.1692278940175
20
125.107641851536
30
0.0
11
-33.3180905632411
21
133.095262845804
31
0.0
  0
LINE
 8
COMPONENT0
10
-33.3180905632411
20
133.095262845804
30
0.0
11
-23.0482954025167
21
139.047418442114
31
0.0
  0
LINE
 8
COMPONENT0
10
-23.0482954025167
20
139.047418442114
30
0.0
11
-11.7607795427137
21
142.748247850305
31
0.0
  0
LINE
 8
COMPONENT0
10
-11.7607795427137
20
142.748247850305
30
0.0
11
0.143545296851897
21
143.981852633469
31
0.0
  0
LINE
 8
COMPONENT0
10
0.143545296851897
20
143.981852633469
30
0.0
11
19.8196016348801
21
141.514635537792
31
0.0
  0
LINE
 8
COMPONENT0
10
19.8196016348801
20
141.514635537792
30
0.0
11
37.2751625867985
21
134.236345105543
31
0.0
  0
LINE
 8
COMPONENT0
10
37.2751625867985
20
134.236345105543
30
0.0
11
38.755492844205
21
140.157666135169
31
0.0
  0
LINE
 8
COMPONENT0
10
38.755492844205
20
140.157666135169
30
0.0
11
60.4670032861671
21
140.157666135169
31
0.0
  0
LINE
 8
COMPONENT0
10
60.4670032861671
20
140.157666135169
30
0.0
11
60.4670032861671
21
-48.4610808293768
31
0.0
  0
LINE
 8
COMPONENT0
10
37.2751625867985
20
37.3980741002007
30
0.0
11
37.2751625867985
21
115.36213432361
31
0.0
  0
LINE
 8
COMPONENT0
10
37.2751625867985
20
115.36213432361
30
0.0
11
20.2513646266236
21
121.40681620802
31
0.0
  0
LINE
 8
COMPONENT0
10
20.2513646266236
20
121.40681620802
30
0.0
11
4.21445350471979
21
123.133868174994
31
0.0
  0
LINE
 8
COMPONENT0
10
4.21445350471979
20
123.133868174994
30
0.0
11
-13.4878404507899
21
119.726042443794
31
0.0
  0
LINE
 8
COMPONENT0
10
-13.4878404507899
20
119.726042443794
30
0.0
11
-20.5348119863452
21
115.466240162313
31
0.0
  0
LINE
 8
COMPONENT0
10
-20.5348119863452
20
115.466240162313
30
0.0
11
-26.3790384816814
21
109.502493721376
31
0.0
  0
LINE
 8
COMPONENT0
10
-26.3790384816814
20
109.502493721376
30
0.0
11
-34.2433059152221
21
93.2959736593366
31
0.0
  0
LINE
 8
COMPONENT0
10
-34.2433059152221
20
93.2959736593366
30
0.0
11
-36.8647111383108
21
71.9391134396859
31
0.0
  0
LINE
 8
COMPONENT0
10
-36.8647111383108
20
71.9391134396859
30
0.0
11
-34.7521673235762
21
50.5514106534176
31
0.0
  0
LINE
 8
COMPONENT0
10
-34.7521673235762
20
50.5514106534176
30
0.0
11
-28.4144925856153
21
34.7458157223474
31
0.0
  0
LINE
 8
COMPONENT0
10
-28.4144925856153
20
34.7458157223474
30
0.0
11
-23.5841404096327
21
29.051923268879
31
0.0
  0
LINE
 8
COMPONENT0
10
-23.5841404096327
20
29.051923268879
30
0.0
11
-17.5433290223942
21
24.9848720877065
31
0.0
  0
LINE
 8
COMPONENT0
10
-17.5433290223942
20
24.9848720877065
30
0.0
11
-1.83022837969012
21
21.7312455426485
31
0.0
  0
LINE
 8
COMPONENT0
10
-1.83022837969012
20
21.7312455426485
30
0.0
11
8.28536171258769
21
22.8260679524279
31
0.0
  0
LINE
 8
COMPONENT0
10
8.28536171258769
20
22.8260679524279
30
0.0
11
18.4009518048655
21
26.1105558874761
31
0.0
  0
LINE
 8
COMPONENT0
10
18.4009518048655
20
26.1105558874761
30
0.0
11
37.2751625867985
21
37.3980741002007
31
0.0
 0
ENDSEC
 0
EOF
