 0
SECTION
 2
ENTITIES
  0
LINE
 8
COMPONENT0
10
75.9902865468674
20
0.0
30
0.0
11
44.2865468674113
21
0.0
31
0.0
  0
LINE
 8
COMPONENT0
10
44.2865468674113
20
0.0
30
0.0
11
-17.1471588149587
21
73.0296260320544
31
0.0
  0
LINE
 8
COMPONENT0
10
-17.1471588149587
20
73.0296260320544
30
0.0
11
-51.56483729966
21
73.0296260320544
31
0.0
  0
LINE
 8
COMPONENT0
10
-51.56483729966
20
73.0296260320544
30
0.0
11
-51.56483729966
21
0.0
31
0.0
  0
LINE
 8
COMPONENT0
10
-51.56483729966
20
0.0
30
0.0
11
-75.9902865468674
21
0.0
31
0.0
  0
LINE
 8
COMPONENT0
10
-75.9902865468674
20
0.0
30
0.0
11
-75.9902865468674
21
183.684312773191
31
0.0
  0
LINE
 8
COMPONENT0
10
-75.9902865468674
20
183.684312773191
30
0.0
11
-24.5488101019913
21
183.684312773191
31
0.0
  0
LINE
 8
COMPONENT0
10
-24.5488101019913
20
183.684312773191
30
0.0
11
3.20738222438077
21
181.525497814473
31
0.0
  0
LINE
 8
COMPONENT0
10
3.20738222438077
20
181.525497814473
30
0.0
11
13.754738131908
21
178.518578861453
31
0.0
  0
LINE
 8
COMPONENT0
10
13.754738131908
20
178.518578861453
30
0.0
11
23.1918406993686
21
173.815444390481
31
0.0
  0
LINE
 8
COMPONENT0
10
23.1918406993686
20
173.815444390481
30
0.0
11
32.0892461153302
21
166.706778898234
31
0.0
  0
LINE
 8
COMPONENT0
10
32.0892461153302
20
166.706778898234
30
0.0
11
38.7969888295289
21
157.963574550753
31
0.0
  0
LINE
 8
COMPONENT0
10
38.7969888295289
20
157.963574550753
30
0.0
11
43.0066855283777
21
147.123248848306
31
0.0
  0
LINE
 8
COMPONENT0
10
43.0066855283777
20
147.123248848306
30
0.0
11
44.4099077221952
21
133.723166585721
31
0.0
  0
LINE
 8
COMPONENT0
10
44.4099077221952
20
133.723166585721
30
0.0
11
41.9118617068453
21
115.481171714038
31
0.0
  0
LINE
 8
COMPONENT0
10
41.9118617068453
20
115.481171714038
30
0.0
11
34.4176784847013
21
100.477416221467
31
0.0
  0
LINE
 8
COMPONENT0
10
34.4176784847013
20
100.477416221467
30
0.0
11
22.5442056234396
21
88.7427083219701
31
0.0
  0
LINE
 8
COMPONENT0
10
22.5442056234396
20
88.7427083219701
30
0.0
11
6.90820786789703
21
80.3079164643031
31
0.0
  0
LINE
 8
COMPONENT0
10
6.90820786789703
20
80.3079164643031
30
0.0
11
75.9902865468674
21
0.0
31
0.0
  0
LINE
 8
COMPONENT0
10
18.874210781933
20
131.996114618747
30
0.0
11
16.0985915492958
21
145.997571636717
31
0.0
  0
LINE
 8
COMPONENT0
10
16.0985915492958
20
145.997571636717
30
0.0
11
12.4131926008079
21
151.625912518568
31
0.0
  0
LINE
 8
COMPONENT0
10
12.4131926008079
20
151.625912518568
30
0.0
11
6.90820786789703
21
156.29820301117
31
0.0
  0
LINE
 8
COMPONENT0
10
6.90820786789703
20
156.29820301117
30
0.0
11
-5.67459932005828
21
161.294317629917
31
0.0
  0
LINE
 8
COMPONENT0
10
-5.67459932005828
20
161.294317629917
30
0.0
11
-22.821758135017
21
162.712967459932
31
0.0
  0
LINE
 8
COMPONENT0
10
-22.821758135017
20
162.712967459932
30
0.0
11
-51.56483729966
21
162.712967459932
31
0.0
  0
LINE
 8
COMPONENT0
10
-51.56483729966
20
162.712967459932
30
0.0
11
-51.56483729966
21
93.3841670713939
31
0.0
  0
LINE
 8
COMPONENT0
10
-51.56483729966
20
93.3841670713939
30
0.0
11
-26.8926663428849
21
93.3841670713939
31
0.0
  0
LINE
 8
COMPONENT0
10
-26.8926663428849
20
93.3841670713939
30
0.0
11
-6.66148615832929
21
95.4196211753278
31
0.0
  0
LINE
 8
COMPONENT0
10
-6.66148615832929
20
95.4196211753278
30
0.0
11
1.32613201243256
21
98.334018546091
31
0.0
  0
LINE
 8
COMPONENT0
10
1.32613201243256
20
98.334018546091
30
0.0
11
8.01845556095192
21
103.006313744536
31
0.0
  0
LINE
 8
COMPONENT0
10
8.01845556095192
20
103.006313744536
30
0.0
11
16.2219524040796
21
114.91063623118
31
0.0
  0
LINE
 8
COMPONENT0
10
16.2219524040796
20
114.91063623118
30
0.0
11
18.874210781933
21
131.996114618747
31
0.0
 0
ENDSEC
 0
EOF
