 0
SECTION
 2
ENTITIES
  0
LINE
 8
COMPONENT0
10
70.8091306459446
20
55.7591063623118
30
0.0
11
69.5601076382697
21
45.0883919529222
31
0.0
  0
LINE
 8
COMPONENT0
10
69.5601076382697
20
45.0883919529222
30
0.0
11
65.8130160271977
21
34.5410393394852
31
0.0
  0
LINE
 8
COMPONENT0
10
65.8130160271977
20
34.5410393394852
30
0.0
11
59.8145982280062
21
24.8572082389843
31
0.0
  0
LINE
 8
COMPONENT0
10
59.8145982280062
20
24.8572082389843
30
0.0
11
51.8115590092278
21
16.7770762506071
31
0.0
  0
LINE
 8
COMPONENT0
10
51.8115590092278
20
16.7770762506071
30
0.0
11
41.1254287282491
21
9.7455032338443
31
0.0
  0
LINE
 8
COMPONENT0
10
41.1254287282491
20
9.7455032338443
30
0.0
11
28.804759592035
21
4.44099077221952
31
0.0
  0
LINE
 8
COMPONENT0
10
28.804759592035
20
4.44099077221952
30
0.0
11
14.3252849087893
21
1.11024213427765
31
0.0
  0
LINE
 8
COMPONENT0
10
14.3252849087893
20
1.11024213427765
30
0.0
11
-2.83729966002914
21
0.0
31
0.0
  0
LINE
 8
COMPONENT0
10
-2.83729966002914
20
0.0
30
0.0
11
-21.6960955115416
21
0.925201822681992
31
0.0
  0
LINE
 8
COMPONENT0
10
-21.6960955115416
20
0.925201822681992
30
0.0
11
-38.5502671199611
21
3.70082564351627
31
0.0
  0
LINE
 8
COMPONENT0
10
-38.5502671199611
20
3.70082564351627
30
0.0
11
-70.8091306459446
21
14.6799417192812
31
0.0
  0
LINE
 8
COMPONENT0
10
-70.8091306459446
20
14.6799417192812
30
0.0
11
-70.8091306459446
21
45.2734337056824
31
0.0
  0
LINE
 8
COMPONENT0
10
-70.8091306459446
20
45.2734337056824
30
0.0
11
-69.0820786789704
21
45.2734337056824
31
0.0
  0
LINE
 8
COMPONENT0
10
-69.0820786789704
20
45.2734337056824
30
0.0
11
-54.0629000207531
21
35.0036352508678
31
0.0
  0
LINE
 8
COMPONENT0
10
-54.0629000207531
20
35.0036352508678
30
0.0
11
-36.8848955803788
21
27.3861097620204
31
0.0
  0
LINE
 8
COMPONENT0
10
-36.8848955803788
20
27.3861097620204
30
0.0
11
-19.1826115071397
21
22.6675493018959
31
0.0
  0
LINE
 8
COMPONENT0
10
-19.1826115071397
20
22.6675493018959
30
0.0
11
-2.59057795046139
21
21.0947061680427
31
0.0
  0
LINE
 8
COMPONENT0
10
-2.59057795046139
20
21.0947061680427
30
0.0
11
17.5943550899111
21
23.2226703249175
31
0.0
  0
LINE
 8
COMPONENT0
10
17.5943550899111
20
23.2226703249175
30
0.0
11
32.752306945119
21
29.6066051481302
31
0.0
  0
LINE
 8
COMPONENT0
10
32.752306945119
20
29.6066051481302
30
0.0
11
42.2356886564962
21
39.5371473700517
31
0.0
  0
LINE
 8
COMPONENT0
10
42.2356886564962
20
39.5371473700517
30
0.0
11
45.3967945604662
21
52.3050024283633
31
0.0
  0
LINE
 8
COMPONENT0
10
45.3967945604662
20
52.3050024283633
30
0.0
11
43.9010517255608
21
62.9140439397099
31
0.0
  0
LINE
 8
COMPONENT0
10
43.9010517255608
20
62.9140439397099
30
0.0
11
39.4137931034483
21
70.3156872268091
31
0.0
  0
LINE
 8
COMPONENT0
10
39.4137931034483
20
70.3156872268091
30
0.0
11
31.8733674429643
21
75.4660057375418
31
0.0
  0
LINE
 8
COMPONENT0
10
31.8733674429643
20
75.4660057375418
30
0.0
11
21.2180670228266
21
79.321029626032
31
0.0
  0
LINE
 8
COMPONENT0
10
21.2180670228266
20
79.321029626032
30
0.0
11
1.17192812044681
21
83.3919378338999
31
0.0
  0
LINE
 8
COMPONENT0
10
1.17192812044681
20
83.3919378338999
30
0.0
11
-21.7115104419621
21
87.4628460417678
31
0.0
  0
LINE
 8
COMPONENT0
10
-21.7115104419621
20
87.4628460417678
30
0.0
11
-42.9758537851994
21
94.4789852459145
31
0.0
  0
LINE
 8
COMPONENT0
10
-42.9758537851994
20
94.4789852459145
30
0.0
11
-57.9179213210296
21
105.165128703254
31
0.0
  0
LINE
 8
COMPONENT0
10
-57.9179213210296
20
105.165128703254
30
0.0
11
-66.7536572506846
21
119.582917312096
31
0.0
  0
LINE
 8
COMPONENT0
10
-66.7536572506846
20
119.582917312096
30
0.0
11
-69.6988829528897
21
137.794074793589
31
0.0
  0
LINE
 8
COMPONENT0
10
-69.6988829528897
20
137.794074793589
30
0.0
11
-68.4807036221172
21
148.807907991933
31
0.0
  0
LINE
 8
COMPONENT0
10
-68.4807036221172
20
148.807907991933
30
0.0
11
-64.8261534828419
21
158.780845860708
31
0.0
  0
LINE
 8
COMPONENT0
10
-64.8261534828419
20
158.780845860708
30
0.0
11
-58.7352143146275
21
167.712923693738
31
0.0
  0
LINE
 8
COMPONENT0
10
-58.7352143146275
20
167.712923693738
30
0.0
11
-50.2078678970374
21
175.604176784847
31
0.0
  0
LINE
 8
COMPONENT0
10
-50.2078678970374
20
175.604176784847
30
0.0
11
-39.806992592888
21
182.05365976794
31
0.0
  0
LINE
 8
COMPONENT0
10
-39.806992592888
20
182.05365976794
30
0.0
11
-28.0954483239728
21
186.660414100562
31
0.0
  0
LINE
 8
COMPONENT0
10
-28.0954483239728
20
186.660414100562
30
0.0
11
-15.0731881495064
21
189.424455311994
31
0.0
  0
LINE
 8
COMPONENT0
10
-15.0731881495064
20
189.424455311994
30
0.0
11
-0.74016512870326
21
190.34579893152
31
0.0
  0
LINE
 8
COMPONENT0
10
-0.74016512870326
20
190.34579893152
30
0.0
11
17.8256482221132
21
189.420598167653
31
0.0
  0
LINE
 8
COMPONENT0
10
17.8256482221132
20
189.420598167653
30
0.0
11
34.7877610490529
21
186.644973288004
31
0.0
  0
LINE
 8
COMPONENT0
10
34.7877610490529
20
186.644973288004
30
0.0
11
63.4074793589121
21
177.516270033997
31
0.0
  0
LINE
 8
COMPONENT0
10
63.4074793589121
20
177.516270033997
30
0.0
11
63.4074793589121
21
148.64983001457
31
0.0
  0
LINE
 8
COMPONENT0
10
63.4074793589121
20
148.64983001457
30
0.0
11
61.6804273919378
21
148.64983001457
31
0.0
  0
LINE
 8
COMPONENT0
10
61.6804273919378
20
148.64983001457
30
0.0
11
49.5448127142604
21
156.776228205795
31
0.0
  0
LINE
 8
COMPONENT0
10
49.5448127142604
20
156.776228205795
30
0.0
11
34.1092763477416
21
163.391452161243
31
0.0
  0
LINE
 8
COMPONENT0
10
34.1092763477416
20
163.391452161243
30
0.0
11
16.8233384534883
21
167.786192024605
31
0.0
  0
LINE
 8
COMPONENT0
10
16.8233384534883
20
167.786192024605
30
0.0
11
-0.863525983487128
21
169.251092763477
31
0.0
  0
LINE
 8
COMPONENT0
10
-0.863525983487128
20
169.251092763477
30
0.0
11
-18.5503979498116
21
167.215649953567
31
0.0
  0
LINE
 8
COMPONENT0
10
-18.5503979498116
20
167.215649953567
30
0.0
11
-32.3822243807674
21
161.109276347742
31
0.0
  0
LINE
 8
COMPONENT0
10
-32.3822243807674
20
161.109276347742
30
0.0
11
-41.3104808338641
21
151.795539340908
31
0.0
  0
LINE
 8
COMPONENT0
10
-41.3104808338641
20
151.795539340908
30
0.0
11
-44.2865468674114
21
140.137931034483
31
0.0
  0
LINE
 8
COMPONENT0
10
-44.2865468674114
20
140.137931034483
30
0.0
11
-42.8062236687696
21
129.898970675735
31
0.0
  0
LINE
 8
COMPONENT0
10
-42.8062236687696
20
129.898970675735
30
0.0
11
-38.3652258377853
21
122.127246236037
31
0.0
  0
LINE
 8
COMPONENT0
10
-38.3652258377853
20
122.127246236037
30
0.0
11
-30.1925814435458
21
116.360122510216
31
0.0
  0
LINE
 8
COMPONENT0
10
-30.1925814435458
20
116.360122510216
30
0.0
11
-17.5172413793103
21
112.135016998543
31
0.0
  0
LINE
 8
COMPONENT0
10
-17.5172413793103
20
112.135016998543
30
0.0
11
4.93443419135502
21
107.940747935891
31
0.0
  0
LINE
 8
COMPONENT0
10
4.93443419135502
20
107.940747935891
30
0.0
11
29.6066051481302
21
102.882952889752
31
0.0
  0
LINE
 8
COMPONENT0
10
29.6066051481302
20
102.882952889752
30
0.0
11
47.5556217543763
21
96.0672713099549
31
0.0
  0
LINE
 8
COMPONENT0
10
47.5556217543763
20
96.0672713099549
30
0.0
11
60.4468188440991
21
86.4759592034968
31
0.0
  0
LINE
 8
COMPONENT0
10
60.4468188440991
20
86.4759592034968
30
0.0
11
68.2185639895068
21
73.307198308173
31
0.0
  0
LINE
 8
COMPONENT0
10
68.2185639895068
20
73.307198308173
30
0.0
11
70.8091306459446
21
55.7591063623118
31
0.0
 0
ENDSEC
 0
EOF
