 0
SECTION
 2
ENTITIES
  0
LINE
 8
COMPONENT0
10
53.8470131131617
20
43.0529383195726
30
0.0
11
52.8716984137915
21
34.039865396508
31
0.0
  0
LINE
 8
COMPONENT0
10
52.8716984137915
20
34.039865396508
30
0.0
11
49.9457449039943
21
25.8749312909846
31
0.0
  0
LINE
 8
COMPONENT0
10
49.9457449039943
20
25.8749312909846
30
0.0
11
45.0691384662408
21
18.558107062067
31
0.0
  0
LINE
 8
COMPONENT0
10
45.0691384662408
20
18.558107062067
30
0.0
11
38.2418649830015
21
12.0893637688198
31
0.0
  0
LINE
 8
COMPONENT0
10
38.2418649830015
20
12.0893637688198
30
0.0
11
29.7261025056844
21
6.80025011274987
31
0.0
  0
LINE
 8
COMPONENT0
10
29.7261025056844
20
6.80025011274987
30
0.0
11
19.7840121446622
21
3.02232582468382
31
0.0
  0
LINE
 8
COMPONENT0
10
19.7840121446622
20
3.02232582468382
30
0.0
11
-4.37931034482759
21
0.0
31
0.0
  0
LINE
 8
COMPONENT0
10
-4.37931034482759
20
0.0
30
0.0
11
-19.0438350160589
21
0.909781745245527
31
0.0
  0
LINE
 8
COMPONENT0
10
-19.0438350160589
20
0.909781745245527
30
0.0
11
-32.4439048081593
21
3.63914521612433
31
0.0
  0
LINE
 8
COMPONENT0
10
-32.4439048081593
20
3.63914521612433
30
0.0
11
-53.8470131131617
21
11.5959203496843
31
0.0
  0
LINE
 8
COMPONENT0
10
-53.8470131131617
20
11.5959203496843
30
0.0
11
-53.8470131131617
21
37.6250607090821
31
0.0
  0
LINE
 8
COMPONENT0
10
-53.8470131131617
20
37.6250607090821
30
0.0
11
-52.613404565323
21
37.6250607090821
31
0.0
  0
LINE
 8
COMPONENT0
10
-52.613404565323
20
37.6250607090821
30
0.0
11
-41.0174868038524
21
30.2079853152349
31
0.0
  0
LINE
 8
COMPONENT0
10
-41.0174868038524
20
30.2079853152349
30
0.0
11
-28.1879553181156
21
24.4871296745993
31
0.0
  0
LINE
 8
COMPONENT0
10
-28.1879553181156
20
24.4871296745993
30
0.0
11
-15.0191826581839
21
20.8325582340309
31
0.0
  0
LINE
 8
COMPONENT0
10
-15.0191826581839
20
20.8325582340309
30
0.0
11
-2.40553666828558
21
19.6143759106362
31
0.0
  0
LINE
 8
COMPONENT0
10
-2.40553666828558
20
19.6143759106362
30
0.0
11
11.2258476676033
21
20.847978576171
31
0.0
  0
LINE
 8
COMPONENT0
10
11.2258476676033
20
20.847978576171
30
0.0
11
21.5264691597863
21
24.5488101019913
31
0.0
  0
LINE
 8
COMPONENT0
10
21.5264691597863
20
24.5488101019913
30
0.0
11
28.0029234476261
21
30.901886829304
31
0.0
  0
LINE
 8
COMPONENT0
10
28.0029234476261
20
30.901886829304
30
0.0
11
30.1617289946576
21
40.0922778047596
31
0.0
  0
LINE
 8
COMPONENT0
10
30.1617289946576
20
40.0922778047596
30
0.0
11
28.9898055800539
21
47.2472120880675
31
0.0
  0
LINE
 8
COMPONENT0
10
28.9898055800539
20
47.2472120880675
30
0.0
11
25.4740165128703
21
52.4283632831472
31
0.0
  0
LINE
 8
COMPONENT0
10
25.4740165128703
20
52.4283632831472
30
0.0
11
18.6275013075574
21
56.3142311500079
31
0.0
  0
LINE
 8
COMPONENT0
10
18.6275013075574
20
56.3142311500079
30
0.0
11
7.46333171442448
21
59.5832928606119
31
0.0
  0
LINE
 8
COMPONENT0
10
7.46333171442448
20
59.5832928606119
30
0.0
11
-5.42787761049053
21
62.1738708110733
31
0.0
  0
LINE
 8
COMPONENT0
10
-5.42787761049053
20
62.1738708110733
30
0.0
11
-19.9227780475959
21
65.3812530354541
31
0.0
  0
LINE
 8
COMPONENT0
10
-19.9227780475959
20
65.3812530354541
30
0.0
11
-35.4199984885351
21
71.317989466085
31
0.0
  0
LINE
 8
COMPONENT0
10
-35.4199984885351
20
71.317989466085
30
0.0
11
-45.643516270034
21
79.5060709082079
31
0.0
  0
LINE
 8
COMPONENT0
10
-45.643516270034
20
79.5060709082079
30
0.0
11
-51.3335451380381
21
89.8837971698896
31
0.0
  0
LINE
 8
COMPONENT0
10
-51.3335451380381
20
89.8837971698896
30
0.0
11
-53.2302088392423
21
102.389509470617
31
0.0
  0
LINE
 8
COMPONENT0
10
-53.2302088392423
20
102.389509470617
30
0.0
11
-49.7144244779019
21
118.426420592521
31
0.0
  0
LINE
 8
COMPONENT0
10
-49.7144244779019
20
118.426420592521
30
0.0
11
-45.2888584595505
21
125.550510897458
31
0.0
  0
LINE
 8
COMPONENT0
10
-45.2888584595505
20
125.550510897458
30
0.0
11
-39.0437105390967
21
131.872753763963
31
0.0
  0
LINE
 8
COMPONENT0
10
-39.0437105390967
20
131.872753763963
30
0.0
11
-31.1948808593157
21
137.069335418746
31
0.0
  0
LINE
 8
COMPONENT0
10
-31.1948808593157
20
137.069335418746
30
0.0
11
-21.4647887323944
21
141.063137445362
31
0.0
  0
LINE
 8
COMPONENT0
10
-21.4647887323944
20
141.063137445362
30
0.0
11
2.40553666828558
21
144.455560951918
31
0.0
  0
LINE
 8
COMPONENT0
10
2.40553666828558
20
144.455560951918
30
0.0
11
27.3861097620204
21
141.433220009713
31
0.0
  0
LINE
 8
COMPONENT0
10
27.3861097620204
20
141.433220009713
30
0.0
11
48.4191355026712
21
134.093249150073
31
0.0
  0
LINE
 8
COMPONENT0
10
48.4191355026712
20
134.093249150073
30
0.0
11
48.4191355026712
21
109.297717338514
31
0.0
  0
LINE
 8
COMPONENT0
10
48.4191355026712
20
109.297717338514
30
0.0
11
47.1855269548324
21
109.297717338514
31
0.0
  0
LINE
 8
COMPONENT0
10
47.1855269548324
20
109.297717338514
30
0.0
11
25.5973773676542
21
120.338513841671
31
0.0
  0
LINE
 8
COMPONENT0
10
25.5973773676542
20
120.338513841671
30
0.0
11
13.0145706502832
21
123.715521947222
31
0.0
  0
LINE
 8
COMPONENT0
10
13.0145706502832
20
123.715521947222
30
0.0
11
0.67848470131131
21
124.841185041282
31
0.0
  0
LINE
 8
COMPONENT0
10
0.67848470131131
20
124.841185041282
30
0.0
11
-11.040802620753
21
123.623001306135
31
0.0
  0
LINE
 8
COMPONENT0
10
-11.040802620753
20
123.623001306135
30
0.0
11
-20.786304031083
21
119.968431277319
31
0.0
  0
LINE
 8
COMPONENT0
10
-20.786304031083
20
119.968431277319
30
0.0
11
-27.3552806070558
21
113.908335874242
31
0.0
  0
LINE
 8
COMPONENT0
10
-27.3552806070558
20
113.908335874242
30
0.0
11
-29.5449247207382
21
105.473530840214
31
0.0
  0
LINE
 8
COMPONENT0
10
-29.5449247207382
20
105.473530840214
30
0.0
11
-28.218802119992
21
98.0101925376088
31
0.0
  0
LINE
 8
COMPONENT0
10
-28.218802119992
20
98.0101925376088
30
0.0
11
-24.2404079650316
21
92.6440019426906
31
0.0
  0
LINE
 8
COMPONENT0
10
-24.2404079650316
20
92.6440019426906
30
0.0
11
-17.4555689518518
21
88.7272938621339
31
0.0
  0
LINE
 8
COMPONENT0
10
-17.4555689518518
20
88.7272938621339
30
0.0
11
-7.46333171442448
21
85.6124332200097
31
0.0
  0
LINE
 8
COMPONENT0
10
-7.46333171442448
20
85.6124332200097
30
0.0
11
6.90820786789703
21
82.6517727051967
31
0.0
  0
LINE
 8
COMPONENT0
10
6.90820786789703
20
82.6517727051967
30
0.0
11
20.1694997571637
21
79.9378338999514
31
0.0
  0
LINE
 8
COMPONENT0
10
20.1694997571637
20
79.9378338999514
30
0.0
11
34.4793673826109
21
74.9108856556889
31
0.0
  0
LINE
 8
COMPONENT0
10
34.4793673826109
20
74.9108856556889
30
0.0
11
45.0883924235065
21
67.2316658572122
31
0.0
  0
LINE
 8
COMPONENT0
10
45.0883924235065
20
67.2316658572122
30
0.0
11
51.6573682936029
21
56.6226394045637
31
0.0
  0
LINE
 8
COMPONENT0
10
51.6573682936029
20
56.6226394045637
30
0.0
11
53.8470131131617
21
43.0529383195726
31
0.0
 0
ENDSEC
 0
EOF
