 0
SECTION
 2
ENTITIES
  0
LINE
 8
COMPONENT0
10
70.5007285089849
20
77.5939776590578
30
0.0
11
69.4059046874526
21
58.8893814642722
31
0.0
  0
LINE
 8
COMPONENT0
10
69.4059046874526
20
58.8893814642722
30
0.0
11
66.1214181641574
21
42.7445361826129
31
0.0
  0
LINE
 8
COMPONENT0
10
66.1214181641574
20
42.7445361826129
30
0.0
11
60.3388856255122
21
29.1285754829544
31
0.0
  0
LINE
 8
COMPONENT0
10
60.3388856255122
20
29.1285754829544
30
0.0
11
51.7498785818358
21
18.0106847984458
31
0.0
  0
LINE
 8
COMPONENT0
10
51.7498785818358
20
18.0106847984458
30
0.0
11
41.4492490897195
21
9.89970212587168
31
0.0
  0
LINE
 8
COMPONENT0
10
41.4492490897195
20
9.89970212587168
30
0.0
11
29.5449247207382
21
4.31762991743565
31
0.0
  0
LINE
 8
COMPONENT0
10
29.5449247207382
20
4.31762991743565
30
0.0
11
15.7901960005165
21
1.07940206763928
31
0.0
  0
LINE
 8
COMPONENT0
10
15.7901960005165
20
1.07940206763928
30
0.0
11
-0.061680427391928
21
0.0
31
0.0
  0
LINE
 8
COMPONENT0
10
-0.061680427391928
20
0.0
30
0.0
11
-16.2219580510914
21
1.14108220091603
31
0.0
  0
LINE
 8
COMPONENT0
10
-16.2219580510914
20
1.14108220091603
30
0.0
11
-30.1617289946576
21
4.5643516270034
31
0.0
  0
LINE
 8
COMPONENT0
10
-30.1617289946576
20
4.5643516270034
30
0.0
11
-41.973535781349
21
10.2081054981152
31
0.0
  0
LINE
 8
COMPONENT0
10
-41.973535781349
20
10.2081054981152
30
0.0
11
-51.7498785818358
21
18.0106847984458
31
0.0
  0
LINE
 8
COMPONENT0
10
-51.7498785818358
20
18.0106847984458
30
0.0
11
-60.3388849196358
21
29.1748369799591
31
0.0
  0
LINE
 8
COMPONENT0
10
-60.3388849196358
20
29.1748369799591
30
0.0
11
-66.1214181641573
21
42.4361340456532
31
0.0
  0
LINE
 8
COMPONENT0
10
-66.1214181641573
20
42.4361340456532
30
0.0
11
-69.4059064080265
21
58.3805155853672
31
0.0
  0
LINE
 8
COMPONENT0
10
-69.4059064080265
20
58.3805155853672
30
0.0
11
-70.5007285089849
21
77.5939776590578
31
0.0
  0
LINE
 8
COMPONENT0
10
-70.5007285089849
20
77.5939776590578
30
0.0
11
-70.5007285089849
21
187.508499271491
31
0.0
  0
LINE
 8
COMPONENT0
10
-70.5007285089849
20
187.508499271491
30
0.0
11
-46.0752792617776
21
187.508499271491
31
0.0
  0
LINE
 8
COMPONENT0
10
-46.0752792617776
20
187.508499271491
30
0.0
11
-46.0752792617776
21
76.360369111219
31
0.0
  0
LINE
 8
COMPONENT0
10
-46.0752792617776
20
76.360369111219
30
0.0
11
-44.0398251578436
21
52.7984458474988
31
0.0
  0
LINE
 8
COMPONENT0
10
-44.0398251578436
20
52.7984458474988
30
0.0
11
-37.1932977173385
21
37.1316172899466
31
0.0
  0
LINE
 8
COMPONENT0
10
-37.1932977173385
20
37.1316172899466
30
0.0
11
-30.7939590224367
21
30.100043155546
31
0.0
  0
LINE
 8
COMPONENT0
10
-30.7939590224367
20
30.100043155546
30
0.0
11
-22.4516755706654
21
25.0422535211268
31
0.0
  0
LINE
 8
COMPONENT0
10
-22.4516755706654
20
25.0422535211268
30
0.0
11
-12.1973092225989
21
21.9890674240905
31
0.0
  0
LINE
 8
COMPONENT0
10
-12.1973092225989
20
21.9890674240905
30
0.0
11
-0.061680427391928
21
20.9713453132589
31
0.0
  0
LINE
 8
COMPONENT0
10
-0.061680427391928
20
20.9713453132589
30
0.0
11
12.1510489020549
21
21.9736470819504
31
0.0
  0
LINE
 8
COMPONENT0
10
12.1510489020549
20
21.9736470819504
30
0.0
11
22.3899951432734
21
24.9805730937348
31
0.0
  0
LINE
 8
COMPONENT0
10
22.3899951432734
20
24.9805730937348
30
0.0
11
30.7168584881968
21
30.0229433271826
31
0.0
  0
LINE
 8
COMPONENT0
10
30.7168584881968
20
30.0229433271826
30
0.0
11
37.1932977173385
21
37.1316172899466
31
0.0
  0
LINE
 8
COMPONENT0
10
37.1932977173385
20
37.1316172899466
30
0.0
11
44.0398251578436
21
53.2302088392423
31
0.0
  0
LINE
 8
COMPONENT0
10
44.0398251578436
20
53.2302088392423
30
0.0
11
46.0752792617776
21
75.7435648372996
31
0.0
  0
LINE
 8
COMPONENT0
10
46.0752792617776
20
75.7435648372996
30
0.0
11
46.0752792617776
21
187.508499271491
31
0.0
  0
LINE
 8
COMPONENT0
10
46.0752792617776
20
187.508499271491
30
0.0
11
70.5007285089849
21
187.508499271491
31
0.0
  0
LINE
 8
COMPONENT0
10
70.5007285089849
20
187.508499271491
30
0.0
11
70.5007285089849
21
77.5939776590578
31
0.0
 0
ENDSEC
 0
EOF
